<?xml version="1.0" encoding="utf-8"?>
<!-- Generator: Adobe Illustrator 16.0.0, SVG Export Plug-In . SVG Version: 6.00 Build 0)  -->
<!DOCTYPE svg PUBLIC "-//W3C//DTD SVG 1.1//EN" "http://www.w3.org/Graphics/SVG/1.1/DTD/svg11.dtd">
<svg version="1.1" id="Layer_1" xmlns="http://www.w3.org/2000/svg" xmlns:xlink="http://www.w3.org/1999/xlink" x="0px" y="0px"
	 width="142.317px" height="179.654px" viewBox="0 0 142.317 179.654" enable-background="new 0 0 142.317 179.654"
	 xml:space="preserve">
<path fill="#5BBC98" d="M71.341,179.654c-18.747,0-36.409-4.639-49.734-13.06c-13.699-8.659-21.244-20.297-21.244-32.771
	c0-12.473,7.545-24.11,21.244-32.77c13.325-8.421,30.987-13.059,49.734-13.059s36.409,4.638,49.732,13.059
	c13.699,8.659,21.244,20.297,21.244,32.77c0,12.474-7.545,24.111-21.244,32.771C107.75,175.016,90.088,179.654,71.341,179.654
	 M71.341,93.263c-36.233,0-65.711,18.196-65.711,40.562c0,22.367,29.478,40.563,65.711,40.563c36.232,0,65.71-18.195,65.71-40.563
	C137.051,111.459,107.573,93.263,71.341,93.263"/>
<path fill="#5BBC98" d="M71.341,150.32c-18.747,0-36.41-4.637-49.734-13.059c-13.699-8.658-21.244-20.296-21.244-32.77
	c0-12.473,7.545-24.111,21.244-32.769c13.325-8.421,30.987-13.059,49.734-13.059s36.409,4.638,49.732,13.059
	c13.699,8.658,21.244,20.296,21.244,32.769c0,12.474-7.545,24.111-21.244,32.77C107.75,145.684,90.088,150.32,71.341,150.32
	 M71.341,63.931c-36.233,0-65.711,18.196-65.711,40.562s29.478,40.562,65.711,40.562c36.232,0,65.71-18.196,65.71-40.562
	S107.573,63.931,71.341,63.931"/>
<path fill="#5BBC98" d="M71.341,120.988c-18.747,0-36.41-4.637-49.734-13.059C7.907,99.271,0.362,87.634,0.362,75.161
	c0-12.474,7.545-24.112,21.244-32.77c13.324-8.421,30.987-13.059,49.734-13.059s36.409,4.638,49.732,13.059
	c13.699,8.658,21.244,20.296,21.244,32.77c0,12.473-7.545,24.111-21.244,32.769C107.75,116.352,90.088,120.988,71.341,120.988
	 M71.341,34.599c-36.233,0-65.711,18.196-65.711,40.562c0,22.365,29.478,40.561,65.711,40.561c36.232,0,65.71-18.196,65.71-40.561
	C137.051,52.795,107.573,34.599,71.341,34.599"/>
<path fill="#5BBC98" d="M71.341,91.656c-18.747,0-36.409-4.637-49.734-13.059C7.907,69.939,0.362,58.302,0.362,45.828
	c0-12.473,7.545-24.111,21.244-32.769C34.931,4.638,52.594,0,71.341,0s36.409,4.638,49.732,13.059
	c13.699,8.658,21.244,20.296,21.244,32.769c0,12.474-7.545,24.111-21.244,32.77C107.75,87.019,90.088,91.656,71.341,91.656
	 M71.341,5.267C35.107,5.267,5.63,23.463,5.63,45.828c0,22.366,29.478,40.562,65.711,40.562c36.232,0,65.71-18.196,65.71-40.562
	C137.051,23.463,107.573,5.267,71.341,5.267"/>
</svg>
