<?xml version="1.0" encoding="utf-8"?>
<!-- Generator: Adobe Illustrator 16.0.0, SVG Export Plug-In . SVG Version: 6.00 Build 0)  -->
<!DOCTYPE svg PUBLIC "-//W3C//DTD SVG 1.1//EN" "http://www.w3.org/Graphics/SVG/1.1/DTD/svg11.dtd">
<svg version="1.1" id="Layer_1" xmlns="http://www.w3.org/2000/svg" xmlns:xlink="http://www.w3.org/1999/xlink" x="0px" y="0px"
	 width="182.361px" height="179.629px" viewBox="0 0 182.361 179.629" enable-background="new 0 0 182.361 179.629"
	 xml:space="preserve">
<path fill="#D1AEA0" d="M182.361,89.814c0,3.254-72.244,0.188-72.787,3.287c-0.558,3.186,68.383,24.934,67.301,27.906
	c-1.101,3.025-67.904-24.631-69.496-21.88c-1.605,2.774,55.69,46.87,53.64,49.311c-2.056,2.449-55.397-46.36-57.847-44.305
	c-2.441,2.051,36.408,63.03,33.632,64.638c-2.75,1.59-36.208-62.494-39.233-61.393c-2.972,1.082,12.592,71.689,9.405,72.246
	c-3.099,0.543-12.54-71.135-15.794-71.135s-12.696,71.678-15.795,71.135c-3.186-0.557,12.377-71.164,9.405-72.246
	c-3.025-1.102-36.483,62.982-39.233,61.392c-2.776-1.606,36.073-62.586,33.632-64.637c-2.449-2.056-55.791,46.753-57.847,44.305
	c-2.051-2.442,55.245-46.536,53.639-49.311c-1.591-2.751-68.395,24.905-69.496,21.88c-1.082-2.973,67.859-24.721,67.301-27.906
	C72.245,90.003,0,93.068,0,89.814s72.245-0.188,72.787-3.287c0.558-3.187-68.383-24.934-67.301-27.906
	c1.101-3.025,67.905,24.631,69.496,21.88c1.606-2.776-55.69-46.87-53.639-49.312c2.056-2.448,55.397,46.362,57.847,44.306
	c2.441-2.051-36.408-63.032-33.632-64.638c2.75-1.591,36.208,62.494,39.233,61.393C87.763,71.168,72.2,0.562,75.386,0.003
	c3.099-0.542,12.541,71.136,15.795,71.136s12.695-71.678,15.794-71.136c3.187,0.559-12.377,71.166-9.405,72.248
	c3.025,1.101,36.483-62.984,39.233-61.393c2.776,1.607-36.073,62.587-33.632,64.638c2.449,2.056,55.791-46.753,57.848-44.305
	c2.05,2.441-55.246,46.535-53.641,49.311c1.592,2.751,68.396-24.905,69.496-21.88c1.082,2.972-67.858,24.719-67.301,27.906
	C110.117,89.626,182.361,86.561,182.361,89.814"/>
</svg>
