<?xml version="1.0" encoding="utf-8"?>
<!-- Generator: Adobe Illustrator 16.0.0, SVG Export Plug-In . SVG Version: 6.00 Build 0)  -->
<!DOCTYPE svg PUBLIC "-//W3C//DTD SVG 1.1//EN" "http://www.w3.org/Graphics/SVG/1.1/DTD/svg11.dtd">
<svg version="1.1" id="Layer_1" xmlns="http://www.w3.org/2000/svg" xmlns:xlink="http://www.w3.org/1999/xlink" x="0px" y="0px"
	 width="179.604px" height="179.605px" viewBox="0 0 179.604 179.605" enable-background="new 0 0 179.604 179.605"
	 xml:space="preserve">
<path fill="#F4B644" d="M70.329,179.605c-14.746-14.369-24.956-31.384-33.652-49.912c-4.16-8.695-8.319-17.015-12.1-25.711
	c-0.378-1.135-0.378-2.269-1.135-3.402c-2.646-3.782-3.78-7.563-6.428-11.344c-1.135-1.134-1.513-2.647-2.646-3.781
	c-0.379-0.378-0.756-0.756-1.135-1.134C9.83,78.648,4.915,74.11,0,70.33c2.268-2.269,4.537-4.538,7.184-6.429
	c0.756-0.378,0.756-1.512,1.513-1.89c12.1-9.453,23.82-17.015,37.434-23.822c8.696-4.159,17.771-7.562,26.468-11.721
	C86.588,20.04,99.821,12.1,109.274,0c0.756,1.512,2.27,2.269,3.403,3.403c9.453,10.209,17.015,21.175,23.821,33.652
	c1.891,3.781,3.781,7.184,5.672,10.966c7.939,16.637,13.234,33.652,24.956,48.398c0.756,0.757,0.756,1.891,1.512,2.646
	c3.403,3.781,6.806,7.186,10.965,10.209c-14.746,13.991-31.383,25.713-50.289,33.653c-0.378,0.378-1.134,0.756-1.512,1.134
	C107.006,153.137,84.319,161.078,70.329,179.605"/>
</svg>
