<?xml version="1.0" encoding="utf-8"?>
<!-- Generator: Adobe Illustrator 16.0.0, SVG Export Plug-In . SVG Version: 6.00 Build 0)  -->
<!DOCTYPE svg PUBLIC "-//W3C//DTD SVG 1.1//EN" "http://www.w3.org/Graphics/SVG/1.1/DTD/svg11.dtd">
<svg version="1.1" id="Layer_1" xmlns="http://www.w3.org/2000/svg" xmlns:xlink="http://www.w3.org/1999/xlink" x="0px" y="0px"
	 width="208.893px" height="60.604px" viewBox="0 0 208.893 60.604" enable-background="new 0 0 208.893 60.604"
	 xml:space="preserve">
<path fill="#E5E5E4" d="M37.839,42.484c1.993-1.485,3.711-3.256,5.153-5.311c1.441-2.058,2.544-4.293,3.307-6.71H36.76
	c-0.892,2.332-2.556,4.272-4.995,5.817c-2.437,1.55-5.097,2.321-7.979,2.321c-2.034,0-3.965-0.381-5.787-1.144
	c-1.824-0.764-3.413-1.822-4.771-3.181c-1.355-1.355-2.438-2.944-3.243-4.769c-0.804-1.822-1.208-3.795-1.208-5.914
	c0-1.993,0.369-3.889,1.112-5.693c0.743-1.801,1.791-3.38,3.15-4.737c1.311-1.4,2.892-2.501,4.737-3.309
	c1.844-0.805,3.846-1.209,6.01-1.209c1.482,0,2.914,0.234,4.293,0.702c1.377,0.466,2.64,1.058,3.783,1.78
	c1.146,0.764,2.141,1.633,2.989,2.605c0.849,0.977,1.506,1.995,1.972,3.055h9.477c-0.763-2.417-1.865-4.653-3.307-6.71
	c-1.442-2.056-3.16-3.825-5.153-5.312c-1.949-1.481-4.133-2.649-6.549-3.498C28.873,0.424,26.35,0,23.721,0
	c-3.264,0-6.339,0.626-9.221,1.876c-2.883,1.25-5.406,2.937-7.57,5.057c-2.161,2.119-3.857,4.622-5.088,7.504
	C0.613,17.32,0,20.374,0,23.596c0,3.263,0.613,6.338,1.842,9.22c1.23,2.883,2.927,5.387,5.088,7.505
	c2.164,2.164,4.688,3.859,7.57,5.088c2.882,1.229,5.957,1.846,9.221,1.846c2.629,0,5.152-0.414,7.569-1.239
	C33.706,45.186,35.89,44.009,37.839,42.484"/>
<polygon fill="#E5E5E4" points="157.188,46.107 157.188,1.144 145.294,1.144 134.099,34.343 122.842,1.144 111.014,1.144 
	111.014,39.015 104.862,39.015 104.862,46.107 111.014,46.107 117.167,46.107 120.11,46.107 120.11,17.807 129.713,46.107 
	138.488,46.107 148.092,17.234 148.092,46.107 "/>
<path fill="#E5E5E4" d="M207.051,14.437c-1.229-2.882-2.928-5.385-5.092-7.505c-2.162-2.163-4.678-3.856-7.565-5.087
	C191.516,0.616,188.44,0,185.171,0c-2.63,0-5.155,0.414-7.567,1.24c-2.413,0.828-4.597,2.005-6.553,3.528
	c-1.987,1.486-3.706,3.256-5.145,5.311c-1.45,2.058-2.547,4.294-3.313,6.711h9.544c0.89-2.332,2.547-4.273,4.989-5.818
	c2.443-1.55,5.093-2.32,7.98-2.32c2.039,0,3.965,0.381,5.787,1.144s3.416,1.822,4.771,3.18c1.356,1.356,2.433,2.945,3.24,4.77
	c0.809,1.821,1.211,3.794,1.211,5.914c0,1.991-0.373,3.889-1.117,5.692c-0.735,1.802-1.791,3.38-3.147,4.739
	c-1.315,1.399-2.887,2.499-4.731,3.307c-1.852,0.805-3.85,1.208-6.014,1.208c-1.479,0-2.919-0.232-4.295-0.7
	c-1.377-0.467-2.64-1.059-3.779-1.78c-1.148-0.764-2.142-1.633-2.992-2.606c-0.848-0.976-1.5-1.996-1.976-3.054h-9.472
	c0.766,2.417,1.862,4.652,3.313,6.71c1.438,2.055,3.157,3.825,5.145,5.312c1.956,1.481,4.14,2.648,6.553,3.497
	c2.412,0.848,4.938,1.271,7.567,1.271c3.27,0,6.345-0.627,9.223-1.877c2.888-1.25,5.403-2.938,7.565-5.056
	c2.164-2.12,3.862-4.623,5.092-7.506c1.229-2.883,1.842-5.936,1.842-9.157C208.893,20.395,208.279,17.32,207.051,14.437"/>
<polygon fill="#E5E5E4" points="61.055,17.807 70.658,46.107 79.434,46.107 89.037,17.234 89.037,46.107 98.134,46.107 
	98.134,8.236 104.862,8.236 104.862,1.144 98.134,1.144 97.124,1.144 86.239,1.144 75.044,34.343 63.787,1.144 51.959,1.144 
	51.959,46.107 61.055,46.107 "/>
<path fill="#E5E5E4" d="M4.197,57.97c-0.287,0.13-0.633,0.195-1.043,0.195c-0.604,0-1.074-0.195-1.415-0.589
	c-0.339-0.39-0.51-0.991-0.51-1.799v-0.831c0-0.343,0.042-0.653,0.121-0.933c0.081-0.283,0.199-0.523,0.357-0.726
	c0.155-0.201,0.353-0.356,0.582-0.469c0.233-0.11,0.499-0.168,0.799-0.168c0.331,0,0.63,0.039,0.896,0.12
	c0.264,0.077,0.546,0.222,0.841,0.431l0.324-0.495c-0.27-0.21-0.573-0.373-0.909-0.484c-0.334-0.112-0.717-0.166-1.152-0.166
	c-0.794,0-1.409,0.253-1.847,0.763s-0.655,1.228-0.655,2.156v0.802c0,0.948,0.216,1.683,0.647,2.206
	c0.43,0.524,1.065,0.786,1.91,0.786c0.518,0,0.949-0.075,1.294-0.226c0.341-0.149,0.634-0.333,0.874-0.551l-0.369-0.498
	C4.733,57.683,4.484,57.841,4.197,57.97"/>
<path fill="#E5E5E4" d="M9.414,53.711c-0.191,0-0.367,0.02-0.523,0.066c-0.156,0.044-0.297,0.104-0.418,0.176
	c-0.125,0.073-0.23,0.155-0.32,0.248c-0.091,0.095-0.164,0.188-0.219,0.277V51.84H7.318v6.832h0.615v-3.163
	c0-0.146,0.034-0.289,0.104-0.435c0.069-0.145,0.162-0.276,0.284-0.397c0.119-0.12,0.267-0.219,0.438-0.293
	c0.174-0.075,0.36-0.114,0.566-0.114c0.241,0,0.441,0.033,0.601,0.1c0.158,0.065,0.284,0.158,0.377,0.275
	c0.095,0.119,0.161,0.253,0.195,0.406c0.036,0.155,0.054,0.317,0.054,0.494v3.127h0.616V55.39c0-0.512-0.153-0.918-0.455-1.225
	C10.408,53.862,9.977,53.711,9.414,53.711"/>
<path fill="#E5E5E4" d="M15.234,53.71c-0.616,0-1.098,0.191-1.451,0.577c-0.352,0.387-0.528,0.927-0.528,1.617v0.605
	c0,0.713,0.182,1.261,0.543,1.649c0.36,0.391,0.867,0.584,1.518,0.584c0.409,0,0.76-0.057,1.048-0.173
	c0.29-0.114,0.531-0.241,0.724-0.379l-0.271-0.47c-0.175,0.127-0.386,0.237-0.634,0.335c-0.245,0.097-0.533,0.144-0.856,0.144
	c-0.453,0-0.807-0.144-1.066-0.437c-0.259-0.293-0.388-0.71-0.388-1.254v-0.079h3.325v-0.508c0-0.686-0.168-1.227-0.502-1.622
	C16.36,53.907,15.871,53.71,15.234,53.71 M16.58,55.915h-2.709v-0.083c0-0.481,0.116-0.864,0.354-1.15
	c0.238-0.285,0.574-0.432,1.01-0.432c0.427,0,0.759,0.139,0.994,0.407c0.235,0.272,0.352,0.664,0.352,1.175V55.915z"/>
<path fill="#E5E5E4" d="M21.109,53.711c-0.657,0-1.167,0.191-1.527,0.571c-0.363,0.383-0.543,0.932-0.543,1.641v0.606
	c0,0.706,0.18,1.25,0.543,1.635c0.36,0.386,0.87,0.58,1.527,0.58c0.654,0,1.164-0.194,1.526-0.58c0.359-0.385,0.54-0.929,0.54-1.635
	v-0.606c0-0.703-0.181-1.249-0.54-1.635C22.273,53.902,21.764,53.711,21.109,53.711 M22.553,56.492c0,0.58-0.127,1.01-0.383,1.289
	c-0.257,0.278-0.61,0.419-1.061,0.419c-0.453,0-0.809-0.141-1.064-0.419c-0.256-0.279-0.383-0.709-0.383-1.289v-0.533
	c0-0.577,0.127-1.006,0.383-1.285c0.256-0.283,0.611-0.423,1.064-0.423c0.45,0,0.804,0.14,1.061,0.423
	c0.256,0.279,0.383,0.708,0.383,1.285V56.492z"/>
<path fill="#E5E5E4" d="M27.397,53.711c-0.192,0-0.368,0.02-0.522,0.066c-0.158,0.044-0.299,0.104-0.426,0.176
	c-0.126,0.073-0.233,0.155-0.325,0.248c-0.09,0.095-0.163,0.188-0.218,0.277v-0.678h-0.604v4.871h0.615v-3.163
	c0-0.146,0.033-0.289,0.104-0.435c0.07-0.145,0.163-0.276,0.285-0.397c0.119-0.12,0.266-0.219,0.437-0.293
	c0.173-0.075,0.359-0.114,0.566-0.114c0.241,0,0.439,0.033,0.601,0.1c0.158,0.065,0.285,0.158,0.378,0.275
	c0.094,0.119,0.161,0.253,0.194,0.406c0.036,0.155,0.054,0.317,0.054,0.494v3.127h0.617V55.39c0-0.512-0.153-0.918-0.456-1.225
	C28.391,53.862,27.959,53.711,27.397,53.711"/>
<path fill="#E5E5E4" d="M34.635,54.396c-0.126-0.183-0.311-0.339-0.556-0.479c-0.243-0.137-0.546-0.207-0.908-0.207
	c-0.276,0-0.533,0.047-0.771,0.141c-0.237,0.093-0.441,0.228-0.616,0.405c-0.17,0.18-0.306,0.396-0.4,0.655
	c-0.096,0.258-0.145,0.553-0.145,0.885v0.769c0,0.332,0.049,0.627,0.145,0.885c0.095,0.262,0.232,0.479,0.406,0.658
	c0.176,0.176,0.381,0.313,0.615,0.405c0.233,0.094,0.492,0.141,0.777,0.141c0.281,0,0.559-0.058,0.825-0.174
	c0.269-0.113,0.471-0.295,0.611-0.54h0.01v0.667c0,0.513-0.117,0.89-0.351,1.136c-0.232,0.244-0.573,0.365-1.023,0.365
	c-0.141,0-0.266-0.004-0.381-0.019c-0.113-0.012-0.226-0.033-0.328-0.066c-0.106-0.034-0.21-0.075-0.313-0.127
	c-0.101-0.052-0.21-0.117-0.327-0.194l-0.278,0.478c0.205,0.156,0.442,0.28,0.709,0.371c0.269,0.091,0.573,0.135,0.919,0.135
	c0.607,0,1.092-0.177,1.449-0.527c0.359-0.354,0.539-0.875,0.539-1.57V53.8h-0.607V54.396z M34.628,56.836
	c0,0.218-0.039,0.406-0.114,0.565c-0.075,0.16-0.176,0.292-0.302,0.397c-0.127,0.106-0.277,0.185-0.448,0.236
	c-0.171,0.049-0.357,0.074-0.557,0.074c-0.409,0-0.738-0.141-0.983-0.424c-0.248-0.282-0.371-0.687-0.371-1.211v-0.589
	c0-0.517,0.123-0.918,0.366-1.204c0.243-0.285,0.574-0.431,0.988-0.431c0.205,0,0.396,0.036,0.568,0.109
	c0.178,0.072,0.326,0.168,0.454,0.284c0.126,0.12,0.225,0.249,0.292,0.388c0.069,0.143,0.106,0.286,0.106,0.43V56.836z"/>
<path fill="#E5E5E4" d="M42.523,53.711c-0.191,0-0.367,0.025-0.528,0.079c-0.161,0.055-0.3,0.124-0.424,0.207
	c-0.124,0.085-0.229,0.182-0.316,0.284c-0.088,0.107-0.157,0.21-0.212,0.314c-0.109-0.282-0.285-0.502-0.524-0.654
	c-0.241-0.156-0.558-0.23-0.947-0.23c-0.183,0-0.345,0.02-0.484,0.062c-0.143,0.044-0.269,0.101-0.386,0.173
	c-0.115,0.07-0.212,0.156-0.293,0.248c-0.082,0.094-0.15,0.188-0.204,0.285v-0.678h-0.606v4.871h0.616v-3.163
	c0-0.146,0.026-0.289,0.08-0.435c0.054-0.145,0.135-0.276,0.242-0.397c0.103-0.12,0.235-0.219,0.392-0.293
	c0.156-0.075,0.336-0.114,0.533-0.114c0.216,0,0.397,0.031,0.536,0.091c0.144,0.059,0.254,0.147,0.336,0.258
	c0.081,0.112,0.138,0.246,0.172,0.401c0.033,0.158,0.049,0.334,0.049,0.534v3.118h0.615v-3.199c0.005-0.141,0.037-0.282,0.095-0.424
	c0.057-0.146,0.14-0.275,0.245-0.392c0.104-0.113,0.233-0.207,0.384-0.278c0.149-0.073,0.325-0.109,0.524-0.109
	c0.215,0,0.396,0.031,0.536,0.091c0.142,0.059,0.253,0.147,0.334,0.258c0.083,0.112,0.139,0.246,0.173,0.401
	c0.034,0.158,0.048,0.334,0.048,0.534v3.118h0.615V55.39c0-0.518-0.128-0.926-0.383-1.229C43.483,53.86,43.079,53.711,42.523,53.711
	"/>
<polygon fill="#E5E5E4" points="48.01,57.983 46.501,53.801 45.867,53.801 47.693,58.751 47.069,60.496 47.594,60.685 
	50.124,53.801 49.492,53.801 "/>
<path fill="#E5E5E4" d="M53.612,53.71c-0.616,0-1.097,0.191-1.452,0.577c-0.352,0.387-0.527,0.927-0.527,1.617v0.605
	c0,0.713,0.181,1.261,0.544,1.649c0.358,0.391,0.866,0.584,1.516,0.584c0.409,0,0.761-0.057,1.048-0.173
	c0.29-0.114,0.53-0.241,0.725-0.379l-0.271-0.47c-0.176,0.127-0.386,0.237-0.634,0.335c-0.246,0.097-0.533,0.144-0.856,0.144
	c-0.453,0-0.809-0.144-1.066-0.437c-0.26-0.293-0.389-0.71-0.389-1.254v-0.079h3.325v-0.508c0-0.686-0.168-1.227-0.502-1.622
	C54.738,53.907,54.248,53.71,53.612,53.71 M54.957,55.915h-2.709v-0.083c0-0.481,0.116-0.864,0.355-1.15
	c0.237-0.285,0.574-0.432,1.009-0.432c0.427,0,0.758,0.139,0.993,0.407c0.236,0.272,0.352,0.664,0.352,1.175V55.915z"/>
<path fill="#E5E5E4" d="M59.486,53.711c-0.656,0-1.166,0.191-1.526,0.571c-0.363,0.383-0.543,0.932-0.543,1.641v0.606
	c0,0.706,0.18,1.25,0.543,1.635c0.36,0.386,0.87,0.58,1.526,0.58c0.655,0,1.164-0.194,1.526-0.58
	c0.361-0.385,0.541-0.929,0.541-1.635v-0.606c0-0.703-0.18-1.249-0.541-1.635C60.65,53.902,60.142,53.711,59.486,53.711
	 M60.931,56.492c0,0.58-0.127,1.01-0.383,1.289c-0.257,0.278-0.61,0.419-1.062,0.419c-0.452,0-0.808-0.141-1.063-0.419
	c-0.257-0.279-0.384-0.709-0.384-1.289v-0.533c0-0.577,0.127-1.006,0.384-1.285c0.255-0.283,0.61-0.423,1.063-0.423
	c0.451,0,0.805,0.14,1.062,0.423c0.256,0.279,0.383,0.708,0.383,1.285V56.492z"/>
<path fill="#E5E5E4" d="M65.774,53.711c-0.191,0-0.366,0.02-0.522,0.066c-0.157,0.044-0.297,0.104-0.424,0.176
	c-0.127,0.073-0.235,0.155-0.326,0.248c-0.091,0.095-0.163,0.188-0.217,0.277v-0.678h-0.606v4.871h0.616v-3.163
	c0-0.146,0.034-0.289,0.104-0.435c0.069-0.145,0.162-0.276,0.284-0.397c0.119-0.12,0.267-0.219,0.438-0.293
	c0.173-0.075,0.358-0.114,0.565-0.114c0.241,0,0.44,0.033,0.602,0.1c0.157,0.065,0.284,0.158,0.377,0.275
	c0.094,0.119,0.161,0.253,0.194,0.406c0.036,0.155,0.055,0.317,0.055,0.494v3.127h0.615V55.39c0-0.512-0.152-0.918-0.455-1.225
	C66.769,53.862,66.337,53.711,65.774,53.711"/>
<path fill="#E5E5E4" d="M73.014,54.396c-0.127-0.183-0.312-0.339-0.558-0.479c-0.243-0.137-0.546-0.207-0.907-0.207
	c-0.277,0-0.533,0.047-0.771,0.141c-0.238,0.093-0.443,0.228-0.616,0.405c-0.171,0.18-0.305,0.396-0.4,0.655
	c-0.097,0.258-0.146,0.553-0.146,0.885v0.769c0,0.332,0.049,0.627,0.146,0.885c0.096,0.262,0.232,0.479,0.405,0.658
	c0.177,0.176,0.381,0.313,0.616,0.405c0.233,0.094,0.492,0.141,0.776,0.141c0.282,0,0.56-0.058,0.826-0.174
	c0.269-0.113,0.471-0.295,0.61-0.54h0.011v0.667c0,0.513-0.116,0.89-0.35,1.136c-0.232,0.244-0.575,0.365-1.024,0.365
	c-0.141,0-0.268-0.004-0.382-0.019c-0.113-0.012-0.224-0.033-0.327-0.066c-0.106-0.034-0.21-0.075-0.313-0.127
	c-0.101-0.052-0.21-0.117-0.327-0.194l-0.278,0.478c0.203,0.156,0.442,0.28,0.709,0.371c0.269,0.091,0.574,0.135,0.919,0.135
	c0.607,0,1.092-0.177,1.448-0.527c0.359-0.354,0.538-0.875,0.538-1.57V53.8h-0.604V54.396z M73.006,56.836
	c0,0.218-0.039,0.406-0.114,0.565c-0.075,0.16-0.176,0.292-0.304,0.397c-0.127,0.106-0.276,0.185-0.446,0.236
	c-0.171,0.049-0.357,0.074-0.558,0.074c-0.407,0-0.737-0.141-0.982-0.424c-0.249-0.282-0.37-0.687-0.37-1.211v-0.589
	c0-0.517,0.121-0.918,0.364-1.204c0.244-0.285,0.576-0.431,0.988-0.431c0.205,0,0.396,0.036,0.57,0.109
	c0.175,0.072,0.326,0.168,0.453,0.284c0.126,0.12,0.225,0.249,0.293,0.388c0.069,0.143,0.105,0.286,0.105,0.43V56.836z"/>
<path fill="#E5E5E4" d="M81.198,52.155h-2.03v6.516h2.03c0.825,0,1.473-0.24,1.941-0.719c0.466-0.479,0.698-1.17,0.698-2.074v-0.931
	c0-0.903-0.232-1.595-0.698-2.072C82.671,52.396,82.023,52.155,81.198,52.155 M83.207,55.832c0,0.393-0.053,0.729-0.15,1.012
	c-0.099,0.284-0.235,0.521-0.412,0.712c-0.173,0.189-0.385,0.329-0.631,0.419c-0.249,0.092-0.515,0.135-0.805,0.135h-1.41v-5.394
	h1.41c0.29,0,0.556,0.044,0.805,0.135c0.246,0.091,0.458,0.231,0.631,0.419c0.177,0.192,0.313,0.431,0.412,0.716
	c0.098,0.287,0.15,0.624,0.15,1.009V55.832z"/>
<rect x="85.525" y="52.183" fill="#E5E5E4" width="0.67" height="0.687"/>
<rect x="85.553" y="53.801" fill="#E5E5E4" width="0.614" height="4.871"/>
<rect x="93.632" y="52.183" fill="#E5E5E4" width="0.67" height="0.687"/>
<rect x="93.66" y="53.801" fill="#E5E5E4" width="0.613" height="4.871"/>
<path fill="#E5E5E4" d="M91.247,54.396c-0.127-0.183-0.31-0.339-0.556-0.479c-0.243-0.137-0.546-0.207-0.908-0.207
	c-0.276,0-0.534,0.047-0.771,0.141c-0.239,0.093-0.443,0.228-0.616,0.405c-0.171,0.18-0.306,0.396-0.401,0.655
	c-0.096,0.258-0.145,0.553-0.145,0.885v0.769c0,0.332,0.049,0.627,0.145,0.885c0.096,0.262,0.232,0.479,0.406,0.658
	c0.175,0.176,0.38,0.313,0.616,0.405c0.231,0.094,0.491,0.141,0.775,0.141c0.282,0,0.56-0.058,0.825-0.174
	c0.27-0.113,0.473-0.295,0.612-0.54h0.01v0.667c0,0.513-0.117,0.89-0.349,1.136c-0.233,0.244-0.575,0.365-1.026,0.365
	c-0.139,0-0.266-0.004-0.38-0.019c-0.114-0.012-0.226-0.033-0.328-0.066c-0.105-0.034-0.21-0.075-0.313-0.127
	c-0.101-0.052-0.209-0.117-0.326-0.194l-0.279,0.478c0.204,0.156,0.443,0.28,0.709,0.371c0.27,0.091,0.575,0.135,0.918,0.135
	c0.608,0,1.093-0.177,1.45-0.527c0.359-0.354,0.537-0.875,0.537-1.57V53.8h-0.605V54.396z M91.24,56.836
	c0,0.218-0.039,0.406-0.113,0.565c-0.075,0.16-0.177,0.292-0.304,0.397c-0.127,0.106-0.276,0.185-0.448,0.236
	c-0.17,0.049-0.356,0.074-0.556,0.074c-0.409,0-0.738-0.141-0.983-0.424c-0.248-0.282-0.369-0.687-0.369-1.211v-0.589
	c0-0.517,0.121-0.918,0.363-1.204c0.244-0.285,0.575-0.431,0.989-0.431c0.205,0,0.396,0.036,0.57,0.109
	c0.175,0.072,0.325,0.168,0.452,0.284c0.127,0.12,0.226,0.249,0.293,0.388c0.068,0.143,0.105,0.286,0.105,0.43V56.836z"/>
<path fill="#E5E5E4" d="M98.151,58.182c-0.248,0-0.425-0.063-0.528-0.198c-0.105-0.133-0.16-0.362-0.16-0.694v-2.965h1.349v-0.523
	h-1.349v-1.257H96.85v1.257h-0.83v0.523h0.83v2.991c0,0.264,0.025,0.485,0.077,0.664c0.05,0.177,0.128,0.321,0.231,0.43
	c0.1,0.106,0.233,0.187,0.393,0.233c0.157,0.05,0.345,0.072,0.555,0.072c0.135,0,0.279-0.01,0.439-0.031
	c0.157-0.02,0.286-0.049,0.382-0.085l-0.09-0.508C98.619,58.154,98.393,58.182,98.151,58.182"/>
<path fill="#E5E5E4" d="M102.105,53.71c-0.375,0-0.702,0.057-0.981,0.171c-0.278,0.113-0.537,0.251-0.763,0.406l0.296,0.471
	c0.213-0.145,0.438-0.263,0.679-0.356c0.241-0.094,0.494-0.14,0.76-0.14c0.38,0,0.666,0.093,0.863,0.284
	c0.194,0.189,0.292,0.461,0.292,0.818v0.45h-1.371c-0.567,0-0.997,0.124-1.284,0.373c-0.289,0.245-0.434,0.568-0.434,0.965v0.198
	c0,0.436,0.145,0.774,0.434,1.022c0.287,0.246,0.666,0.37,1.13,0.37c0.38,0,0.709-0.069,0.984-0.21
	c0.127-0.064,0.235-0.139,0.328-0.219c0.094-0.083,0.167-0.16,0.213-0.241h0.01v0.598h0.597v-3.408c0-0.491-0.156-0.874-0.467-1.146
	C103.08,53.845,102.653,53.71,102.105,53.71 M103.251,57.152c0,0.186-0.044,0.342-0.13,0.466c-0.087,0.124-0.199,0.227-0.331,0.31
	c-0.145,0.092-0.294,0.161-0.45,0.21c-0.156,0.047-0.331,0.072-0.525,0.072c-0.127,0-0.251-0.018-0.374-0.051
	c-0.125-0.032-0.236-0.086-0.334-0.158c-0.1-0.073-0.18-0.163-0.241-0.275c-0.061-0.11-0.088-0.244-0.088-0.402V57.18
	c0-0.253,0.085-0.457,0.262-0.615c0.173-0.155,0.457-0.234,0.848-0.234h1.364V57.152z"/>
<rect x="105.361" y="51.84" fill="#E5E5E4" width="0.616" height="6.832"/>
<path fill="#E5E5E4" d="M116.414,53.711c-0.191,0-0.368,0.025-0.529,0.079c-0.159,0.055-0.299,0.124-0.424,0.207
	c-0.124,0.085-0.228,0.182-0.315,0.284c-0.088,0.107-0.157,0.21-0.212,0.314c-0.108-0.282-0.284-0.502-0.525-0.654
	c-0.241-0.156-0.557-0.23-0.947-0.23c-0.181,0-0.344,0.02-0.483,0.062c-0.144,0.044-0.27,0.101-0.387,0.173
	c-0.113,0.07-0.212,0.156-0.292,0.248c-0.083,0.094-0.149,0.188-0.203,0.285v-0.678h-0.606v4.871h0.616v-3.163
	c0-0.146,0.025-0.289,0.08-0.435c0.054-0.145,0.134-0.276,0.24-0.397c0.104-0.12,0.236-0.219,0.394-0.293
	c0.155-0.075,0.334-0.114,0.533-0.114c0.215,0,0.396,0.031,0.536,0.091c0.142,0.059,0.253,0.147,0.337,0.258
	c0.08,0.112,0.137,0.246,0.17,0.401c0.034,0.158,0.049,0.334,0.049,0.534v3.118h0.616v-3.199c0.006-0.141,0.035-0.282,0.093-0.424
	c0.058-0.146,0.14-0.275,0.246-0.392c0.104-0.113,0.232-0.207,0.384-0.278c0.149-0.073,0.325-0.109,0.525-0.109
	c0.214,0,0.396,0.031,0.535,0.091c0.142,0.059,0.252,0.147,0.334,0.258c0.082,0.112,0.139,0.246,0.173,0.401
	c0.034,0.158,0.049,0.334,0.049,0.534v3.118h0.614V55.39c0-0.518-0.127-0.926-0.384-1.229
	C117.374,53.86,116.971,53.711,116.414,53.711"/>
<path fill="#E5E5E4" d="M122.027,53.71c-0.375,0-0.701,0.057-0.982,0.171c-0.278,0.113-0.535,0.251-0.763,0.406l0.297,0.471
	c0.214-0.145,0.438-0.263,0.679-0.356c0.241-0.094,0.494-0.14,0.759-0.14c0.38,0,0.667,0.093,0.863,0.284
	c0.194,0.189,0.294,0.461,0.294,0.818v0.45h-1.373c-0.565,0-0.995,0.124-1.282,0.373c-0.29,0.245-0.436,0.568-0.436,0.965v0.198
	c0,0.436,0.146,0.774,0.436,1.022c0.287,0.246,0.665,0.37,1.128,0.37c0.381,0,0.709-0.069,0.986-0.21
	c0.127-0.064,0.235-0.139,0.328-0.219c0.094-0.083,0.166-0.16,0.213-0.241h0.01v0.598h0.596v-3.408c0-0.491-0.156-0.874-0.466-1.146
	C123.002,53.845,122.575,53.71,122.027,53.71 M123.174,57.152c0,0.186-0.045,0.342-0.13,0.466c-0.088,0.124-0.2,0.227-0.331,0.31
	c-0.145,0.092-0.296,0.161-0.45,0.21c-0.157,0.047-0.331,0.072-0.525,0.072c-0.127,0-0.251-0.018-0.375-0.051
	c-0.124-0.032-0.236-0.086-0.335-0.158c-0.098-0.073-0.178-0.163-0.24-0.275c-0.059-0.11-0.088-0.244-0.088-0.402V57.18
	c0-0.253,0.085-0.457,0.261-0.615c0.173-0.155,0.458-0.234,0.851-0.234h1.363V57.152z"/>
<path fill="#E5E5E4" d="M128.054,53.711c-0.188,0-0.354,0.025-0.502,0.079c-0.147,0.055-0.282,0.127-0.398,0.219
	c-0.116,0.09-0.216,0.192-0.298,0.308c-0.082,0.113-0.15,0.228-0.204,0.341v-0.856h-0.605v4.871h0.615v-2.768
	c0-0.227,0.029-0.439,0.091-0.631c0.061-0.194,0.148-0.36,0.261-0.497c0.115-0.14,0.255-0.249,0.417-0.326
	c0.161-0.078,0.342-0.115,0.541-0.115c0.224,0,0.419,0.032,0.587,0.098l0.189-0.624c-0.101-0.036-0.207-0.063-0.321-0.078
	C128.315,53.719,128.191,53.711,128.054,53.711"/>
<polygon fill="#E5E5E4" points="134.27,53.801 133.45,53.801 131.1,56.104 131.1,51.84 130.484,51.84 130.484,58.672 131.1,58.672 
	131.1,56.837 131.886,56.077 133.693,58.672 134.443,58.672 132.319,55.67 "/>
<path fill="#E5E5E4" d="M137.896,53.71c-0.616,0-1.098,0.191-1.452,0.577c-0.352,0.387-0.527,0.927-0.527,1.617v0.605
	c0,0.713,0.181,1.261,0.543,1.649c0.359,0.391,0.867,0.584,1.517,0.584c0.409,0,0.761-0.057,1.048-0.173
	c0.29-0.114,0.53-0.241,0.725-0.379l-0.271-0.47c-0.176,0.127-0.386,0.237-0.634,0.335c-0.246,0.097-0.533,0.144-0.856,0.144
	c-0.453,0-0.808-0.144-1.066-0.437s-0.389-0.71-0.389-1.254v-0.079h3.325v-0.508c0-0.686-0.168-1.227-0.502-1.622
	C139.021,53.907,138.531,53.71,137.896,53.71 M139.241,55.915h-2.71v-0.083c0-0.481,0.117-0.864,0.354-1.15
	c0.239-0.285,0.575-0.432,1.01-0.432c0.427,0,0.759,0.139,0.993,0.407c0.236,0.272,0.353,0.664,0.353,1.175V55.915z"/>
<path fill="#E5E5E4" d="M143.651,58.182c-0.249,0-0.425-0.063-0.528-0.198c-0.105-0.133-0.161-0.362-0.161-0.694v-2.965h1.35v-0.523
	h-1.35v-1.257h-0.612v1.257h-0.831v0.523h0.831v2.991c0,0.264,0.025,0.485,0.077,0.664c0.05,0.177,0.128,0.321,0.23,0.43
	c0.101,0.106,0.233,0.187,0.393,0.233c0.158,0.05,0.345,0.072,0.555,0.072c0.135,0,0.278-0.01,0.439-0.031
	c0.158-0.02,0.287-0.049,0.383-0.085l-0.09-0.508C144.119,58.154,143.892,58.182,143.651,58.182"/>
<rect x="146.379" y="52.183" fill="#E5E5E4" width="0.67" height="0.687"/>
<rect x="146.406" y="53.801" fill="#E5E5E4" width="0.614" height="4.871"/>
<path fill="#E5E5E4" d="M151.492,53.711c-0.191,0-0.367,0.02-0.522,0.066c-0.159,0.044-0.298,0.104-0.425,0.176
	c-0.127,0.073-0.235,0.155-0.325,0.248c-0.093,0.095-0.164,0.188-0.218,0.277v-0.678h-0.606v4.871h0.616v-3.163
	c0-0.146,0.034-0.289,0.104-0.435c0.07-0.145,0.163-0.276,0.284-0.397c0.12-0.12,0.267-0.219,0.438-0.293
	c0.173-0.075,0.358-0.114,0.566-0.114c0.24,0,0.439,0.033,0.601,0.1c0.156,0.065,0.283,0.158,0.378,0.275
	c0.093,0.119,0.16,0.253,0.192,0.406c0.037,0.155,0.056,0.317,0.056,0.494v3.127h0.615V55.39c0-0.512-0.152-0.918-0.455-1.225
	C152.485,53.862,152.054,53.711,151.492,53.711"/>
<path fill="#E5E5E4" d="M158.73,54.396c-0.126-0.183-0.312-0.339-0.557-0.479c-0.244-0.137-0.546-0.207-0.908-0.207
	c-0.277,0-0.533,0.047-0.771,0.141c-0.238,0.093-0.442,0.228-0.616,0.405c-0.171,0.18-0.305,0.396-0.401,0.655
	c-0.096,0.258-0.145,0.553-0.145,0.885v0.769c0,0.332,0.049,0.627,0.145,0.885c0.097,0.262,0.233,0.479,0.407,0.658
	c0.177,0.176,0.38,0.313,0.616,0.405c0.232,0.094,0.491,0.141,0.776,0.141c0.282,0,0.558-0.058,0.825-0.174
	c0.269-0.113,0.471-0.295,0.61-0.54h0.011v0.667c0,0.513-0.117,0.89-0.35,1.136c-0.232,0.244-0.575,0.365-1.025,0.365
	c-0.14,0-0.267-0.004-0.38-0.019c-0.113-0.012-0.225-0.033-0.329-0.066c-0.105-0.034-0.21-0.075-0.313-0.127
	c-0.102-0.052-0.21-0.117-0.327-0.194l-0.279,0.478c0.205,0.156,0.443,0.28,0.709,0.371c0.27,0.091,0.575,0.135,0.919,0.135
	c0.608,0,1.094-0.177,1.45-0.527c0.358-0.354,0.538-0.875,0.538-1.57V53.8h-0.605V54.396z M158.723,56.836
	c0,0.218-0.039,0.406-0.114,0.565c-0.074,0.16-0.177,0.292-0.302,0.397c-0.128,0.106-0.277,0.185-0.448,0.236
	c-0.17,0.049-0.357,0.074-0.557,0.074c-0.409,0-0.737-0.141-0.983-0.424c-0.248-0.282-0.37-0.687-0.37-1.211v-0.589
	c0-0.517,0.122-0.918,0.365-1.204c0.243-0.285,0.573-0.431,0.988-0.431c0.203,0,0.396,0.036,0.569,0.109
	c0.176,0.072,0.326,0.168,0.453,0.284c0.126,0.12,0.225,0.249,0.292,0.388c0.07,0.143,0.106,0.286,0.106,0.43V56.836z"/>
<path fill="#E5E5E4" d="M167.501,58.042c-0.22,0.094-0.5,0.14-0.837,0.14c-0.435,0-0.778-0.145-1.029-0.432
	c-0.254-0.291-0.381-0.704-0.381-1.24v-0.624c0-0.512,0.124-0.91,0.37-1.194c0.249-0.287,0.588-0.43,1.021-0.43
	c0.229,0,0.448,0.028,0.66,0.084c0.21,0.059,0.431,0.164,0.661,0.322l0.279-0.479c-0.205-0.158-0.438-0.277-0.697-0.357
	c-0.258-0.083-0.561-0.122-0.903-0.122c-0.302,0-0.575,0.047-0.821,0.146c-0.249,0.096-0.458,0.235-0.632,0.42
	c-0.177,0.183-0.313,0.411-0.411,0.686c-0.103,0.273-0.15,0.589-0.15,0.943v0.605c0,0.712,0.179,1.261,0.532,1.649
	c0.354,0.391,0.853,0.584,1.491,0.584c0.217,0,0.413-0.019,0.587-0.048c0.177-0.035,0.331-0.078,0.472-0.127
	c0.137-0.053,0.262-0.112,0.37-0.178c0.108-0.066,0.207-0.134,0.298-0.198l-0.29-0.49C167.917,57.835,167.721,57.949,167.501,58.042
	"/>
<path fill="#E5E5E4" d="M172.07,53.711c-0.658,0-1.167,0.191-1.527,0.571c-0.361,0.383-0.543,0.932-0.543,1.641v0.606
	c0,0.706,0.182,1.25,0.543,1.635c0.36,0.386,0.869,0.58,1.527,0.58c0.655,0,1.164-0.194,1.527-0.58
	c0.358-0.385,0.541-0.929,0.541-1.635v-0.606c0-0.703-0.183-1.249-0.541-1.635C173.234,53.902,172.726,53.711,172.07,53.711
	 M173.515,56.492c0,0.58-0.127,1.01-0.383,1.289c-0.257,0.278-0.611,0.419-1.062,0.419c-0.453,0-0.808-0.141-1.063-0.419
	c-0.258-0.279-0.385-0.709-0.385-1.289v-0.533c0-0.577,0.127-1.006,0.385-1.285c0.255-0.283,0.609-0.423,1.063-0.423
	c0.45,0,0.805,0.14,1.062,0.423c0.256,0.279,0.383,0.708,0.383,1.285V56.492z"/>
<path fill="#E5E5E4" d="M181.185,53.711c-0.191,0-0.367,0.025-0.527,0.079c-0.161,0.055-0.301,0.124-0.425,0.207
	c-0.124,0.085-0.229,0.182-0.315,0.284c-0.089,0.107-0.157,0.21-0.213,0.314c-0.107-0.282-0.284-0.502-0.524-0.654
	c-0.241-0.156-0.557-0.23-0.947-0.23c-0.182,0-0.346,0.02-0.484,0.062c-0.143,0.044-0.269,0.101-0.386,0.173
	c-0.114,0.07-0.212,0.156-0.293,0.248c-0.082,0.094-0.149,0.188-0.203,0.285v-0.678h-0.606v4.871h0.616v-3.163
	c0-0.146,0.026-0.289,0.08-0.435c0.054-0.145,0.136-0.276,0.241-0.397c0.104-0.12,0.235-0.219,0.393-0.293
	c0.155-0.075,0.334-0.114,0.533-0.114c0.215,0,0.396,0.031,0.535,0.091c0.143,0.059,0.254,0.147,0.337,0.258
	c0.08,0.112,0.138,0.246,0.171,0.401c0.034,0.158,0.049,0.334,0.049,0.534v3.118h0.616v-3.199c0.005-0.141,0.036-0.282,0.095-0.424
	c0.056-0.146,0.139-0.275,0.244-0.392c0.104-0.113,0.233-0.207,0.385-0.278c0.148-0.073,0.324-0.109,0.524-0.109
	c0.215,0,0.396,0.031,0.535,0.091c0.142,0.059,0.253,0.147,0.334,0.258c0.083,0.112,0.139,0.246,0.174,0.401
	c0.033,0.158,0.049,0.334,0.049,0.534v3.118h0.613V55.39c0-0.518-0.127-0.926-0.383-1.229
	C182.145,53.86,181.741,53.711,181.185,53.711"/>
<path fill="#E5E5E4" d="M188.568,54.257c-0.169-0.179-0.374-0.313-0.608-0.406c-0.238-0.094-0.501-0.141-0.792-0.141
	c-0.308,0-0.592,0.067-0.854,0.202c-0.26,0.138-0.465,0.328-0.61,0.574v-0.686h-0.605v6.804h0.616v-2.513h0.008
	c0.132,0.176,0.32,0.328,0.567,0.458c0.242,0.129,0.535,0.193,0.879,0.193c0.276,0,0.536-0.046,0.773-0.139
	c0.235-0.097,0.442-0.231,0.613-0.41c0.171-0.175,0.306-0.395,0.401-0.654c0.099-0.258,0.145-0.554,0.145-0.885v-0.859
	c0-0.331-0.046-0.627-0.139-0.886C188.867,54.652,188.736,54.435,188.568,54.257 M188.488,56.564c0,0.518-0.123,0.921-0.367,1.206
	c-0.243,0.287-0.572,0.43-0.989,0.43c-0.21,0-0.402-0.034-0.574-0.099c-0.172-0.067-0.322-0.155-0.448-0.261
	c-0.124-0.109-0.223-0.233-0.293-0.367c-0.068-0.136-0.103-0.275-0.103-0.419v-1.43c0-0.217,0.041-0.408,0.126-0.574
	c0.083-0.165,0.195-0.306,0.329-0.425c0.137-0.116,0.287-0.208,0.456-0.266c0.171-0.06,0.338-0.09,0.507-0.09
	c0.417,0,0.746,0.139,0.989,0.415c0.244,0.277,0.367,0.678,0.367,1.201V56.564z"/>
<path fill="#E5E5E4" d="M192.843,53.71c-0.375,0-0.701,0.057-0.98,0.171c-0.279,0.113-0.536,0.251-0.763,0.406l0.298,0.471
	c0.212-0.145,0.437-0.263,0.677-0.356c0.241-0.094,0.494-0.14,0.759-0.14c0.38,0,0.667,0.093,0.864,0.284
	c0.194,0.189,0.292,0.461,0.292,0.818v0.45h-1.371c-0.567,0-0.997,0.124-1.284,0.373c-0.29,0.245-0.435,0.568-0.435,0.965v0.198
	c0,0.436,0.145,0.774,0.435,1.022c0.287,0.246,0.665,0.37,1.129,0.37c0.38,0,0.708-0.069,0.985-0.21
	c0.128-0.064,0.236-0.139,0.329-0.219c0.094-0.083,0.166-0.16,0.212-0.241H194v0.598h0.596v-3.408c0-0.491-0.156-0.874-0.467-1.146
	C193.819,53.845,193.392,53.71,192.843,53.71 M193.989,57.152c0,0.186-0.044,0.342-0.13,0.466c-0.087,0.124-0.198,0.227-0.331,0.31
	c-0.145,0.092-0.295,0.161-0.45,0.21c-0.157,0.047-0.331,0.072-0.525,0.072c-0.127,0-0.25-0.018-0.375-0.051
	c-0.125-0.032-0.235-0.086-0.334-0.158c-0.098-0.073-0.179-0.163-0.24-0.275c-0.06-0.11-0.088-0.244-0.088-0.402V57.18
	c0-0.253,0.085-0.457,0.262-0.615c0.173-0.155,0.458-0.234,0.848-0.234h1.364V57.152z"/>
<path fill="#E5E5E4" d="M198.961,53.711c-0.191,0-0.368,0.02-0.522,0.066c-0.157,0.044-0.298,0.104-0.425,0.176
	c-0.127,0.073-0.235,0.155-0.325,0.248c-0.091,0.095-0.164,0.188-0.219,0.277v-0.678h-0.605v4.871h0.616v-3.163
	c0-0.146,0.033-0.289,0.104-0.435c0.07-0.145,0.163-0.276,0.284-0.397c0.12-0.12,0.267-0.219,0.438-0.293
	c0.173-0.075,0.359-0.114,0.565-0.114c0.241,0,0.441,0.033,0.601,0.1c0.158,0.065,0.285,0.158,0.379,0.275
	c0.093,0.119,0.159,0.253,0.193,0.406c0.036,0.155,0.055,0.317,0.055,0.494v3.127h0.616V55.39c0-0.512-0.153-0.918-0.456-1.225
	C199.954,53.862,199.523,53.711,198.961,53.711"/>
<polygon fill="#E5E5E4" points="204.6,57.983 203.091,53.801 202.457,53.801 204.284,58.751 203.66,60.496 204.183,60.685 
	206.714,53.801 206.082,53.801 "/>
</svg>
