<?xml version="1.0" encoding="utf-8"?>
<!-- Generator: Adobe Illustrator 16.0.0, SVG Export Plug-In . SVG Version: 6.00 Build 0)  -->
<!DOCTYPE svg PUBLIC "-//W3C//DTD SVG 1.1//EN" "http://www.w3.org/Graphics/SVG/1.1/DTD/svg11.dtd">
<svg version="1.1" id="Layer_1" xmlns="http://www.w3.org/2000/svg" xmlns:xlink="http://www.w3.org/1999/xlink" x="0px" y="0px"
	 width="138.783px" height="31.327px" viewBox="0 0 138.783 31.327" enable-background="new 0 0 138.783 31.327"
	 xml:space="preserve">
<path fill="#E4E4E3" d="M25.808,28.176c1.316-0.98,2.451-2.15,3.403-3.508c0.953-1.359,1.681-2.835,2.185-4.432h-6.3
	c-0.59,1.541-1.688,2.822-3.3,3.843c-1.609,1.022-3.366,1.532-5.271,1.532c-1.344,0-2.618-0.25-3.821-0.756
	c-1.205-0.504-2.255-1.203-3.152-2.1c-0.895-0.896-1.61-1.945-2.142-3.15c-0.531-1.203-0.797-2.506-0.797-3.905
	c0-1.316,0.244-2.568,0.734-3.76c0.49-1.189,1.183-2.232,2.08-3.129c0.866-0.925,1.91-1.652,3.129-2.184
	c1.217-0.533,2.54-0.799,3.969-0.799c0.979,0,1.926,0.154,2.836,0.463c0.909,0.308,1.744,0.699,2.498,1.176
	c0.758,0.504,1.414,1.079,1.975,1.721c0.561,0.645,0.995,1.318,1.303,2.017h6.259c-0.504-1.596-1.231-3.073-2.185-4.432
	c-0.952-1.357-2.087-2.526-3.403-3.507c-1.287-0.979-2.729-1.75-4.325-2.311c-1.597-0.559-3.263-0.839-5-0.839
	c-2.155,0-4.186,0.414-6.09,1.239c-1.903,0.825-3.569,1.94-4.999,3.34c-1.427,1.399-2.549,3.053-3.36,4.956
	c-0.812,1.904-1.217,3.921-1.217,6.049c0,2.155,0.405,4.187,1.217,6.09s1.934,3.558,3.36,4.957c1.43,1.429,3.096,2.548,4.999,3.36
	c1.904,0.812,3.935,1.219,6.09,1.219c1.737,0,3.403-0.273,5-0.819C23.078,29.96,24.521,29.182,25.808,28.176"/>
<polygon fill="#E4E4E3" points="104.635,30.569 104.635,0.872 96.778,0.872 89.385,22.799 81.949,0.872 74.137,0.872 74.137,25.884 
	70.074,25.884 70.074,30.569 74.137,30.569 78.202,30.569 80.146,30.569 80.146,11.877 86.488,30.569 92.283,30.569 98.626,11.499 
	98.626,30.569 "/>
<path fill="#E4E4E3" d="M137.566,9.651c-0.812-1.903-1.933-3.557-3.361-4.957c-1.43-1.428-3.09-2.547-4.998-3.359
	c-1.9-0.812-3.932-1.219-6.092-1.219c-1.736,0-3.404,0.273-4.998,0.819c-1.593,0.547-3.035,1.324-4.326,2.331
	c-1.313,0.981-2.448,2.15-3.398,3.507c-0.958,1.359-1.682,2.836-2.188,4.432h6.303c0.588-1.54,1.682-2.822,3.296-3.842
	c1.613-1.024,3.363-1.534,5.271-1.534c1.347,0,2.618,0.252,3.821,0.756c1.204,0.504,2.257,1.203,3.152,2.101
	c0.896,0.895,1.606,1.944,2.14,3.15c0.534,1.203,0.8,2.505,0.8,3.905c0,1.315-0.245,2.569-0.738,3.76
	c-0.485,1.19-1.183,2.233-2.078,3.13c-0.868,0.924-1.907,1.651-3.124,2.184c-1.225,0.533-2.544,0.799-3.973,0.799
	c-0.978,0-1.928-0.154-2.837-0.463c-0.909-0.307-1.743-0.699-2.495-1.176c-0.76-0.504-1.416-1.078-1.977-1.721
	c-0.56-0.645-0.991-1.318-1.306-2.018h-6.255c0.506,1.597,1.229,3.072,2.188,4.432c0.95,1.357,2.085,2.526,3.398,3.508
	c1.291,0.979,2.733,1.75,4.326,2.311c1.594,0.56,3.262,0.84,4.998,0.84c2.16,0,4.191-0.414,6.092-1.24
	c1.908-0.824,3.568-1.939,4.998-3.339c1.429-1.399,2.55-3.054,3.361-4.957s1.217-3.921,1.217-6.049
	C138.783,13.586,138.378,11.556,137.566,9.651"/>
<polygon fill="#E4E4E3" points="41.142,11.877 47.484,30.569 53.279,30.569 59.622,11.499 59.622,30.569 65.631,30.569 
	65.631,5.557 70.074,5.557 70.074,0.872 65.631,0.872 64.965,0.872 57.774,0.872 50.382,22.799 42.945,0.872 35.134,0.872 
	35.134,30.569 41.142,30.569 "/>
</svg>
