<?xml version="1.0" encoding="utf-8"?>
<!-- Generator: Adobe Illustrator 16.0.0, SVG Export Plug-In . SVG Version: 6.00 Build 0)  -->
<!DOCTYPE svg PUBLIC "-//W3C//DTD SVG 1.1//EN" "http://www.w3.org/Graphics/SVG/1.1/DTD/svg11.dtd">
<svg version="1.1" xmlns="http://www.w3.org/2000/svg" xmlns:xlink="http://www.w3.org/1999/xlink" x="0px" y="0px"
	 width="821.333px" height="286.667px" viewBox="0 0 821.333 286.667" enable-background="new 0 0 821.333 286.667"
	 xml:space="preserve">
<g id="Layer_3" display="none">
	<rect display="inline" fill="#AF4F4F" width="821.333" height="286.667"/>
</g>
<g id="Layer_1">
	<path fill="#262523" d="M410.667,143.333"/>
	<path fill="none" d="M410.667,143.333"/>
	<path fill="none" d="M410.667,143.333"/>
	<g>
		<path fill="none" stroke="#E5E5E4" stroke-miterlimit="10" d="M82.455,68.506c-4.069-2.498-8.36-3.868-12.871-4.109v-1.209
			c4.188-0.967,7.916-2.588,11.179-4.864c3.262-2.276,5.811-5.206,7.645-8.792c1.832-3.585,2.749-7.795,2.749-12.63
			c0-6.284-1.502-11.854-4.503-16.708c-3.001-4.855-7.492-8.642-13.475-11.361c-5.983-2.719-13.324-4.079-22.026-4.079H3.838
			v123.757h49.974c9.186,0,16.95-1.439,23.295-4.32c6.346-2.88,11.078-6.86,14.201-11.935c3.121-5.076,4.683-10.897,4.683-17.464
			c0-5.962-1.238-11.21-3.716-15.742C89.797,74.519,86.523,71.004,82.455,68.506z M26.015,23.185h22.842
			c4.311,0,7.977,0.705,10.998,2.115s5.296,3.354,6.828,5.831c1.531,2.478,2.297,5.328,2.297,8.551c0,3.586-0.897,6.707-2.689,9.366
			c-1.793,2.658-4.251,4.724-7.372,6.194c-3.122,1.471-6.639,2.206-10.545,2.206H26.015V23.185z M71.004,101.893
			c-1.632,2.478-4.17,4.432-7.614,5.861c-3.445,1.431-7.806,2.145-13.083,2.145H26.015V73.522h24.957
			c4.471,0,8.419,0.856,11.844,2.567c3.424,1.713,6.053,4.049,7.886,7.01c1.833,2.961,2.75,6.295,2.75,10.001
			C73.451,96.484,72.635,99.415,71.004,101.893z"/>
		<path fill="none" stroke="#E5E5E4" stroke-miterlimit="10" d="M208.236,108.932c4.169-6.768,6.254-14.542,6.254-23.325V4.754
			h-22.298v79.04c0,5.158-1.129,9.75-3.384,13.778c-2.258,4.029-5.499,7.191-9.729,9.487c-4.229,2.297-9.146,3.444-14.744,3.444
			c-5.6,0-10.515-1.147-14.745-3.444c-4.229-2.296-7.493-5.458-9.79-9.487c-2.295-4.028-3.443-8.62-3.443-13.778V4.754h-22.178
			v80.853c0,8.783,2.075,16.557,6.225,23.325c4.148,6.769,10.011,12.036,17.585,15.803c7.573,3.766,16.354,5.649,26.347,5.649
			c9.91,0,18.662-1.883,26.255-5.649C198.185,120.968,204.066,115.701,208.236,108.932z"/>
		<path fill="none" stroke="#E5E5E4" stroke-miterlimit="10" d="M322.323,112.92c3.727-5.519,5.59-11.904,5.59-19.155
			c0-6.849-1.642-12.669-4.925-17.464c-3.284-4.794-7.594-8.59-12.933-11.391c-5.338-2.8-11.491-5.046-18.461-6.738l-11.602-2.9
			c-6.324-1.531-11.441-3.595-15.349-6.194c-3.907-2.598-5.821-6.233-5.74-10.907c0-3.102,0.906-5.892,2.719-8.369
			c1.813-2.478,4.412-4.402,7.796-5.772c3.383-1.369,7.372-2.054,11.965-2.054c4.472,0,8.399,0.655,11.783,1.964
			c3.384,1.309,6.073,3.223,8.067,5.741c1.994,2.517,3.172,5.55,3.535,9.093h21.45c-0.12-6.927-2.053-13.101-5.8-18.52
			c-3.746-5.418-8.974-9.639-15.681-12.66c-6.708-3.022-14.394-4.532-23.054-4.532c-8.621,0-16.366,1.532-23.234,4.592
			c-6.869,3.063-12.277,7.353-16.227,12.871c-3.947,5.52-5.9,11.844-5.86,18.975c-0.04,8.621,2.78,15.631,8.46,21.029
			c5.681,5.399,13.838,9.467,24.474,12.206l14.08,3.626c4.914,1.29,8.963,2.639,12.146,4.049s5.659,3.194,7.433,5.348
			c1.772,2.155,2.679,4.765,2.72,7.825c-0.041,3.505-1.088,6.598-3.143,9.276c-2.055,2.68-4.977,4.764-8.762,6.254
			c-3.787,1.492-8.098,2.237-12.932,2.237c-4.754,0-9.024-0.726-12.811-2.176c-3.788-1.45-6.839-3.615-9.155-6.496
			c-2.318-2.88-3.636-6.415-3.958-10.606h-21.875c0.322,8.098,2.477,15.017,6.466,20.758c3.988,5.74,9.506,10.102,16.558,13.082
			c7.049,2.982,15.367,4.472,24.956,4.472c9.749,0,18.139-1.531,25.169-4.593C313.219,122.731,318.596,118.441,322.323,112.92z"/>
		<rect x="346.523" y="4.754" fill="none" stroke="#E5E5E4" stroke-miterlimit="10" width="22.178" height="123.757"/>
		<polygon fill="none" stroke="#E5E5E4" stroke-miterlimit="10" points="493.361,128.511 493.361,4.754 471.245,4.754 
			471.245,89.354 470.157,89.354 411.784,4.754 391.782,4.754 391.782,128.511 413.959,128.511 413.959,43.972 414.986,43.972 
			473.601,128.511 		"/>
		<polygon fill="none" stroke="#E5E5E4" stroke-miterlimit="10" points="597.176,109.778 538.561,109.778 538.561,75.878 
			592.523,75.878 592.523,57.206 538.561,57.206 538.561,23.486 596.752,23.486 596.752,4.754 516.383,4.754 516.383,128.511 
			597.176,128.511 		"/>
		<path fill="none" stroke="#E5E5E4" stroke-miterlimit="10" d="M690.688,64.91c-5.34-2.8-11.492-5.046-18.461-6.738l-11.603-2.901
			c-6.325-1.53-11.442-3.594-15.349-6.193c-3.907-2.599-5.821-6.233-5.74-10.907c0-3.102,0.906-5.892,2.718-8.369
			c1.814-2.478,4.413-4.402,7.796-5.772c3.385-1.369,7.372-2.055,11.965-2.055c4.473,0,8.4,0.656,11.783,1.964
			c3.384,1.31,6.074,3.224,8.068,5.742c1.994,2.517,3.172,5.549,3.535,9.093h21.451c-0.12-6.927-2.055-13.101-5.802-18.52
			c-3.746-5.418-8.973-9.639-15.68-12.66c-6.708-3.022-14.394-4.533-23.054-4.533c-8.621,0-16.366,1.533-23.234,4.593
			c-6.87,3.063-12.278,7.353-16.226,12.871c-3.948,5.52-5.901,11.844-5.861,18.975c-0.04,8.621,2.78,15.631,8.46,21.029
			c5.68,5.399,13.837,9.467,24.473,12.206l14.08,3.626c4.914,1.29,8.963,2.639,12.146,4.049c3.182,1.41,5.66,3.193,7.432,5.348
			c1.773,2.155,2.679,4.764,2.72,7.825c-0.041,3.505-1.088,6.598-3.142,9.276c-2.055,2.68-4.976,4.764-8.762,6.254
			c-3.787,1.491-8.099,2.236-12.933,2.236c-4.754,0-9.023-0.725-12.81-2.175c-3.788-1.451-6.839-3.616-9.156-6.496
			c-2.316-2.88-3.635-6.415-3.958-10.606h-21.875c0.323,8.098,2.479,15.017,6.466,20.758c3.988,5.74,9.508,10.101,16.559,13.082
			c7.049,2.981,15.368,4.472,24.956,4.472c9.749,0,18.139-1.532,25.169-4.593c7.029-3.061,12.406-7.351,16.134-12.871
			c3.726-5.519,5.589-11.905,5.589-19.156c0-6.848-1.641-12.668-4.924-17.463C700.334,71.507,696.025,67.711,690.688,64.91z"/>
		<path fill="none" stroke="#E5E5E4" stroke-miterlimit="10" d="M812.57,76.301c-3.284-4.794-7.595-8.59-12.933-11.391
			c-5.339-2.799-11.492-5.046-18.461-6.738l-11.602-2.9c-6.324-1.531-11.442-3.595-15.35-6.194
			c-3.907-2.598-5.82-6.233-5.739-10.907c0-3.101,0.905-5.891,2.719-8.369c1.813-2.478,4.412-4.401,7.796-5.772
			c3.383-1.369,7.372-2.054,11.965-2.054c4.471,0,8.399,0.655,11.783,1.964s6.073,3.223,8.067,5.741
			c1.993,2.517,3.172,5.55,3.534,9.094h21.451c-0.12-6.928-2.053-13.102-5.8-18.521c-3.746-5.418-8.975-9.639-15.681-12.66
			c-6.708-3.022-14.394-4.532-23.055-4.532c-8.621,0-16.366,1.532-23.233,4.593c-6.869,3.062-12.277,7.352-16.227,12.871
			c-3.947,5.519-5.9,11.843-5.86,18.974c-0.04,8.621,2.779,15.631,8.46,21.03c5.681,5.398,13.838,9.466,24.474,12.206l14.08,3.626
			c4.914,1.29,8.963,2.638,12.145,4.048c3.184,1.411,5.66,3.194,7.434,5.348c1.771,2.155,2.678,4.765,2.72,7.825
			c-0.042,3.505-1.088,6.598-3.143,9.277c-2.056,2.679-4.977,4.763-8.763,6.254c-3.786,1.491-8.097,2.236-12.931,2.236
			c-4.754,0-9.025-0.726-12.811-2.176c-3.788-1.45-6.84-3.615-9.155-6.496c-2.318-2.88-3.636-6.415-3.958-10.606h-21.875
			c0.322,8.098,2.477,15.017,6.466,20.758c3.988,5.741,9.506,10.102,16.557,13.082c7.05,2.982,15.368,4.472,24.956,4.472
			c9.749,0,18.14-1.531,25.169-4.593c7.029-3.06,12.407-7.35,16.135-12.871c3.727-5.518,5.59-11.904,5.59-19.155
			C817.495,86.916,815.853,81.096,812.57,76.301z"/>
		<path fill="none" stroke="#E5E5E4" stroke-miterlimit="10" d="M228.537,159.848l-43.63,123.757h23.81l10.28-30.637h46.556
			l10.3,30.637h23.749l-43.63-123.757H228.537z M225.001,235.082l16.771-49.975h0.967l16.802,49.975H225.001z"/>
		<path fill="none" stroke="#E5E5E4" stroke-miterlimit="10" d="M384.471,233.51c6.587-3.144,11.551-7.624,14.896-13.446
			c3.344-5.82,5.016-12.699,5.016-20.636c0-7.978-1.672-14.935-5.016-20.878c-3.345-5.942-8.289-10.544-14.835-13.808
			c-6.547-3.262-14.473-4.894-23.778-4.894h-46.288v123.757h22.177v-45.382h23.071l24.305,45.382h24.896l-26.806-49.066
			C382.912,234.215,383.703,233.876,384.471,233.51z M336.642,178.458h20.727c5.52,0,10.092,0.816,13.718,2.449
			c3.626,1.631,6.294,4.008,8.007,7.129c1.712,3.123,2.568,6.92,2.568,11.392c0,4.433-0.856,8.147-2.568,11.149
			c-1.713,3.002-4.361,5.277-7.946,6.828c-3.586,1.551-8.139,2.326-13.657,2.326h-20.848V178.458z"/>
		<polygon fill="none" stroke="#E5E5E4" stroke-miterlimit="10" points="445.835,230.972 499.798,230.972 499.798,212.298 
			445.835,212.298 445.835,178.58 504.026,178.58 504.026,159.848 423.658,159.848 423.658,283.605 504.449,283.605 
			504.449,264.873 445.835,264.873 		"/>
		<path fill="none" stroke="#E5E5E4" stroke-miterlimit="10" d="M560.89,159.848l-43.63,123.757h23.809l10.281-30.637h46.555
			l10.301,30.637h23.749l-43.63-123.757H560.89z M557.353,235.082l16.771-49.975h0.967l16.801,49.975H557.353z"/>
	</g>
	<path fill="none" d="M410.667,143.333"/>
	<path fill="none" d="M410.667,143.333"/>
	<path fill="none" d="M410.667,143.333"/>
	<path fill="none" d="M410.667,143.333"/>
	<path fill="none" d="M410.667,143.333"/>
	<path fill="none" d="M410.667,143.333"/>
	<path fill="none" d="M410.667,143.333"/>
	<path fill="none" d="M410.667,143.333"/>
</g>
<g id="Layer_2" display="none">
	<g display="inline">
		<path fill="#E5E5E4" d="M82.455,68.505c-4.069-2.498-8.36-3.868-12.871-4.109v-1.209c4.188-0.967,7.916-2.588,11.179-4.864
			c3.262-2.276,5.811-5.206,7.645-8.792c1.832-3.585,2.749-7.795,2.749-12.63c0-6.284-1.502-11.854-4.503-16.708
			c-3.001-4.855-7.492-8.642-13.475-11.361c-5.983-2.719-13.324-4.08-22.026-4.08H3.838V128.51h49.974
			c9.186,0,16.95-1.439,23.295-4.32c6.346-2.879,11.078-6.859,14.201-11.935c3.121-5.076,4.683-10.897,4.683-17.464
			c0-5.962-1.238-11.21-3.716-15.742C89.797,74.519,86.523,71.002,82.455,68.505z M26.015,23.184h22.842
			c4.311,0,7.977,0.705,10.998,2.115s5.296,3.354,6.828,5.831c1.531,2.478,2.297,5.328,2.297,8.551c0,3.586-0.897,6.708-2.689,9.366
			c-1.793,2.658-4.251,4.724-7.372,6.194c-3.122,1.471-6.639,2.206-10.545,2.206H26.015V23.184z M71.004,101.892
			c-1.632,2.478-4.17,4.433-7.614,5.861c-3.445,1.432-7.806,2.146-13.083,2.146H26.015V73.521h24.957
			c4.471,0,8.419,0.856,11.844,2.567c3.424,1.713,6.053,4.049,7.886,7.01c1.833,2.961,2.75,6.295,2.75,10.001
			C73.451,96.482,72.635,99.415,71.004,101.892z"/>
		<path fill="#E5E5E4" d="M208.236,108.931c4.169-6.768,6.254-14.542,6.254-23.325V4.752h-22.298v79.041
			c0,5.157-1.129,9.75-3.384,13.777c-2.258,4.029-5.499,7.191-9.729,9.488c-4.229,2.296-9.146,3.443-14.744,3.443
			c-5.6,0-10.515-1.147-14.745-3.443c-4.229-2.297-7.493-5.458-9.79-9.488c-2.295-4.027-3.443-8.62-3.443-13.777V4.752h-22.178
			v80.854c0,8.783,2.075,16.557,6.225,23.325c4.148,6.77,10.011,12.036,17.585,15.803c7.573,3.766,16.354,5.649,26.347,5.649
			c9.91,0,18.662-1.883,26.255-5.649C198.185,120.967,204.066,115.7,208.236,108.931z"/>
		<path fill="#E5E5E4" d="M322.323,112.919c3.727-5.519,5.59-11.904,5.59-19.155c0-6.85-1.642-12.669-4.925-17.464
			c-3.284-4.794-7.594-8.59-12.933-11.391c-5.338-2.8-11.491-5.046-18.461-6.738l-11.602-2.9
			c-6.324-1.531-11.441-3.595-15.349-6.194c-3.907-2.598-5.821-6.233-5.74-10.907c0-3.102,0.906-5.892,2.719-8.369
			c1.813-2.479,4.412-4.402,7.796-5.772c3.383-1.369,7.372-2.055,11.965-2.055c4.472,0,8.399,0.655,11.783,1.964
			c3.384,1.309,6.073,3.223,8.067,5.741s3.172,5.55,3.535,9.093h21.45c-0.12-6.927-2.053-13.101-5.8-18.52
			c-3.746-5.418-8.974-9.639-15.681-12.66c-6.708-3.022-14.394-4.533-23.054-4.533c-8.621,0-16.366,1.533-23.234,4.593
			c-6.869,3.063-12.277,7.353-16.227,12.871c-3.947,5.52-5.9,11.844-5.86,18.975c-0.04,8.621,2.78,15.631,8.46,21.029
			c5.681,5.399,13.838,9.467,24.474,12.206l14.08,3.626c4.914,1.29,8.963,2.639,12.146,4.049s5.659,3.194,7.433,5.349
			c1.772,2.154,2.679,4.764,2.72,7.824c-0.041,3.505-1.088,6.598-3.143,9.276c-2.055,2.68-4.977,4.764-8.762,6.254
			c-3.787,1.492-8.098,2.237-12.932,2.237c-4.754,0-9.024-0.726-12.811-2.175c-3.788-1.451-6.839-3.615-9.155-6.496
			c-2.318-2.88-3.636-6.416-3.958-10.606h-21.875c0.322,8.098,2.477,15.017,6.466,20.758c3.988,5.741,9.506,10.102,16.558,13.082
			c7.049,2.982,15.367,4.472,24.956,4.472c9.749,0,18.139-1.531,25.169-4.593C313.219,122.73,318.596,118.44,322.323,112.919z"/>
		<rect x="346.523" y="4.752" fill="#E5E5E4" width="22.178" height="123.758"/>
		<polygon fill="#E5E5E4" points="493.361,128.51 493.361,4.752 471.245,4.752 471.245,89.353 470.157,89.353 411.784,4.752 
			391.782,4.752 391.782,128.51 413.959,128.51 413.959,43.971 414.986,43.971 473.601,128.51 		"/>
		<polygon fill="#E5E5E4" points="597.176,109.778 538.561,109.778 538.561,75.877 592.523,75.877 592.523,57.205 538.561,57.205 
			538.561,23.486 596.752,23.486 596.752,4.753 516.383,4.753 516.383,128.51 597.176,128.51 		"/>
		<path fill="#E5E5E4" d="M690.688,64.909c-5.34-2.8-11.492-5.046-18.461-6.738l-11.603-2.901
			c-6.325-1.53-11.442-3.594-15.349-6.193c-3.907-2.599-5.821-6.233-5.74-10.907c0-3.102,0.906-5.892,2.718-8.369
			c1.814-2.479,4.413-4.402,7.796-5.772c3.385-1.369,7.372-2.055,11.965-2.055c4.473,0,8.4,0.656,11.783,1.964
			c3.384,1.311,6.074,3.224,8.068,5.742c1.994,2.517,3.172,5.549,3.535,9.093h21.451c-0.12-6.927-2.055-13.101-5.802-18.52
			c-3.746-5.418-8.973-9.639-15.68-12.66c-6.708-3.022-14.394-4.533-23.054-4.533c-8.621,0-16.366,1.533-23.234,4.593
			c-6.87,3.063-12.278,7.353-16.226,12.871c-3.948,5.52-5.901,11.844-5.861,18.975c-0.04,8.621,2.78,15.631,8.46,21.029
			c5.68,5.399,13.837,9.467,24.473,12.206l14.08,3.626c4.914,1.29,8.963,2.639,12.146,4.049c3.182,1.41,5.66,3.193,7.432,5.349
			c1.773,2.155,2.679,4.764,2.72,7.825c-0.041,3.505-1.088,6.598-3.142,9.276c-2.055,2.68-4.976,4.765-8.762,6.254
			c-3.787,1.491-8.099,2.236-12.933,2.236c-4.754,0-9.023-0.725-12.81-2.175c-3.788-1.451-6.839-3.616-9.156-6.496
			c-2.316-2.88-3.635-6.416-3.958-10.606h-21.875c0.323,8.098,2.479,15.017,6.466,20.758c3.988,5.74,9.508,10.101,16.559,13.082
			c7.049,2.981,15.368,4.472,24.956,4.472c9.749,0,18.139-1.532,25.169-4.593c7.029-3.061,12.406-7.351,16.134-12.871
			c3.726-5.519,5.589-11.905,5.589-19.156c0-6.848-1.641-12.668-4.924-17.463C700.334,71.506,696.025,67.71,690.688,64.909z"/>
		<path fill="#E5E5E4" d="M812.57,76.3c-3.284-4.794-7.595-8.59-12.933-11.391c-5.339-2.799-11.492-5.046-18.461-6.738l-11.602-2.9
			c-6.324-1.531-11.442-3.595-15.35-6.194c-3.907-2.598-5.82-6.233-5.739-10.908c0-3.101,0.905-5.891,2.719-8.368
			c1.813-2.479,4.412-4.402,7.796-5.773c3.383-1.368,7.372-2.054,11.965-2.054c4.471,0,8.399,0.655,11.783,1.964
			c3.384,1.309,6.073,3.223,8.067,5.741c1.993,2.518,3.172,5.55,3.534,9.093h21.451c-0.12-6.927-2.053-13.102-5.8-18.521
			c-3.746-5.417-8.975-9.638-15.681-12.659c-6.708-3.022-14.394-4.533-23.055-4.533c-8.621,0-16.366,1.533-23.233,4.593
			c-6.869,3.062-12.277,7.352-16.227,12.871c-3.947,5.52-5.9,11.844-5.86,18.975c-0.04,8.621,2.779,15.631,8.46,21.03
			c5.681,5.398,13.838,9.466,24.474,12.206l14.08,3.626c4.914,1.29,8.963,2.638,12.145,4.048c3.184,1.411,5.66,3.194,7.434,5.348
			c1.771,2.155,2.678,4.765,2.72,7.825c-0.042,3.504-1.088,6.598-3.143,9.277c-2.056,2.68-4.977,4.764-8.763,6.255
			c-3.786,1.49-8.097,2.235-12.931,2.235c-4.754,0-9.025-0.726-12.811-2.176c-3.788-1.45-6.84-3.614-9.155-6.495
			c-2.318-2.881-3.636-6.416-3.958-10.606h-21.875c0.322,8.098,2.477,15.017,6.466,20.758c3.988,5.741,9.506,10.102,16.557,13.082
			c7.05,2.982,15.368,4.472,24.956,4.472c9.749,0,18.14-1.531,25.169-4.593c7.029-3.06,12.407-7.35,16.135-12.871
			c3.727-5.519,5.59-11.904,5.59-19.155C817.495,86.915,815.853,81.095,812.57,76.3z"/>
		<path fill="#E5E5E4" d="M228.537,159.847l-43.63,123.757h23.81l10.28-30.637h46.556l10.3,30.637h23.749l-43.63-123.757H228.537z
			 M225.001,235.081l16.771-49.975h0.967l16.802,49.975H225.001z"/>
		<path fill="#E5E5E4" d="M384.471,233.51c6.587-3.145,11.551-7.625,14.896-13.447c3.344-5.82,5.016-12.699,5.016-20.635
			c0-7.979-1.672-14.936-5.016-20.879c-3.345-5.942-8.289-10.544-14.835-13.808c-6.547-3.262-14.473-4.894-23.778-4.894h-46.288
			v123.759h22.177v-45.383h23.071l24.305,45.383h24.896l-26.806-49.066C382.912,234.215,383.703,233.875,384.471,233.51z
			 M336.642,178.458h20.727c5.52,0,10.092,0.816,13.718,2.449c3.626,1.631,6.294,4.008,8.007,7.129
			c1.712,3.123,2.568,6.92,2.568,11.393c0,4.432-0.856,8.146-2.568,11.148c-1.713,3.002-4.361,5.277-7.946,6.828
			c-3.586,1.551-8.139,2.326-13.657,2.326h-20.848V178.458z"/>
		<polygon fill="#E5E5E4" points="445.835,230.971 499.798,230.971 499.798,212.297 445.835,212.297 445.835,178.579 
			504.026,178.579 504.026,159.847 423.658,159.847 423.658,283.604 504.449,283.604 504.449,264.872 445.835,264.872 		"/>
		<path fill="#E5E5E4" d="M560.89,159.847l-43.63,123.757h23.809l10.281-30.637h46.555l10.301,30.637h23.749l-43.63-123.757H560.89z
			 M557.353,235.081l16.771-49.975h0.967l16.801,49.975H557.353z"/>
	</g>
</g>
</svg>
