<?xml version="1.0" encoding="utf-8"?>
<!-- Generator: Adobe Illustrator 16.0.0, SVG Export Plug-In . SVG Version: 6.00 Build 0)  -->
<!DOCTYPE svg PUBLIC "-//W3C//DTD SVG 1.1//EN" "http://www.w3.org/Graphics/SVG/1.1/DTD/svg11.dtd">
<svg version="1.1" id="Layer_1" xmlns="http://www.w3.org/2000/svg" xmlns:xlink="http://www.w3.org/1999/xlink" x="0px" y="0px"
	 width="265.796px" height="77.394px" viewBox="0 0 265.796 77.394" enable-background="new 0 0 265.796 77.394"
	 xml:space="preserve">
<path fill="#262523" d="M0,73.973V20.631C0,8.23,7.911,0,19.669,0c11.759,0,19.669,8.23,19.669,20.631v53.342
	c0,1.39-0.748,2.138-2.138,2.138H25.762c-1.39,0-2.138-0.748-2.138-2.138V54.518h-7.91v19.455c0,1.39-0.748,2.138-2.138,2.138H2.138
	C0.748,76.11,0,75.362,0,73.973 M23.624,40.087V19.348c0-2.885-1.497-4.596-3.955-4.596s-3.955,1.711-3.955,4.596v20.739H23.624z"/>
<path fill="#262523" d="M47.886,70.231V7.161c0-4.168,2.245-6.413,6.414-6.413h12.827c11.866,0,19.776,8.231,19.776,20.631v34.636
	c0,12.399-7.91,20.631-19.776,20.631H54.3C50.131,76.646,47.886,74.4,47.886,70.231 M66.059,62.214c3.527,0,5.024-1.711,5.024-5.666
	V20.845c0-3.955-1.497-5.665-5.024-5.665h-2.458v47.034H66.059z"/>
<path fill="#262523" d="M105.178,73.973v-52.06c0-12.4,7.911-20.631,19.776-20.631h9.621c1.39,0,2.138,0.748,2.138,2.138v10.155
	c0,1.391-0.748,2.139-2.138,2.139h-7.483c-3.848,0-6.093,2.459-6.093,6.733v8.767h11.545c1.391,0,2.138,0.749,2.138,2.138v10.155
	c0,1.39-0.747,2.138-2.138,2.138h-11.545v28.328c0,1.39-0.748,2.138-2.138,2.138h-11.545
	C105.926,76.11,105.178,75.362,105.178,73.973"/>
<path fill="#262523" d="M139.384,59.114c0-9.728,7.269-16.463,17.852-16.463h3.635V38.91c0-2.245-1.069-3.635-3.101-3.635
	c-2.352,0-2.993,1.39-3.1,2.993c-0.107,1.283-0.748,1.497-2.139,1.497h-10.368c-1.39,0-2.139-0.748-2.031-2.138
	c0.854-9.836,7.803-16.248,17.853-16.248c10.582,0,17.638,7.375,17.638,18.492v19.99c0,10.583-6.308,17.531-17.425,17.531
	C146.866,77.394,139.384,70.018,139.384,59.114 M160.87,59.97v-4.598h-2.673c-2.565,0-3.955,1.391-3.955,3.742
	c0,2.672,1.39,4.275,3.742,4.275C159.907,63.39,160.87,62.107,160.87,59.97"/>
<path fill="#262523" d="M182.247,73.973V45.432c0-14.538,7.91-22.769,20.845-22.769h2.565c1.39,0,2.138,0.748,2.138,2.138v9.62
	c0,1.39-0.748,2.138-2.138,2.138h-2.03c-4.17,0-6.628,2.565-6.628,6.841v30.573c0,1.39-0.749,2.138-2.139,2.138h-10.477
	C182.995,76.11,182.247,75.362,182.247,73.973"/>
<path fill="#262523" d="M266.269,39.872v34.1c0,1.391-0.748,2.14-2.139,2.14h-10.263c-1.389,0-2.137-0.749-2.137-2.14V38.91
	c0-2.245-1.07-3.635-2.993-3.635c-1.925,0-2.993,1.39-2.993,3.635v35.062c0,1.391-0.749,2.14-2.139,2.14h-10.262
	c-1.39,0-2.138-0.749-2.138-2.14V38.91c0-2.245-1.069-3.635-2.994-3.635c-1.924,0-2.992,1.39-2.992,3.635v35.062
	c0,1.391-0.748,2.14-2.139,2.14h-10.263c-1.389,0-2.137-0.749-2.137-2.14v-34.1c0-11.117,7.055-18.493,17.53-18.493
	c3.955,0,7.483,1.283,10.263,3.528c2.78-2.245,6.307-3.528,10.263-3.528C259.212,21.379,266.269,28.755,266.269,39.872"/>
</svg>
