<?xml version="1.0" encoding="utf-8"?>
<!-- Generator: Adobe Illustrator 16.0.0, SVG Export Plug-In . SVG Version: 6.00 Build 0)  -->
<!DOCTYPE svg PUBLIC "-//W3C//DTD SVG 1.1//EN" "http://www.w3.org/Graphics/SVG/1.1/DTD/svg11.dtd">
<svg version="1.1" id="Layer_1" xmlns="http://www.w3.org/2000/svg" xmlns:xlink="http://www.w3.org/1999/xlink" x="0px" y="0px"
	 width="528.924px" height="65.134px" viewBox="0 0 528.924 65.134" enable-background="new 0 0 528.924 65.134"
	 xml:space="preserve">
<path fill="#262523" d="M132.396,41.094v8.759h20.676c0.693,0,1.223,0.247,1.591,0.742c0.32,0.43,0.48,1.026,0.48,1.791
	c0,1.473-0.251,2.601-0.753,3.384c-0.567,0.883-1.405,1.323-2.517,1.323h-50.586h-0.681v-0.671v-5.897v-0.672h0.681h22.065v-8.759
	v-0.672h0.684h7.678h0.682V41.094z"/>
<path fill="#262523" d="M127.91,8.61c1.629,0,3.187,0.094,4.676,0.284c1.49,0.19,2.893,0.476,4.202,0.853
	c1.321,0.379,2.543,0.826,3.667,1.339c1.132,0.518,2.17,1.104,3.115,1.759l0.005,0.005c0.926,0.658,1.746,1.379,2.462,2.16
	c0.72,0.787,1.33,1.632,1.83,2.531c0.502,0.905,0.88,1.847,1.134,2.823c0.254,0.976,0.381,1.978,0.381,3.007
	c0,1.023-0.124,2.03-0.372,3.012c-0.245,0.973-0.614,1.92-1.106,2.838c-0.493,0.92-1.093,1.779-1.799,2.575
	c-0.708,0.797-1.524,1.535-2.45,2.217c-0.924,0.681-1.951,1.289-3.081,1.824c-1.121,0.53-2.348,0.993-3.678,1.383
	c-1.33,0.391-2.747,0.684-4.248,0.878c-1.504,0.196-3.083,0.293-4.738,0.293c-1.586,0-3.114-0.094-4.584-0.285
	c-1.471-0.188-2.868-0.473-4.191-0.851c-1.321-0.377-2.546-0.824-3.677-1.343c-1.129-0.518-2.154-1.104-3.071-1.755
	c-1.897-1.317-3.382-2.854-4.453-4.608c-0.538-0.882-0.945-1.804-1.22-2.764c-0.273-0.963-0.41-1.949-0.41-2.959
	c0-1.071,0.122-2.109,0.368-3.112c0.246-1.003,0.615-1.969,1.106-2.897c0.491-0.931,1.099-1.8,1.822-2.606
	c0.717-0.799,1.55-1.539,2.499-2.22l-0.002-0.002c0.924-0.681,1.954-1.289,3.09-1.822c1.126-0.531,2.36-0.993,3.707-1.385
	c1.342-0.391,2.766-0.684,4.271-0.878C124.675,8.708,126.257,8.61,127.91,8.61 M127.842,31.126c1.698,0,3.306-0.218,4.822-0.652
	c0.768-0.221,1.484-0.477,2.149-0.77c0.662-0.291,1.287-0.625,1.871-0.997l0.003-0.003c0.553-0.347,1.043-0.719,1.471-1.12
	c0.426-0.396,0.794-0.823,1.104-1.277c0.303-0.445,0.529-0.9,0.679-1.367c0.146-0.458,0.22-0.938,0.22-1.44
	c0-0.52-0.074-1.016-0.224-1.491c-0.149-0.478-0.375-0.938-0.675-1.38c-0.309-0.452-0.68-0.885-1.112-1.3
	c-0.435-0.416-0.923-0.805-1.463-1.163c-0.556-0.348-1.161-0.66-1.816-0.938c-0.659-0.279-1.369-0.523-2.131-0.731
	c-0.768-0.21-1.553-0.366-2.358-0.469c-0.806-0.103-1.653-0.154-2.54-0.154c-1.837,0-3.514,0.208-5.034,0.623
	c-0.761,0.208-1.464,0.452-2.11,0.729c-0.644,0.277-1.229,0.589-1.753,0.929v0.001c-1.092,0.722-1.93,1.543-2.511,2.457
	c-0.281,0.441-0.493,0.903-0.632,1.386c-0.14,0.478-0.21,0.978-0.21,1.501c0,0.5,0.07,0.985,0.21,1.452
	c0.139,0.472,0.351,0.93,0.632,1.373c0.576,0.905,1.409,1.7,2.496,2.38l0.026,0.019c0.527,0.363,1.113,0.692,1.756,0.983
	c0.644,0.295,1.347,0.55,2.105,0.768c0.763,0.219,1.558,0.383,2.386,0.49C126.033,31.074,126.913,31.126,127.842,31.126"/>
<path fill="#262523" d="M183.258,16.75c0,2.298-0.1,5.283-0.572,7.547h5.078V8.927V8.256h0.682h7.007h0.682v0.671v46.371
	c0,2.909-0.337,5.075-1.013,6.492c-0.375,0.785-0.901,1.379-1.574,1.778c-0.666,0.396-1.463,0.595-2.387,0.595h-0.758
	c-0.828,0-1.472-0.211-1.931-0.633c-0.472-0.435-0.708-1.049-0.708-1.84V31.266h-6.951c-0.709,1.673-2.296,4.886-3.394,6.415
	c-0.589,0.821-1.215,1.614-1.877,2.378c-0.661,0.76-1.357,1.489-2.087,2.186c-0.745,0.713-1.52,1.396-2.324,2.047
	c-0.808,0.657-1.629,1.271-2.465,1.843c-0.839,0.575-1.693,1.114-2.558,1.618c-0.857,0.496-1.718,0.953-2.58,1.367
	c-0.223,0.142-0.451,0.251-0.684,0.325c-0.263,0.088-0.525,0.131-0.784,0.131c-0.378,0-0.812-0.146-1.302-0.441
	c-0.219-0.132-0.432-0.284-0.639-0.458c-0.197-0.165-0.386-0.347-0.564-0.542c-0.186-0.184-0.361-0.386-0.524-0.609
	c-0.156-0.213-0.296-0.44-0.42-0.681c-0.258-0.511-0.389-1.025-0.389-1.54c0-0.891,0.391-1.61,1.172-2.16l0.039-0.027l0.044-0.021
	c0.636-0.323,1.272-0.681,1.905-1.073c0.639-0.396,1.277-0.825,1.914-1.291c0.635-0.462,1.265-0.956,1.891-1.479
	c0.623-0.521,1.233-1.065,1.83-1.631c0.579-0.548,1.126-1.111,1.641-1.689c0.515-0.577,1.006-1.174,1.47-1.794
	c0.455-0.607,0.857-1.222,1.207-1.843c0.18-0.324,0.346-0.646,0.5-0.97h-11.226h-0.683v-0.673v-5.71v-0.67h0.683h13.587
	c0.074-0.375,0.139-0.76,0.194-1.156c0.081-0.582,0.141-1.187,0.184-1.816c0.042-0.656,0.074-1.294,0.094-1.918
	c0.013-0.401,0.021-0.828,0.026-1.28h-14.4h-0.684v-0.671V11.72v-0.67h0.684h19.252c2.474,0,3.712,1.176,3.712,3.527V16.75z
	 M207.813,57.285c0,2.459-0.379,4.326-1.136,5.6c-0.826,1.391-2.064,2.086-3.712,2.086h-0.949c-0.797,0-1.417-0.215-1.854-0.646
	c-0.438-0.431-0.658-1.039-0.658-1.825V8.927V8.256h0.682h6.943h0.684v0.671V57.285z"/>
<path fill="#262523" d="M261.054,57.285c0,2.459-0.379,4.326-1.135,5.6c-0.827,1.391-2.065,2.086-3.715,2.086h-1.135
	c-0.814,0-1.445-0.213-1.892-0.638c-0.456-0.435-0.685-1.044-0.685-1.834V8.927V8.256h0.683h7.196h0.683v0.671V57.285z"/>
<path fill="#262523" d="M230.755,9.635c1.276,0.025,2.48,0.183,3.614,0.476c1.147,0.298,2.22,0.729,3.217,1.295
	c0.99,0.562,1.902,1.218,2.742,1.968c0.836,0.75,1.595,1.592,2.277,2.525l0.004,0.009c0.683,0.96,1.282,1.994,1.797,3.105
	c0.516,1.109,0.955,2.307,1.315,3.587c0.716,2.548,1.075,5.282,1.075,8.204c0,2.877-0.359,5.589-1.075,8.136
	c-0.36,1.281-0.799,2.479-1.315,3.587c-0.514,1.109-1.113,2.144-1.793,3.1h0.002c-0.683,0.984-1.443,1.862-2.279,2.633
	c-0.843,0.777-1.759,1.448-2.75,2.01h-0.003c-1.003,0.57-2.077,0.996-3.219,1.281c-1.141,0.283-2.348,0.424-3.62,0.424
	c-1.23,0-2.403-0.141-3.52-0.424c-1.118-0.283-2.179-0.711-3.183-1.281h-0.003c-0.991-0.562-1.908-1.232-2.749-2.009
	c-0.832-0.767-1.588-1.64-2.268-2.615c-1.399-1.898-2.471-4.133-3.217-6.7c-0.37-1.277-0.649-2.595-0.832-3.946
	c-0.186-1.366-0.279-2.767-0.279-4.194c0-1.451,0.093-2.865,0.279-4.241c0.183-1.368,0.462-2.689,0.832-3.968
	c0.744-2.564,1.816-4.797,3.214-6.696c0.681-0.934,1.441-1.775,2.279-2.525c0.834-0.747,1.748-1.403,2.741-1.966v-0.002
	c1.995-1.132,4.227-1.723,6.695-1.771H230.755z M230.744,43.889c0.913,0,1.775-0.316,2.587-0.952c0.434-0.336,0.84-0.737,1.22-1.201
	c0.385-0.473,0.75-1.014,1.09-1.627l0.005-0.012c0.343-0.596,0.649-1.243,0.914-1.938c0.267-0.703,0.499-1.469,0.696-2.293
	c0.197-0.825,0.345-1.675,0.443-2.542c0.096-0.873,0.146-1.778,0.146-2.722c0-0.919-0.05-1.805-0.146-2.661
	c-0.1-0.864-0.246-1.699-0.439-2.501c-0.193-0.795-0.425-1.55-0.7-2.264c-0.269-0.696-0.573-1.34-0.914-1.934v-0.004
	c-0.341-0.591-0.703-1.117-1.09-1.578c-0.379-0.453-0.788-0.852-1.225-1.192c-0.415-0.324-0.835-0.564-1.255-0.723
	c-0.408-0.151-0.829-0.228-1.264-0.228c-0.489,0-0.958,0.073-1.401,0.22c-0.45,0.149-0.889,0.378-1.314,0.682
	c-0.434,0.311-0.84,0.683-1.212,1.115c-0.381,0.439-0.727,0.939-1.039,1.498l-0.004,0.007c-0.34,0.592-0.643,1.233-0.904,1.926
	c-0.264,0.694-0.488,1.44-0.672,2.235c-0.186,0.798-0.324,1.631-0.416,2.494c-0.092,0.86-0.139,1.762-0.139,2.707
	c0,0.978,0.044,1.905,0.13,2.789c0.087,0.892,0.218,1.756,0.394,2.594c0.172,0.829,0.385,1.606,0.634,2.338
	c0.248,0.721,0.532,1.389,0.853,2.004c0.314,0.604,0.662,1.143,1.041,1.612c0.374,0.464,0.781,0.86,1.217,1.193
	c0.425,0.325,0.865,0.565,1.322,0.724C229.753,43.811,230.235,43.889,230.744,43.889"/>
<path fill="#262523" d="M458.3,16.749c0,3.771-0.548,7.275-1.647,10.515c-1.098,3.244-2.745,6.21-4.939,8.896
	c-2.166,2.678-4.73,5.053-7.697,7.129c-2.953,2.065-6.984,3.83-10.733,5.297c-0.831,0.376-1.61,0.374-2.339-0.005
	c-0.662-0.345-1.248-1.005-1.756-1.979l-0.004-0.004c-0.487-0.962-0.666-1.81-0.537-2.542c0.143-0.795,0.623-1.423,1.44-1.877
	l0.038-0.021l0.048-0.02c7.769-3.032,15.451-8.578,18.247-16.574c0.813-2.323,1.249-4.83,1.311-7.523h-18.865h-0.682v-0.67v-5.712
	v-0.67h0.682h23.785c2.433,0,3.649,1.174,3.649,3.527V16.749z"/>
<path fill="#262523" d="M473.853,57.285c0,2.477-0.377,4.358-1.133,5.644c-0.827,1.402-2.065,2.104-3.716,2.104h-1.073
	c-0.813,0-1.443-0.214-1.892-0.639c-0.455-0.434-0.684-1.044-0.684-1.834V8.865V8.194h0.682h7.133h0.683v0.671V57.285z"/>
<path fill="#262523" d="M482.098,35.656h13.9v-2.528c-1.379-0.396-2.615-0.854-3.709-1.376c-1.248-0.595-2.32-1.273-3.221-2.037
	c-0.929-0.791-1.628-1.715-2.095-2.769c-0.466-1.052-0.698-2.22-0.698-3.511c0-0.742,0.102-1.465,0.303-2.166
	s0.502-1.38,0.901-2.029c0.39-0.635,0.834-1.225,1.334-1.764c0.081-0.088,0.164-0.176,0.247-0.261h-4.354h-0.682v-0.672v-5.524
	v-0.671h0.682h11.416V7.996V7.327h0.682h7.07h0.683v0.669v2.353h10.384c0.693,0,1.225,0.247,1.592,0.74
	c0.32,0.431,0.48,1.028,0.48,1.793c0,0.696-0.067,1.306-0.202,1.825c-0.147,0.561-0.372,1.025-0.683,1.393
	c-0.306,0.367-0.66,0.646-1.062,0.833c-0.403,0.189-0.847,0.283-1.324,0.283h-2.237c0.064,0.064,0.125,0.127,0.188,0.192
	c0.496,0.521,0.943,1.085,1.341,1.693c0.414,0.635,0.728,1.316,0.933,2.041c0.207,0.725,0.312,1.489,0.312,2.293
	c0,1.224-0.224,2.365-0.669,3.428c-0.443,1.059-1.107,2.029-1.989,2.906c-0.88,0.877-1.974,1.608-3.28,2.197
	c-1.139,0.51-2.441,0.914-3.908,1.208v2.481h12.699c0.688,0,1.215,0.238,1.584,0.718c0.326,0.421,0.488,1.007,0.488,1.754
	c0,1.433-0.254,2.532-0.76,3.297c-0.566,0.856-1.404,1.284-2.511,1.284h-33.835h-0.684v-0.671v-5.711v-0.671H482.098z
	 M520.614,52.298H489.73h-0.682v-0.67v-5.712v-0.67h0.682h35.607c2.474,0,3.713,1.174,3.713,3.525v7.497
	c0,1.369-0.086,2.586-0.256,3.649c-0.174,1.084-0.437,1.999-0.787,2.747c-0.381,0.808-0.898,1.423-1.551,1.84
	c-0.656,0.419-1.429,0.629-2.318,0.629h-0.883c-1.761,0-2.642-0.845-2.642-2.533V52.298z M528.924,36.193
	c0,2.476-0.379,4.357-1.135,5.644c-0.826,1.402-2.063,2.104-3.714,2.104h-1.01c-0.813,0-1.445-0.214-1.892-0.638
	c-0.457-0.435-0.685-1.045-0.685-1.834V8.926v-0.67h0.683h7.069h0.683v0.67V36.193z M500.215,26.829c0.863,0,1.65-0.104,2.363-0.312
	c0.702-0.205,1.338-0.514,1.905-0.923c1.401-1.011,2.194-2.904,1.235-4.505c-0.267-0.447-0.68-0.873-1.235-1.273
	c-0.567-0.408-1.203-0.719-1.905-0.922c-0.713-0.209-1.5-0.313-2.363-0.313c-0.86,0-1.644,0.104-2.347,0.313
	c-0.692,0.205-1.31,0.51-1.852,0.914c-0.535,0.399-0.933,0.822-1.192,1.272c-0.543,0.938-0.572,2.127-0.086,3.116
	c0.275,0.559,0.809,1.054,1.278,1.404c0.542,0.405,1.159,0.711,1.852,0.916C498.571,26.724,499.354,26.829,500.215,26.829"/>
<path fill="#262523" d="M272.69,11.028h25.456c0.697,0,1.232,0.259,1.604,0.773c0.317,0.434,0.475,1.035,0.475,1.8
	c0,1.444-0.246,2.555-0.739,3.331c-0.565,0.89-1.401,1.336-2.511,1.336h-16.6v21.58c0,0.374,0.074,0.634,0.221,0.776
	c0.156,0.148,0.438,0.225,0.844,0.225h16.742c2.074,0.039,4.287-0.437,5.783-0.88c0.92-0.274,1.34-0.484,2.012-0.759
	c0.578-0.237,1.171-0.767,1.171-2.001c0-0.98,2.214,0.87,2.642,1.432c0.701,0,1.163,2.474,1.536,3.008
	c0.312,0.444,0.468,1.057,0.468,1.833c0,1.426-0.248,2.522-0.742,3.288c-0.566,0.879-0.803-0.927-1.907-0.927
	c-0.632-0.345-1.431-0.412-1.996,0.086c-0.774,0.682-1.708,0.945-2.899,1.442c-1.492,0.622-5.27,0.717-6.673,0.717h-19.093
	c-4.385,0-6.578-2.15-6.578-6.454v-29.82v-0.786H272.69z M315.68,57.099c0,2.48-0.373,4.367-1.123,5.66
	c-0.83,1.433-2.071,2.148-3.728,2.148h-1.048c-0.825,0-1.469-0.223-1.929-0.666c-0.47-0.454-0.705-1.091-0.705-1.905V9.041V8.256
	h0.786h6.961h0.785v0.784V57.099z"/>
<path fill="#262523" d="M323.807,11.09h27.066c0.701,0,1.238,0.267,1.609,0.799c0.313,0.446,0.469,1.057,0.469,1.835
	c0,1.425-0.248,2.522-0.741,3.288c-0.568,0.879-1.403,1.315-2.509,1.315h-7.758v2.235c0,1.995,0.23,3.965,0.688,5.906
	c0.46,1.947,1.148,3.871,2.066,5.769c0.916,1.889,2.082,3.667,3.498,5.332c1.424,1.674,3.094,3.23,5.017,4.672l0.036,0.027
	c0.342,0.288,0.603,0.6,0.783,0.932h0.002c0.197,0.363,0.295,0.745,0.295,1.145c0,0.509-0.158,1.039-0.474,1.591
	c-0.139,0.243-0.29,0.474-0.456,0.691c-0.168,0.221-0.345,0.426-0.529,0.609c-0.176,0.199-0.358,0.38-0.541,0.539h-0.004
	c-0.196,0.175-0.397,0.327-0.604,0.46l-0.003,0.004c-0.223,0.145-0.454,0.258-0.689,0.336c-0.256,0.086-0.507,0.13-0.75,0.13
	c-0.297,0-0.586-0.055-0.871-0.158c-0.269-0.099-0.523-0.243-0.768-0.431c-1.236-0.885-2.414-1.812-3.534-2.779
	c-1.114-0.961-2.157-1.956-3.126-2.979c-0.982-1.035-1.894-2.16-2.734-3.376c-0.556-0.804-1.08-1.647-1.575-2.534
	c-0.462,0.885-0.953,1.729-1.472,2.535c-0.795,1.233-1.656,2.383-2.58,3.443c-0.924,1.06-1.896,2.046-2.92,2.959
	c-0.998,0.891-2.055,1.717-3.166,2.472c-0.23,0.196-0.481,0.343-0.75,0.444c-0.285,0.103-0.586,0.156-0.902,0.156
	c-0.201,0-0.422-0.041-0.662-0.121h-0.001c-0.201-0.065-0.414-0.162-0.642-0.29c-0.222-0.121-0.433-0.26-0.635-0.414
	c-0.207-0.159-0.4-0.329-0.582-0.509c-0.203-0.184-0.391-0.381-0.561-0.596c-0.18-0.221-0.336-0.453-0.471-0.696
	c-0.139-0.255-0.246-0.519-0.32-0.788c-0.077-0.28-0.116-0.555-0.116-0.821c0-0.802,0.332-1.508,0.997-2.119l0.05-0.043l0.017-0.014
	c1.586-1.148,3.011-2.544,4.277-4.188c0.633-0.819,1.227-1.684,1.783-2.59c0.563-0.911,1.066-1.84,1.52-2.783
	c0.918-1.915,1.617-3.904,2.099-5.971c0.239-1.03,0.42-2.04,0.539-3.034c0.118-0.988,0.179-1.961,0.179-2.919v-2.235h-9.543h-0.786
	v-0.783v-5.668V11.09H323.807z M366.896,57.099c0,5.166-1.617,7.747-4.851,7.747h-0.925c-1.795,0-2.695-0.857-2.695-2.572V9.102
	V8.318h0.786h6.901h0.783v0.784v16.282h6.486c1.427,0,2.139,0.9,2.139,2.695c0,3.193-1.102,4.789-3.31,4.789h-5.315V57.099z"/>
<path fill="#262523" d="M394.223,9.307c2.32,0.042,4.43,0.464,6.33,1.264c0.952,0.399,1.832,0.866,2.641,1.397
	c0.813,0.537,1.556,1.143,2.232,1.819l0.006,0.007c0.654,0.676,1.23,1.417,1.73,2.222c0.496,0.803,0.912,1.663,1.247,2.585
	c0.671,1.835,1.006,3.804,1.006,5.904c0,2.102-0.335,4.07-1.006,5.905c-0.335,0.922-0.751,1.784-1.247,2.585
	c-0.5,0.806-1.076,1.546-1.73,2.223c-0.677,0.697-1.423,1.319-2.24,1.863c-0.811,0.54-1.691,1.005-2.648,1.395
	c-0.958,0.393-1.961,0.69-3.011,0.894c-1.044,0.202-2.147,0.314-3.31,0.336h-0.023c-1.164-0.021-2.264-0.134-3.295-0.336
	c-1.049-0.205-2.037-0.502-2.971-0.894c-0.928-0.388-1.789-0.849-2.584-1.382c-0.797-0.536-1.521-1.141-2.173-1.813
	c-0.672-0.674-1.264-1.404-1.774-2.192c-0.514-0.791-0.942-1.636-1.291-2.539c-0.35-0.908-0.611-1.842-0.781-2.802
	c-0.173-0.964-0.26-1.963-0.26-2.995c0-2.097,0.336-4.075,1.004-5.931c0.337-0.933,0.752-1.808,1.246-2.622
	c0.498-0.821,1.072-1.579,1.723-2.273c0.648-0.692,1.375-1.317,2.172-1.876c0.797-0.556,1.658-1.04,2.58-1.447
	c0.93-0.408,1.934-0.725,3.014-0.942c1.063-0.215,2.192-0.332,3.391-0.354H394.223z M394.212,32.409c0.942,0,1.81-0.206,2.595-0.617
	c0.813-0.424,1.533-1.008,2.168-1.753l0.016-0.018c0.311-0.346,0.589-0.73,0.836-1.155c0.251-0.432,0.465-0.896,0.643-1.389
	c0.178-0.495,0.311-1.007,0.401-1.54c0.09-0.521,0.135-1.061,0.135-1.615c0-1.063-0.178-2.069-0.534-3.024
	c-0.178-0.477-0.39-0.935-0.635-1.375c-0.241-0.429-0.504-0.825-0.792-1.187c-0.313-0.351-0.653-0.664-1.017-0.939
	c-0.361-0.275-0.754-0.517-1.17-0.721c-0.405-0.197-0.823-0.346-1.258-0.447c-0.425-0.098-0.867-0.148-1.326-0.148
	c-0.483,0-0.942,0.051-1.377,0.148c-0.44,0.102-0.863,0.249-1.268,0.447c-0.415,0.204-0.809,0.44-1.184,0.714
	c-0.365,0.27-0.707,0.573-1.023,0.907h-0.001c-0.313,0.351-0.589,0.728-0.83,1.133c-0.246,0.414-0.459,0.863-0.64,1.346
	c-0.176,0.473-0.309,0.971-0.398,1.498c-0.089,0.522-0.135,1.073-0.135,1.648c0,0.561,0.042,1.1,0.127,1.613
	c0.086,0.525,0.213,1.033,0.382,1.52c0.171,0.492,0.373,0.955,0.61,1.391c0.236,0.436,0.505,0.84,0.8,1.211
	c0.586,0.732,1.3,1.309,2.144,1.729c0.414,0.207,0.848,0.362,1.305,0.467C393.236,32.357,393.711,32.409,394.212,32.409
	 M424.016,40.833c0,2.463-0.373,4.335-1.123,5.617c-0.83,1.42-2.072,2.131-3.728,2.131h-0.985c-0.826,0-1.471-0.223-1.929-0.667
	c-0.47-0.454-0.704-1.091-0.704-1.906V9.102V8.318h0.784h6.899h0.785v0.784V40.833z M387.479,43.129h6.961h0.785v0.785v11.892
	c0,0.667,0.334,1,1.002,1h26.758c0.709,0,1.256,0.254,1.64,0.76c0.334,0.441,0.501,1.045,0.501,1.813
	c0,3.112-1.104,4.668-3.311,4.668h-27.252c-2.496,0-4.408-0.446-5.734-1.338c-0.73-0.489-1.273-1.183-1.63-2.076
	c-0.337-0.84-0.507-1.854-0.507-3.04V43.915v-0.785H387.479z"/>
<rect x="48.143" y="11.683" fill="#262523" width="13.801" height="53.451"/>
<polygon fill="#262523" points="96.377,65.134 75.792,34.716 91.3,11.683 74.684,11.683 63.975,28.346 63.975,41.455 79.761,65.134 
	"/>
<path fill="#262523" d="M0,28.162h14.309v23.264h14.955V28.162h14.401v29.122c0,4.336-3.515,7.85-7.85,7.85H7.85
	c-4.335,0-7.85-3.514-7.85-7.85V28.162z"/>
<path fill="#262523" d="M43.666,25.946H0v-4.842c0-5.203,4.217-9.421,9.42-9.421h24.824c5.203,0,9.421,4.218,9.421,9.421V25.946z"/>
<path fill="#FFFFFF" d="M12.163,17.586c-2.911,0-5.279-2.369-5.279-5.28s2.368-5.279,5.279-5.279s5.279,2.368,5.279,5.279
	S15.074,17.586,12.163,17.586"/>
<path fill="#421509" d="M12.163,7.702c2.539,0,4.604,2.066,4.604,4.605c0,2.538-2.065,4.604-4.604,4.604s-4.604-2.065-4.604-4.604
	C7.559,9.768,9.624,7.702,12.163,7.702 M12.163,6.352c-3.289,0-5.954,2.666-5.954,5.955c0,3.288,2.665,5.954,5.954,5.954
	s5.954-2.666,5.954-5.954C18.117,9.018,15.452,6.352,12.163,6.352"/>
<path fill="#FFFFFF" d="M31.619,17.586c-2.911,0-5.28-2.369-5.28-5.28s2.369-5.279,5.28-5.279c2.911,0,5.279,2.368,5.279,5.279
	S34.529,17.586,31.619,17.586"/>
<path fill="#421509" d="M31.618,7.702c2.539,0,4.604,2.066,4.604,4.605c0,2.538-2.065,4.604-4.604,4.604s-4.604-2.065-4.604-4.604
	C27.014,9.768,29.079,7.702,31.618,7.702 M31.618,6.352c-3.289,0-5.954,2.666-5.954,5.955c0,3.288,2.665,5.954,5.954,5.954
	c3.288,0,5.954-2.666,5.954-5.954C37.572,9.018,34.906,6.352,31.618,6.352"/>
<path fill="#231815" d="M14.102,12.306c0,1.071-0.868,1.939-1.939,1.939c-1.07,0-1.938-0.868-1.938-1.939
	c0-1.07,0.868-1.938,1.938-1.938C13.233,10.368,14.102,11.236,14.102,12.306"/>
<path fill="#231815" d="M33.626,12.306c0,1.109-0.899,2.009-2.008,2.009s-2.008-0.899-2.008-2.009c0-1.108,0.899-2.008,2.008-2.008
	S33.626,11.198,33.626,12.306"/>
<path fill="#421509" d="M18.518,11.629l-0.011,0.011c-0.427,0.427-1.126,0.427-1.553,0L7.198,1.884
	c-0.427-0.428-0.427-1.126,0-1.553L7.208,0.32c0.427-0.427,1.126-0.427,1.553,0l9.756,9.756
	C18.945,10.503,18.945,11.203,18.518,11.629"/>
<path fill="#421509" d="M24.091,11.629l0.011,0.011c0.427,0.427,1.126,0.427,1.553,0l9.756-9.756c0.427-0.428,0.427-1.126,0-1.553
	L35.4,0.32c-0.427-0.427-1.126-0.427-1.553,0l-9.756,9.756C23.665,10.503,23.665,11.203,24.091,11.629"/>
</svg>
