<?xml version="1.0" encoding="utf-8"?>
<!-- Generator: Adobe Illustrator 16.0.0, SVG Export Plug-In . SVG Version: 6.00 Build 0)  -->
<!DOCTYPE svg PUBLIC "-//W3C//DTD SVG 1.1//EN" "http://www.w3.org/Graphics/SVG/1.1/DTD/svg11.dtd">
<svg version="1.1" id="Layer_1" xmlns="http://www.w3.org/2000/svg" xmlns:xlink="http://www.w3.org/1999/xlink" x="0px" y="0px"
	 width="287.083px" height="83.291px" viewBox="0 0 287.083 83.291" enable-background="new 0 0 287.083 83.291"
	 xml:space="preserve">
<path fill="#262523" d="M52.002,58.389c2.739-2.042,5.1-4.475,7.081-7.299c1.982-2.827,3.497-5.899,4.546-9.223h-13.11
	c-1.226,3.205-3.513,5.873-6.864,7.996c-3.35,2.129-7.005,3.189-10.968,3.189c-2.795,0-5.448-0.521-7.952-1.571
	c-2.508-1.049-4.691-2.504-6.558-4.37c-1.863-1.864-3.35-4.048-4.457-6.555c-1.105-2.504-1.66-5.215-1.66-8.128
	c0-2.738,0.508-5.344,1.529-7.824c1.021-2.475,2.461-4.645,4.328-6.511c1.803-1.924,3.976-3.438,6.511-4.545
	c2.533-1.107,5.286-1.662,8.259-1.662c2.038,0,4.005,0.32,5.9,0.964c1.892,0.64,3.628,1.454,5.2,2.446
	c1.575,1.05,2.941,2.245,4.108,3.582c1.166,1.341,2.07,2.742,2.71,4.197h13.024c-1.049-3.322-2.564-6.396-4.546-9.223
	c-1.981-2.824-4.342-5.257-7.081-7.298c-2.678-2.038-5.68-3.642-9.001-4.808c-3.322-1.164-6.789-1.747-10.402-1.747
	c-4.486,0-8.711,0.86-12.673,2.579c-3.961,1.717-7.429,4.035-10.402,6.949c-2.97,2.912-5.303,6.353-6.993,10.313
	C0.842,23.805,0,28.002,0,32.429c0,4.485,0.842,8.71,2.531,12.672c1.69,3.962,4.023,7.401,6.993,10.314
	c2.973,2.974,6.441,5.303,10.402,6.991c3.962,1.69,8.187,2.537,12.673,2.537c3.613,0,7.08-0.569,10.402-1.703
	C46.322,62.101,49.324,60.482,52.002,58.389"/>
<polygon fill="#262523" points="216.025,63.367 216.025,1.572 199.679,1.572 184.294,47.199 168.822,1.572 152.567,1.572 
	152.567,53.619 144.112,53.619 144.112,63.367 152.567,63.367 161.024,63.367 165.068,63.367 165.068,24.473 178.266,63.367 
	190.326,63.367 203.524,23.687 203.524,63.367 "/>
<path fill="#262523" d="M284.552,19.842c-1.689-3.961-4.023-7.4-6.996-10.313c-2.973-2.974-6.43-5.302-10.399-6.992
	C263.203,0.848,258.976,0,254.481,0c-3.613,0-7.084,0.57-10.399,1.705c-3.314,1.139-6.316,2.756-9.004,4.851
	c-2.732,2.042-5.094,4.474-7.07,7.298c-1.993,2.827-3.5,5.9-4.553,9.223h13.116c1.224-3.205,3.5-5.872,6.856-7.995
	c3.357-2.131,7-3.19,10.969-3.19c2.802,0,5.447,0.522,7.952,1.572c2.504,1.049,4.696,2.504,6.558,4.371
	c1.864,1.862,3.344,4.047,4.454,6.554c1.108,2.504,1.664,5.215,1.664,8.128c0,2.738-0.513,5.344-1.537,7.822
	c-1.009,2.477-2.461,4.646-4.325,6.514c-1.806,1.923-3.968,3.436-6.5,4.544c-2.547,1.106-5.293,1.661-8.266,1.661
	c-2.034,0-4.012-0.32-5.903-0.963c-1.893-0.641-3.629-1.454-5.192-2.447c-1.58-1.05-2.945-2.244-4.112-3.581
	c-1.166-1.34-2.063-2.742-2.718-4.198h-13.016c1.053,3.323,2.56,6.396,4.553,9.223c1.977,2.824,4.338,5.257,7.07,7.299
	c2.688,2.037,5.689,3.642,9.004,4.808c3.315,1.164,6.786,1.747,10.399,1.747c4.495,0,8.722-0.861,12.676-2.58
	c3.97-1.717,7.427-4.036,10.399-6.947c2.973-2.914,5.307-6.354,6.996-10.315c1.688-3.961,2.531-8.158,2.531-12.585
	C287.083,28.03,286.24,23.805,284.552,19.842"/>
<polygon fill="#262523" points="83.908,24.473 97.106,63.368 109.167,63.368 122.364,23.688 122.364,63.368 134.866,63.368 
	134.866,11.321 144.112,11.321 144.112,1.573 134.866,1.573 133.479,1.573 118.52,1.573 103.134,47.199 87.662,1.573 71.407,1.573 
	71.407,63.368 83.908,63.368 "/>
<path fill="#262523" d="M5.768,79.67c-0.395,0.18-0.871,0.268-1.433,0.268c-0.829,0-1.476-0.268-1.945-0.809
	c-0.466-0.536-0.701-1.361-0.701-2.471v-1.143c0-0.472,0.057-0.898,0.167-1.282c0.11-0.39,0.273-0.72,0.491-0.997
	c0.213-0.277,0.484-0.49,0.8-0.644c0.32-0.153,0.686-0.231,1.099-0.231c0.455,0,0.864,0.053,1.231,0.165
	c0.362,0.105,0.749,0.305,1.155,0.592l0.445-0.681c-0.37-0.289-0.786-0.514-1.248-0.666c-0.459-0.153-0.986-0.228-1.583-0.228
	c-1.091,0-1.938,0.349-2.54,1.049c-0.601,0.7-0.899,1.687-0.899,2.962v1.104c0,1.302,0.295,2.311,0.889,3.031
	c0.591,0.721,1.465,1.08,2.625,1.08c0.711,0,1.305-0.104,1.778-0.311c0.469-0.206,0.871-0.458,1.202-0.757L6.793,79.02
	C6.504,79.275,6.163,79.492,5.768,79.67"/>
<path fill="#262523" d="M12.938,73.816c-0.263,0-0.504,0.028-0.719,0.093c-0.216,0.06-0.408,0.143-0.575,0.241
	c-0.171,0.1-0.317,0.214-0.441,0.342c-0.125,0.129-0.224,0.256-0.299,0.379v-3.625h-0.846v9.389h0.846v-4.348
	c0-0.198,0.046-0.396,0.143-0.596c0.095-0.2,0.223-0.381,0.39-0.548c0.163-0.164,0.367-0.299,0.602-0.402
	c0.238-0.104,0.495-0.155,0.778-0.155c0.331,0,0.606,0.044,0.826,0.137c0.217,0.089,0.391,0.217,0.518,0.377
	c0.129,0.165,0.222,0.349,0.268,0.559c0.05,0.213,0.074,0.438,0.074,0.68v4.297h0.847v-4.51c0-0.705-0.21-1.264-0.626-1.683
	C14.304,74.025,13.709,73.816,12.938,73.816"/>
<path fill="#262523" d="M20.936,73.816c-0.846,0-1.508,0.264-1.994,0.793c-0.484,0.53-0.725,1.273-0.725,2.223v0.832
	c0,0.979,0.249,1.731,0.746,2.266c0.494,0.537,1.191,0.805,2.084,0.805c0.562,0,1.045-0.08,1.441-0.238
	c0.398-0.157,0.729-0.331,0.996-0.521l-0.375-0.646c-0.241,0.175-0.529,0.327-0.87,0.46c-0.339,0.134-0.733,0.197-1.178,0.197
	c-0.623,0-1.109-0.197-1.465-0.601c-0.356-0.401-0.533-0.974-0.533-1.722v-0.11h4.57v-0.697c0-0.941-0.231-1.686-0.69-2.229
	C22.483,74.087,21.812,73.816,20.936,73.816 M22.786,76.847h-3.723v-0.115c0-0.661,0.159-1.187,0.486-1.581
	c0.328-0.392,0.79-0.592,1.387-0.592c0.588,0,1.043,0.19,1.366,0.56c0.324,0.374,0.484,0.913,0.484,1.613V76.847z"/>
<path fill="#262523" d="M29.01,73.816c-0.902,0-1.603,0.264-2.099,0.785c-0.498,0.527-0.746,1.281-0.746,2.256v0.832
	c0,0.971,0.248,1.718,0.746,2.248c0.496,0.529,1.197,0.797,2.099,0.797c0.899,0,1.6-0.268,2.099-0.797
	c0.494-0.53,0.742-1.277,0.742-2.248v-0.832c0-0.967-0.248-1.717-0.742-2.248C30.61,74.08,29.909,73.816,29.01,73.816
	 M30.995,77.639c0,0.797-0.175,1.389-0.526,1.771c-0.353,0.384-0.84,0.577-1.459,0.577c-0.622,0-1.11-0.193-1.462-0.577
	c-0.352-0.383-0.526-0.975-0.526-1.771v-0.732c0-0.792,0.174-1.383,0.526-1.766c0.352-0.389,0.84-0.582,1.462-0.582
	c0.619,0,1.106,0.193,1.459,0.582c0.351,0.383,0.526,0.974,0.526,1.766V77.639z"/>
<path fill="#262523" d="M37.652,73.816c-0.263,0-0.505,0.028-0.718,0.093c-0.218,0.06-0.41,0.143-0.584,0.241
	c-0.174,0.1-0.323,0.214-0.447,0.342c-0.125,0.129-0.225,0.256-0.3,0.379V73.94h-0.831v6.694h0.846v-4.348
	c0-0.198,0.046-0.396,0.141-0.596c0.096-0.2,0.224-0.381,0.392-0.548c0.163-0.164,0.366-0.299,0.601-0.402
	c0.238-0.104,0.494-0.155,0.778-0.155c0.331,0,0.605,0.044,0.826,0.137c0.217,0.089,0.391,0.217,0.519,0.377
	c0.129,0.165,0.221,0.349,0.267,0.559c0.049,0.213,0.074,0.438,0.074,0.68v4.297h0.847v-4.51c0-0.705-0.209-1.264-0.626-1.683
	C39.017,74.025,38.424,73.816,37.652,73.816"/>
<path fill="#262523" d="M47.599,74.758c-0.174-0.248-0.426-0.465-0.764-0.656c-0.335-0.188-0.751-0.285-1.249-0.285
	c-0.379,0-0.732,0.063-1.059,0.193c-0.327,0.127-0.608,0.312-0.847,0.558c-0.235,0.245-0.42,0.544-0.55,0.898
	c-0.133,0.356-0.2,0.762-0.2,1.218v1.055c0,0.456,0.067,0.861,0.2,1.217c0.13,0.359,0.32,0.658,0.557,0.904
	c0.242,0.242,0.524,0.43,0.847,0.558c0.32,0.128,0.675,0.192,1.067,0.192c0.387,0,0.768-0.078,1.135-0.238
	c0.37-0.157,0.646-0.406,0.839-0.743h0.014v0.917c0,0.704-0.161,1.223-0.481,1.562c-0.32,0.335-0.79,0.502-1.407,0.502
	c-0.193,0-0.366-0.006-0.524-0.026c-0.156-0.016-0.309-0.045-0.451-0.092c-0.145-0.046-0.288-0.104-0.43-0.174
	c-0.139-0.07-0.288-0.161-0.449-0.266l-0.383,0.656c0.28,0.214,0.607,0.384,0.974,0.509c0.369,0.124,0.789,0.186,1.263,0.186
	c0.835,0,1.5-0.242,1.991-0.726c0.495-0.484,0.74-1.203,0.74-2.156V73.94h-0.833V74.758z M47.589,78.112
	c0,0.299-0.054,0.558-0.156,0.776c-0.104,0.22-0.242,0.401-0.416,0.547c-0.175,0.146-0.381,0.254-0.616,0.324
	c-0.234,0.067-0.491,0.103-0.764,0.103c-0.563,0-1.015-0.192-1.351-0.583c-0.342-0.387-0.51-0.943-0.51-1.665v-0.808
	c0-0.711,0.168-1.262,0.502-1.656c0.334-0.393,0.789-0.592,1.359-0.592c0.281,0,0.544,0.051,0.781,0.15
	c0.243,0.1,0.449,0.231,0.624,0.391c0.174,0.164,0.308,0.342,0.401,0.533c0.096,0.196,0.146,0.393,0.146,0.592V78.112z"/>
<path fill="#262523" d="M58.44,73.816c-0.263,0-0.504,0.035-0.726,0.11c-0.221,0.075-0.412,0.171-0.583,0.284
	c-0.17,0.117-0.312,0.248-0.433,0.391c-0.122,0.146-0.217,0.288-0.292,0.431c-0.15-0.388-0.392-0.689-0.722-0.898
	c-0.331-0.214-0.765-0.317-1.301-0.317c-0.25,0-0.474,0.028-0.665,0.085c-0.196,0.06-0.37,0.14-0.531,0.238
	c-0.157,0.096-0.291,0.215-0.402,0.341c-0.113,0.129-0.206,0.257-0.28,0.391V73.94h-0.833v6.694h0.846v-4.348
	c0-0.198,0.036-0.396,0.11-0.596c0.075-0.2,0.185-0.381,0.332-0.548c0.142-0.164,0.323-0.299,0.54-0.402
	c0.214-0.104,0.46-0.155,0.733-0.155c0.295,0,0.544,0.041,0.736,0.123c0.196,0.08,0.349,0.203,0.462,0.356
	c0.11,0.152,0.19,0.337,0.235,0.55c0.046,0.217,0.068,0.46,0.068,0.733v4.286h0.846v-4.397c0.007-0.19,0.051-0.387,0.128-0.582
	c0.079-0.2,0.193-0.378,0.338-0.537c0.142-0.157,0.32-0.284,0.527-0.385c0.206-0.099,0.448-0.147,0.721-0.147
	c0.295,0,0.544,0.041,0.737,0.123c0.195,0.08,0.348,0.203,0.459,0.356c0.114,0.152,0.191,0.337,0.238,0.55
	c0.046,0.217,0.066,0.46,0.066,0.733v4.286h0.844v-4.51c0-0.711-0.174-1.273-0.526-1.69C59.76,74.022,59.205,73.816,58.44,73.816"/>
<polygon fill="#262523" points="65.98,79.688 63.907,73.939 63.035,73.939 65.546,80.744 64.688,83.142 65.408,83.4 68.886,73.939 
	68.018,73.939 "/>
<path fill="#262523" d="M73.68,73.816c-0.847,0-1.508,0.264-1.997,0.793c-0.483,0.53-0.725,1.273-0.725,2.223v0.832
	c0,0.979,0.249,1.731,0.747,2.266c0.494,0.537,1.192,0.805,2.084,0.805c0.562,0,1.046-0.08,1.441-0.238
	c0.398-0.157,0.729-0.331,0.995-0.521l-0.372-0.646c-0.243,0.175-0.531,0.327-0.872,0.46c-0.339,0.134-0.733,0.197-1.177,0.197
	c-0.623,0-1.111-0.197-1.466-0.601c-0.355-0.401-0.533-0.974-0.533-1.722v-0.11h4.57v-0.697c0-0.941-0.231-1.686-0.69-2.229
	C75.227,74.087,74.554,73.816,73.68,73.816 M75.528,76.847h-3.723v-0.115c0-0.661,0.159-1.187,0.488-1.581
	c0.326-0.392,0.789-0.592,1.387-0.592c0.586,0,1.041,0.19,1.365,0.56c0.323,0.374,0.483,0.913,0.483,1.613V76.847z"/>
<path fill="#262523" d="M81.751,73.816c-0.902,0-1.603,0.264-2.097,0.785c-0.499,0.527-0.747,1.281-0.747,2.256v0.832
	c0,0.971,0.248,1.718,0.747,2.248c0.494,0.529,1.195,0.797,2.097,0.797c0.901,0,1.601-0.268,2.099-0.797
	c0.495-0.53,0.744-1.277,0.744-2.248v-0.832c0-0.967-0.249-1.717-0.744-2.248C83.353,74.08,82.653,73.816,81.751,73.816
	 M83.738,77.639c0,0.797-0.175,1.389-0.526,1.771c-0.353,0.384-0.839,0.577-1.46,0.577s-1.109-0.193-1.46-0.577
	c-0.352-0.383-0.527-0.975-0.527-1.771v-0.732c0-0.792,0.175-1.383,0.527-1.766c0.351-0.389,0.839-0.582,1.46-0.582
	s1.107,0.193,1.46,0.582c0.351,0.383,0.526,0.974,0.526,1.766V77.639z"/>
<path fill="#262523" d="M90.395,73.816c-0.263,0-0.504,0.028-0.718,0.093c-0.217,0.06-0.409,0.143-0.583,0.241
	c-0.175,0.1-0.324,0.214-0.448,0.342c-0.125,0.129-0.224,0.256-0.299,0.379V73.94h-0.832v6.694h0.846v-4.348
	c0-0.198,0.047-0.396,0.143-0.596c0.094-0.2,0.223-0.381,0.391-0.548c0.163-0.164,0.366-0.299,0.601-0.402
	c0.238-0.104,0.494-0.155,0.779-0.155c0.33,0,0.604,0.044,0.825,0.137c0.217,0.089,0.391,0.217,0.519,0.377
	c0.128,0.165,0.22,0.349,0.267,0.559c0.049,0.213,0.075,0.438,0.075,0.68v4.297h0.846v-4.51c0-0.705-0.21-1.264-0.626-1.683
	C91.761,74.025,91.167,73.816,90.395,73.816"/>
<path fill="#262523" d="M100.343,74.758c-0.175-0.248-0.428-0.465-0.765-0.656c-0.334-0.188-0.751-0.285-1.248-0.285
	c-0.381,0-0.733,0.063-1.059,0.193c-0.329,0.127-0.609,0.312-0.847,0.558c-0.236,0.245-0.42,0.544-0.552,0.898
	c-0.131,0.356-0.199,0.762-0.199,1.218v1.055c0,0.456,0.068,0.861,0.199,1.217c0.132,0.359,0.32,0.658,0.558,0.904
	c0.242,0.242,0.523,0.43,0.846,0.558c0.321,0.128,0.677,0.192,1.068,0.192c0.387,0,0.769-0.078,1.134-0.238
	c0.37-0.157,0.648-0.406,0.84-0.743h0.014v0.917c0,0.704-0.16,1.223-0.48,1.562c-0.32,0.335-0.79,0.502-1.409,0.502
	c-0.191,0-0.366-0.006-0.522-0.026c-0.157-0.016-0.309-0.045-0.452-0.092c-0.146-0.046-0.288-0.104-0.43-0.174
	c-0.138-0.07-0.289-0.161-0.449-0.266l-0.383,0.656c0.28,0.214,0.608,0.384,0.974,0.509c0.37,0.124,0.79,0.186,1.262,0.186
	c0.836,0,1.501-0.242,1.992-0.726c0.494-0.484,0.74-1.203,0.74-2.156V73.94h-0.832V74.758z M100.332,78.112
	c0,0.299-0.053,0.558-0.156,0.776c-0.103,0.22-0.243,0.401-0.417,0.547c-0.174,0.146-0.38,0.254-0.614,0.324
	c-0.235,0.067-0.491,0.103-0.765,0.103c-0.562,0-1.015-0.192-1.352-0.583c-0.342-0.387-0.508-0.943-0.508-1.665v-0.808
	c0-0.711,0.166-1.262,0.5-1.656c0.336-0.393,0.791-0.592,1.36-0.592c0.281,0,0.543,0.051,0.782,0.15
	c0.241,0.1,0.449,0.231,0.623,0.391c0.173,0.164,0.309,0.342,0.402,0.533c0.095,0.196,0.145,0.393,0.145,0.592V78.112z"/>
<path fill="#262523" d="M111.592,71.68H108.8v8.955h2.792c1.134,0,2.023-0.33,2.667-0.989c0.64-0.657,0.96-1.608,0.96-2.849v-1.281
	c0-1.24-0.32-2.19-0.96-2.848C113.616,72.01,112.727,71.68,111.592,71.68 M114.352,76.732c0,0.54-0.071,1.003-0.206,1.391
	c-0.136,0.392-0.324,0.715-0.566,0.979c-0.238,0.26-0.53,0.451-0.867,0.576c-0.342,0.125-0.709,0.185-1.107,0.185h-1.938V72.45
	h1.938c0.398,0,0.765,0.062,1.107,0.185c0.337,0.125,0.629,0.317,0.867,0.576c0.242,0.265,0.43,0.592,0.566,0.982
	c0.135,0.395,0.206,0.857,0.206,1.387V76.732z"/>
<rect x="117.539" y="71.717" fill="#262523" width="0.92" height="0.943"/>
<rect x="117.576" y="73.94" fill="#262523" width="0.843" height="6.694"/>
<rect x="128.678" y="71.717" fill="#262523" width="0.921" height="0.943"/>
<rect x="128.717" y="73.94" fill="#262523" width="0.844" height="6.694"/>
<path fill="#262523" d="M125.402,74.758c-0.175-0.248-0.427-0.465-0.765-0.656c-0.334-0.188-0.75-0.285-1.248-0.285
	c-0.38,0-0.733,0.063-1.059,0.193c-0.328,0.127-0.609,0.312-0.846,0.558c-0.236,0.245-0.421,0.544-0.552,0.898
	c-0.132,0.356-0.199,0.762-0.199,1.218v1.055c0,0.456,0.067,0.861,0.199,1.217c0.131,0.359,0.319,0.658,0.558,0.904
	c0.241,0.242,0.523,0.43,0.846,0.558c0.32,0.128,0.676,0.192,1.067,0.192c0.388,0,0.768-0.078,1.134-0.238
	c0.37-0.157,0.649-0.406,0.841-0.743h0.014v0.917c0,0.704-0.161,1.223-0.48,1.562c-0.32,0.335-0.79,0.502-1.409,0.502
	c-0.192,0-0.367-0.006-0.522-0.026c-0.157-0.016-0.311-0.045-0.452-0.092c-0.146-0.046-0.288-0.104-0.431-0.174
	c-0.138-0.07-0.288-0.161-0.448-0.266l-0.384,0.656c0.281,0.214,0.609,0.384,0.975,0.509c0.37,0.124,0.79,0.186,1.262,0.186
	c0.835,0,1.501-0.242,1.992-0.726c0.494-0.484,0.739-1.203,0.739-2.156V73.94h-0.832V74.758z M125.393,78.112
	c0,0.299-0.054,0.558-0.157,0.776c-0.103,0.22-0.242,0.401-0.416,0.547c-0.175,0.146-0.381,0.254-0.615,0.324
	c-0.234,0.067-0.491,0.103-0.765,0.103c-0.562,0-1.014-0.192-1.351-0.583c-0.342-0.387-0.509-0.943-0.509-1.665v-0.808
	c0-0.711,0.167-1.262,0.501-1.656c0.335-0.393,0.79-0.592,1.359-0.592c0.281,0,0.544,0.051,0.783,0.15
	c0.24,0.1,0.448,0.231,0.622,0.391c0.174,0.164,0.31,0.342,0.402,0.533c0.096,0.196,0.146,0.393,0.146,0.592V78.112z"/>
<path fill="#262523" d="M134.89,79.962c-0.341,0-0.584-0.088-0.725-0.273c-0.146-0.182-0.221-0.498-0.221-0.954V74.66h1.853v-0.72
	h-1.853v-1.728h-0.843v1.728h-1.142v0.72h1.142v4.109c0,0.364,0.036,0.669,0.107,0.914c0.067,0.243,0.175,0.442,0.317,0.59
	c0.138,0.147,0.32,0.258,0.54,0.321c0.217,0.068,0.473,0.101,0.761,0.101c0.186,0,0.385-0.016,0.605-0.043
	c0.217-0.028,0.394-0.067,0.526-0.117l-0.125-0.697C135.534,79.923,135.222,79.962,134.89,79.962"/>
<path fill="#262523" d="M140.324,73.816c-0.516,0-0.964,0.078-1.349,0.235c-0.383,0.155-0.737,0.344-1.048,0.558l0.408,0.647
	c0.292-0.199,0.601-0.362,0.932-0.491c0.331-0.128,0.679-0.191,1.043-0.191c0.522,0,0.917,0.127,1.187,0.392
	c0.267,0.259,0.402,0.633,0.402,1.123v0.618h-1.884c-0.78,0-1.37,0.17-1.765,0.514c-0.398,0.337-0.596,0.781-0.596,1.326v0.272
	c0,0.599,0.198,1.064,0.596,1.405c0.395,0.339,0.915,0.509,1.551,0.509c0.523,0,0.975-0.095,1.355-0.289
	c0.174-0.088,0.323-0.19,0.451-0.301c0.129-0.114,0.228-0.22,0.292-0.331h0.014v0.822h0.819V75.95c0-0.676-0.215-1.202-0.641-1.575
	C141.664,74.002,141.077,73.816,140.324,73.816 M141.899,78.547c0,0.256-0.06,0.47-0.178,0.64c-0.121,0.171-0.274,0.313-0.455,0.427
	c-0.2,0.124-0.405,0.221-0.619,0.288c-0.216,0.064-0.455,0.099-0.722,0.099c-0.175,0-0.345-0.024-0.515-0.069
	c-0.171-0.044-0.325-0.118-0.459-0.217c-0.136-0.101-0.246-0.225-0.331-0.378c-0.082-0.152-0.121-0.338-0.121-0.555v-0.195
	c0-0.349,0.117-0.629,0.36-0.848c0.238-0.213,0.629-0.322,1.166-0.322h1.874V78.547z"/>
<rect x="144.799" y="71.245" fill="#262523" width="0.847" height="9.39"/>
<path fill="#262523" d="M159.99,73.816c-0.265,0-0.506,0.035-0.727,0.11c-0.22,0.075-0.412,0.171-0.583,0.284
	c-0.171,0.117-0.313,0.248-0.435,0.391c-0.12,0.146-0.217,0.288-0.291,0.431c-0.149-0.388-0.391-0.689-0.723-0.898
	c-0.33-0.214-0.765-0.317-1.302-0.317c-0.249,0-0.473,0.028-0.664,0.085c-0.196,0.06-0.37,0.14-0.53,0.238
	c-0.156,0.096-0.293,0.215-0.401,0.341c-0.115,0.129-0.207,0.257-0.281,0.391V73.94h-0.832v6.694h0.847v-4.348
	c0-0.198,0.035-0.396,0.109-0.596c0.075-0.2,0.184-0.381,0.331-0.548c0.142-0.164,0.324-0.299,0.541-0.402
	c0.213-0.104,0.458-0.155,0.731-0.155c0.295,0,0.545,0.041,0.736,0.123c0.196,0.08,0.348,0.203,0.463,0.356
	c0.11,0.152,0.188,0.337,0.234,0.55c0.047,0.217,0.066,0.46,0.066,0.733v4.286h0.848v-4.397c0.008-0.19,0.05-0.387,0.128-0.582
	c0.079-0.2,0.192-0.378,0.338-0.537c0.142-0.157,0.32-0.284,0.527-0.385c0.206-0.099,0.446-0.147,0.722-0.147
	c0.295,0,0.544,0.041,0.736,0.123c0.193,0.08,0.348,0.203,0.457,0.356c0.115,0.152,0.193,0.337,0.24,0.55
	c0.045,0.217,0.066,0.46,0.066,0.733v4.286h0.844v-4.51c0-0.711-0.176-1.273-0.527-1.69
	C161.308,74.022,160.754,73.816,159.99,73.816"/>
<path fill="#262523" d="M167.703,73.816c-0.516,0-0.963,0.078-1.349,0.235c-0.384,0.155-0.735,0.344-1.048,0.558l0.408,0.647
	c0.293-0.199,0.602-0.362,0.932-0.491c0.331-0.128,0.68-0.191,1.042-0.191c0.523,0,0.917,0.127,1.187,0.392
	c0.268,0.259,0.404,0.633,0.404,1.123v0.618h-1.886c-0.778,0-1.37,0.17-1.764,0.514c-0.398,0.337-0.597,0.781-0.597,1.326v0.272
	c0,0.599,0.198,1.064,0.597,1.405c0.394,0.339,0.914,0.509,1.55,0.509c0.523,0,0.975-0.095,1.355-0.289
	c0.175-0.088,0.324-0.19,0.451-0.301c0.129-0.114,0.229-0.22,0.293-0.331h0.012v0.822h0.82V75.95c0-0.676-0.214-1.202-0.641-1.575
	C169.044,74.002,168.457,73.816,167.703,73.816 M169.279,78.547c0,0.256-0.062,0.47-0.179,0.64
	c-0.121,0.171-0.274,0.313-0.454,0.427c-0.199,0.124-0.406,0.221-0.619,0.288C167.81,79.966,167.57,80,167.304,80
	c-0.174,0-0.345-0.024-0.516-0.069c-0.17-0.044-0.323-0.118-0.459-0.217c-0.135-0.101-0.245-0.225-0.33-0.378
	c-0.082-0.152-0.121-0.338-0.121-0.555v-0.195c0-0.349,0.117-0.629,0.359-0.848c0.237-0.213,0.629-0.322,1.166-0.322h1.875V78.547z"
	/>
<path fill="#262523" d="M175.986,73.816c-0.26,0-0.486,0.035-0.689,0.11s-0.389,0.174-0.549,0.299
	c-0.16,0.124-0.297,0.267-0.408,0.424c-0.113,0.155-0.207,0.312-0.281,0.469V73.94h-0.832v6.694h0.846v-3.803
	c0-0.313,0.039-0.604,0.124-0.867c0.082-0.268,0.203-0.494,0.36-0.684c0.156-0.191,0.349-0.342,0.572-0.447
	c0.221-0.107,0.47-0.16,0.742-0.16c0.308,0,0.578,0.046,0.809,0.135l0.26-0.857c-0.139-0.05-0.285-0.085-0.441-0.106
	C176.345,73.828,176.173,73.816,175.986,73.816"/>
<polygon fill="#262523" points="184.529,73.94 183.402,73.94 180.171,77.106 180.171,71.245 179.326,71.245 179.326,80.635 
	180.171,80.635 180.171,78.112 181.252,77.07 183.736,80.635 184.767,80.635 181.847,76.508 "/>
<path fill="#262523" d="M189.511,73.816c-0.848,0-1.508,0.264-1.995,0.793c-0.483,0.53-0.726,1.273-0.726,2.223v0.832
	c0,0.979,0.248,1.731,0.746,2.266c0.496,0.537,1.192,0.805,2.086,0.805c0.561,0,1.045-0.08,1.438-0.238
	c0.399-0.157,0.729-0.331,0.996-0.521l-0.372-0.646c-0.242,0.175-0.531,0.327-0.873,0.46c-0.337,0.134-0.732,0.197-1.177,0.197
	c-0.622,0-1.109-0.197-1.466-0.601c-0.354-0.401-0.532-0.974-0.532-1.722v-0.11h4.569v-0.697c0-0.941-0.231-1.686-0.69-2.229
	C191.058,74.087,190.385,73.816,189.511,73.816 M191.361,76.847h-3.724v-0.115c0-0.661,0.161-1.187,0.487-1.581
	c0.326-0.392,0.789-0.592,1.387-0.592c0.587,0,1.042,0.19,1.365,0.56c0.324,0.374,0.484,0.913,0.484,1.613V76.847z"/>
<path fill="#262523" d="M197.421,79.962c-0.342,0-0.584-0.088-0.727-0.273c-0.145-0.182-0.221-0.498-0.221-0.954V74.66h1.854v-0.72
	h-1.854v-1.728h-0.842v1.728h-1.143v0.72h1.143v4.109c0,0.364,0.035,0.669,0.107,0.914c0.066,0.243,0.174,0.442,0.315,0.59
	c0.14,0.147,0.32,0.258,0.541,0.321c0.218,0.068,0.472,0.101,0.761,0.101c0.185,0,0.383-0.016,0.604-0.043
	c0.217-0.028,0.396-0.067,0.526-0.117l-0.125-0.697C198.064,79.923,197.751,79.962,197.421,79.962"/>
<rect x="201.169" y="71.717" fill="#262523" width="0.921" height="0.943"/>
<rect x="201.208" y="73.94" fill="#262523" width="0.843" height="6.694"/>
<path fill="#262523" d="M208.198,73.816c-0.265,0-0.506,0.028-0.72,0.093c-0.217,0.06-0.408,0.143-0.584,0.241
	c-0.174,0.1-0.322,0.214-0.446,0.342c-0.125,0.129-0.226,0.256-0.299,0.379V73.94h-0.833v6.694h0.847v-4.348
	c0-0.198,0.046-0.396,0.142-0.596c0.097-0.2,0.225-0.381,0.392-0.548c0.164-0.164,0.367-0.299,0.601-0.402
	c0.238-0.104,0.495-0.155,0.78-0.155c0.33,0,0.604,0.044,0.824,0.137c0.217,0.089,0.391,0.217,0.521,0.377
	c0.127,0.165,0.219,0.349,0.266,0.559c0.05,0.213,0.074,0.438,0.074,0.68v4.297h0.848v-4.51c0-0.705-0.211-1.264-0.626-1.683
	C209.563,74.025,208.968,73.816,208.198,73.816"/>
<path fill="#262523" d="M218.144,74.758c-0.174-0.248-0.428-0.465-0.764-0.656c-0.335-0.188-0.751-0.285-1.248-0.285
	c-0.382,0-0.732,0.063-1.061,0.193c-0.327,0.127-0.608,0.312-0.848,0.558c-0.233,0.245-0.418,0.544-0.551,0.898
	c-0.131,0.356-0.199,0.762-0.199,1.218v1.055c0,0.456,0.068,0.861,0.199,1.217c0.133,0.359,0.321,0.658,0.559,0.904
	c0.242,0.242,0.523,0.43,0.848,0.558c0.32,0.128,0.675,0.192,1.066,0.192c0.388,0,0.768-0.078,1.135-0.238
	c0.369-0.157,0.646-0.406,0.839-0.743h0.015v0.917c0,0.704-0.16,1.223-0.48,1.562c-0.32,0.335-0.79,0.502-1.408,0.502
	c-0.191,0-0.367-0.006-0.523-0.026c-0.156-0.016-0.309-0.045-0.451-0.092c-0.146-0.046-0.289-0.104-0.43-0.174
	c-0.14-0.07-0.289-0.161-0.449-0.266l-0.383,0.656c0.28,0.214,0.606,0.384,0.973,0.509c0.371,0.124,0.791,0.186,1.264,0.186
	c0.836,0,1.501-0.242,1.992-0.726c0.492-0.484,0.738-1.203,0.738-2.156V73.94h-0.832V74.758z M218.134,78.112
	c0,0.299-0.054,0.558-0.156,0.776c-0.104,0.22-0.242,0.401-0.416,0.547s-0.381,0.254-0.615,0.324
	c-0.235,0.067-0.491,0.103-0.766,0.103c-0.562,0-1.014-0.192-1.351-0.583c-0.342-0.387-0.509-0.943-0.509-1.665v-0.808
	c0-0.711,0.167-1.262,0.501-1.656c0.334-0.393,0.789-0.592,1.358-0.592c0.28,0,0.545,0.051,0.782,0.15
	c0.243,0.1,0.449,0.231,0.623,0.391c0.175,0.164,0.31,0.342,0.401,0.533c0.097,0.196,0.146,0.393,0.146,0.592V78.112z"/>
<path fill="#262523" d="M230.199,79.77c-0.304,0.129-0.688,0.192-1.15,0.192c-0.596,0-1.07-0.199-1.415-0.593
	c-0.349-0.4-0.522-0.969-0.522-1.705v-0.856c0-0.704,0.17-1.252,0.508-1.644c0.343-0.395,0.809-0.59,1.404-0.59
	c0.314,0,0.616,0.039,0.908,0.115c0.287,0.08,0.59,0.227,0.907,0.443l0.384-0.658c-0.281-0.217-0.602-0.381-0.958-0.49
	c-0.354-0.115-0.771-0.168-1.241-0.168c-0.416,0-0.791,0.064-1.13,0.199c-0.342,0.131-0.63,0.324-0.866,0.576
	c-0.244,0.253-0.432,0.564-0.566,0.943c-0.141,0.375-0.206,0.811-0.206,1.297v0.832c0,0.979,0.245,1.731,0.731,2.267
	c0.487,0.537,1.17,0.803,2.049,0.803c0.299,0,0.568-0.024,0.807-0.066c0.242-0.048,0.456-0.107,0.648-0.175
	c0.188-0.071,0.359-0.153,0.508-0.244c0.149-0.09,0.285-0.184,0.41-0.272l-0.399-0.673C230.77,79.484,230.5,79.642,230.199,79.77"/>
<path fill="#262523" d="M236.478,73.816c-0.903,0-1.604,0.264-2.098,0.785c-0.498,0.527-0.748,1.281-0.748,2.256v0.832
	c0,0.971,0.25,1.718,0.748,2.248c0.494,0.529,1.194,0.797,2.098,0.797c0.9,0,1.601-0.268,2.099-0.797
	c0.494-0.53,0.743-1.277,0.743-2.248v-0.832c0-0.967-0.249-1.717-0.743-2.248C238.079,74.08,237.378,73.816,236.478,73.816
	 M238.462,77.639c0,0.797-0.174,1.389-0.525,1.771c-0.352,0.384-0.84,0.577-1.459,0.577c-0.622,0-1.11-0.193-1.461-0.577
	c-0.354-0.383-0.526-0.975-0.526-1.771v-0.732c0-0.792,0.173-1.383,0.526-1.766c0.351-0.389,0.839-0.582,1.461-0.582
	c0.619,0,1.107,0.193,1.459,0.582c0.352,0.383,0.525,0.974,0.525,1.766V77.639z"/>
<path fill="#262523" d="M249.003,73.816c-0.262,0-0.504,0.035-0.725,0.11s-0.412,0.171-0.583,0.284
	c-0.171,0.117-0.313,0.248-0.433,0.391c-0.123,0.146-0.219,0.288-0.293,0.431c-0.149-0.388-0.392-0.689-0.723-0.898
	c-0.33-0.214-0.764-0.317-1.301-0.317c-0.249,0-0.475,0.028-0.665,0.085c-0.196,0.06-0.37,0.14-0.53,0.238
	c-0.156,0.096-0.292,0.215-0.402,0.341c-0.113,0.129-0.205,0.257-0.28,0.391V73.94h-0.832v6.694h0.846v-4.348
	c0-0.198,0.037-0.396,0.11-0.596c0.074-0.2,0.186-0.381,0.332-0.548c0.141-0.164,0.322-0.299,0.539-0.402
	c0.214-0.104,0.459-0.155,0.732-0.155c0.295,0,0.545,0.041,0.736,0.123c0.195,0.08,0.35,0.203,0.463,0.356
	c0.109,0.152,0.189,0.337,0.234,0.55c0.047,0.217,0.067,0.46,0.067,0.733v4.286h0.847v-4.397c0.008-0.19,0.051-0.387,0.129-0.582
	c0.078-0.2,0.191-0.378,0.337-0.537c0.143-0.157,0.319-0.284,0.528-0.385c0.205-0.099,0.446-0.147,0.722-0.147
	c0.295,0,0.544,0.041,0.735,0.123c0.195,0.08,0.348,0.203,0.459,0.356c0.113,0.152,0.19,0.337,0.238,0.55
	c0.046,0.217,0.067,0.46,0.067,0.733v4.286h0.843v-4.51c0-0.711-0.175-1.273-0.527-1.69
	C250.324,74.022,249.769,73.816,249.003,73.816"/>
<path fill="#262523" d="M259.152,74.566c-0.232-0.245-0.514-0.431-0.837-0.557c-0.327-0.129-0.688-0.193-1.088-0.193
	c-0.423,0-0.813,0.094-1.173,0.277c-0.359,0.189-0.641,0.451-0.84,0.79V73.94h-0.832v9.351h0.846v-3.453h0.012
	c0.182,0.24,0.44,0.451,0.778,0.63c0.334,0.177,0.737,0.266,1.209,0.266c0.38,0,0.735-0.063,1.063-0.191
	c0.323-0.132,0.607-0.317,0.842-0.563c0.236-0.241,0.42-0.543,0.553-0.898c0.135-0.355,0.197-0.762,0.197-1.217v-1.181
	c0-0.455-0.063-0.861-0.19-1.217S259.382,74.812,259.152,74.566 M259.041,77.738c0,0.713-0.166,1.267-0.504,1.657
	c-0.334,0.396-0.787,0.591-1.359,0.591c-0.288,0-0.553-0.047-0.789-0.135c-0.235-0.092-0.442-0.214-0.616-0.359
	c-0.17-0.149-0.306-0.319-0.401-0.504c-0.096-0.186-0.143-0.378-0.143-0.576v-1.963c0-0.3,0.057-0.563,0.174-0.791
	c0.114-0.228,0.268-0.42,0.452-0.584c0.188-0.158,0.396-0.285,0.626-0.364c0.234-0.082,0.466-0.124,0.697-0.124
	c0.572,0,1.025,0.19,1.359,0.57c0.338,0.383,0.504,0.933,0.504,1.651V77.738z"/>
<path fill="#262523" d="M265.027,73.816c-0.516,0-0.965,0.078-1.348,0.235c-0.385,0.155-0.736,0.344-1.05,0.558l0.409,0.647
	c0.292-0.199,0.602-0.362,0.932-0.491c0.331-0.128,0.678-0.191,1.043-0.191c0.521,0,0.916,0.127,1.187,0.392
	c0.268,0.259,0.401,0.633,0.401,1.123v0.618h-1.884c-0.778,0-1.37,0.17-1.765,0.514c-0.398,0.337-0.598,0.781-0.598,1.326v0.272
	c0,0.599,0.199,1.064,0.598,1.405c0.395,0.339,0.914,0.509,1.551,0.509c0.523,0,0.975-0.095,1.355-0.289
	c0.175-0.088,0.324-0.19,0.451-0.301c0.129-0.114,0.228-0.22,0.291-0.331h0.016v0.822h0.818V75.95c0-0.676-0.215-1.202-0.642-1.575
	C266.368,74.002,265.781,73.816,265.027,73.816 M266.601,78.547c0,0.256-0.06,0.47-0.178,0.64c-0.119,0.171-0.273,0.313-0.455,0.427
	c-0.199,0.124-0.406,0.221-0.619,0.288c-0.216,0.064-0.455,0.099-0.722,0.099c-0.174,0-0.345-0.024-0.517-0.069
	c-0.17-0.044-0.322-0.118-0.457-0.217c-0.135-0.101-0.246-0.225-0.331-0.378c-0.082-0.152-0.121-0.338-0.121-0.555v-0.195
	c0-0.349,0.116-0.629,0.36-0.848c0.237-0.213,0.629-0.322,1.166-0.322h1.873V78.547z"/>
<path fill="#262523" d="M273.435,73.816c-0.265,0-0.506,0.028-0.72,0.093c-0.216,0.06-0.409,0.143-0.583,0.241
	c-0.173,0.1-0.324,0.214-0.447,0.342c-0.125,0.129-0.225,0.256-0.299,0.379V73.94h-0.834v6.694h0.848v-4.348
	c0-0.198,0.047-0.396,0.142-0.596c0.097-0.2,0.224-0.381,0.392-0.548c0.164-0.164,0.366-0.299,0.602-0.402
	c0.238-0.104,0.494-0.155,0.777-0.155c0.332,0,0.605,0.044,0.826,0.137c0.217,0.089,0.391,0.217,0.52,0.377
	c0.128,0.165,0.22,0.349,0.267,0.559c0.05,0.213,0.074,0.438,0.074,0.68v4.297h0.847v-4.51c0-0.705-0.211-1.264-0.625-1.683
	C274.799,74.025,274.207,73.816,273.435,73.816"/>
<polygon fill="#262523" points="281.184,79.688 279.111,73.939 278.24,73.939 280.75,80.744 279.892,83.142 280.611,83.4 
	284.089,73.939 283.221,73.939 "/>
</svg>
