<svg xmlns="http://www.w3.org/2000/svg" viewBox="0 0 287.08 82.52"><defs><style>.cls-1{fill:#262523;}</style></defs><g id="레이어_2" data-name="레이어 2"><g id="Layer_1" data-name="Layer 1"><path class="cls-1" d="M47.86,75.4a2.23,2.23,0,0,0-.86-.63,2.82,2.82,0,0,0-1.09-.21,2.59,2.59,0,0,0-1.43.4,2.66,2.66,0,0,0-1,1.18A4.32,4.32,0,0,0,43.11,78a4.27,4.27,0,0,0,.37,1.87,2.66,2.66,0,0,0,1,1.18,2.6,2.6,0,0,0,1.43.41A2.66,2.66,0,0,0,47,81.26a2.23,2.23,0,0,0,.86-.63,2.17,2.17,0,0,0,.47-1h1.09a3.42,3.42,0,0,1-.65,1.52,3.22,3.22,0,0,1-1.23,1,3.84,3.84,0,0,1-1.63.34,3.62,3.62,0,0,1-3.36-2.11A5.29,5.29,0,0,1,42.06,78a5.37,5.37,0,0,1,.49-2.37,3.62,3.62,0,0,1,3.36-2.11,3.91,3.91,0,0,1,1.62.34,3.32,3.32,0,0,1,1.24,1,3.41,3.41,0,0,1,.65,1.53H48.33A2.16,2.16,0,0,0,47.86,75.4Z"/><path class="cls-1" d="M54,73.66h1.08v3.87H59.7V73.66h1.09v8.71H59.7V78.48H55.09v3.89H54Z"/><path class="cls-1" d="M65.79,73.66h5.28v1h-4.2v2.91h3.92v1H66.87v2.93h4.26v1H65.79Z"/><path class="cls-1" d="M82.73,80.38a3.77,3.77,0,0,1-5.35,1.56A3.67,3.67,0,0,1,76,80.38,5.29,5.29,0,0,1,75.52,78,5.37,5.37,0,0,1,76,75.65a3.67,3.67,0,0,1,1.37-1.56,3.71,3.71,0,0,1,5.35,1.56,5.37,5.37,0,0,1,.5,2.37A5.29,5.29,0,0,1,82.73,80.38Zm-.93-4.24a2.7,2.7,0,0,0-1-1.18,2.65,2.65,0,0,0-1.44-.4,2.59,2.59,0,0,0-1.43.4,2.72,2.72,0,0,0-1,1.18A4.47,4.47,0,0,0,76.57,78a4.42,4.42,0,0,0,.37,1.87,2.72,2.72,0,0,0,1,1.18,2.6,2.6,0,0,0,1.43.41,2.66,2.66,0,0,0,1.44-.41,2.7,2.7,0,0,0,1-1.18A4.27,4.27,0,0,0,82.17,78,4.32,4.32,0,0,0,81.8,76.14Z"/><path class="cls-1" d="M94.8,82.37h-1l-4.71-6.78H89v6.78H87.89V73.66h1l4.72,6.8h.09v-6.8H94.8Z"/><path class="cls-1" d="M100.29,73.66l2.4,4h.1l2.4-4h1.24l-3.14,5.14v3.57H102.2V78.8l-3.15-5.14Z"/><path class="cls-1" d="M112,73.66l2.93,7.17h.1L118,73.66h1.3v8.71h-1V75.8h-.09l-2.7,6.57h-1l-2.71-6.58h-.07v6.58h-1V73.66Z"/><path class="cls-1" d="M124.75,73.66l2.4,4h.1l2.4-4h1.24l-3.14,5.14v3.57h-1.09V78.8l-3.15-5.14Z"/><path class="cls-1" d="M135.14,73.66h5.28v1h-4.2v2.91h3.92v1h-3.92v2.93h4.26v1h-5.34Z"/><path class="cls-1" d="M152.08,80.38a3.55,3.55,0,0,1-1.37,1.56,3.6,3.6,0,0,1-2,.55,3.64,3.64,0,0,1-2-.55,3.59,3.59,0,0,1-1.36-1.56,5.29,5.29,0,0,1-.5-2.36,5.37,5.37,0,0,1,.5-2.37,3.59,3.59,0,0,1,1.36-1.56,3.64,3.64,0,0,1,2-.55,3.6,3.6,0,0,1,2,.55,3.55,3.55,0,0,1,1.37,1.56,5.37,5.37,0,0,1,.5,2.37A5.29,5.29,0,0,1,152.08,80.38Zm-.92-4.24a2.79,2.79,0,0,0-1-1.18,2.77,2.77,0,0,0-2.87,0,2.79,2.79,0,0,0-1,1.18,4.47,4.47,0,0,0-.36,1.88,4.42,4.42,0,0,0,.36,1.87,2.79,2.79,0,0,0,1,1.18,2.72,2.72,0,0,0,2.87,0,2.79,2.79,0,0,0,1-1.18,4.42,4.42,0,0,0,.36-1.87A4.47,4.47,0,0,0,151.16,76.14Z"/><path class="cls-1" d="M164.15,82.37h-1l-4.71-6.78h-.08v6.78h-1.08V73.66h1l4.72,6.8h.09v-6.8h1.06Z"/><path class="cls-1" d="M174.56,75.41a2.14,2.14,0,0,0-.83-.63,2.76,2.76,0,0,0-2.51.18,2.81,2.81,0,0,0-1,1.19,4.42,4.42,0,0,0-.36,1.87,4.27,4.27,0,0,0,.37,1.87,2.68,2.68,0,0,0,1,1.18,2.64,2.64,0,0,0,1.45.41,2.67,2.67,0,0,0,1.31-.32,2.18,2.18,0,0,0,.88-.9,2.86,2.86,0,0,0,.32-1.37l.32.07h-2.6V78h3.33v.93a3.78,3.78,0,0,1-.45,1.87,3.16,3.16,0,0,1-1.27,1.24,4.1,4.1,0,0,1-3.88-.1,3.64,3.64,0,0,1-1.36-1.56,5.37,5.37,0,0,1-.49-2.37,5.31,5.31,0,0,1,.49-2.37,3.56,3.56,0,0,1,3.33-2.11,3.81,3.81,0,0,1,1.66.36,3.36,3.36,0,0,1,1.26,1,3.55,3.55,0,0,1,.66,1.48h-1.12A2.84,2.84,0,0,0,174.56,75.41Z"/><path class="cls-1" d="M191.57,75.13a1.6,1.6,0,0,0-.68-.47,2.82,2.82,0,0,0-.95-.16,2.57,2.57,0,0,0-1,.19,1.52,1.52,0,0,0-.67.51,1.21,1.21,0,0,0-.24.73,1,1,0,0,0,.49.93,4,4,0,0,0,1.19.5l.87.24a6.79,6.79,0,0,1,1.15.41,2.54,2.54,0,0,1,.92.75,1.94,1.94,0,0,1,.39,1.24,2.37,2.37,0,0,1-.37,1.29,2.57,2.57,0,0,1-1.09.9,4.51,4.51,0,0,1-3.31,0,2.64,2.64,0,0,1-1.09-.84,2.42,2.42,0,0,1-.44-1.27h1.11a1.35,1.35,0,0,0,.33.79,1.53,1.53,0,0,0,.72.48,3,3,0,0,0,2.06,0,1.71,1.71,0,0,0,.75-.55A1.32,1.32,0,0,0,192,80a1,1,0,0,0-.22-.67,1.66,1.66,0,0,0-.59-.44,6.72,6.72,0,0,0-.91-.32l-1.06-.3a3.78,3.78,0,0,1-1.65-.86A1.88,1.88,0,0,1,187,76a2.15,2.15,0,0,1,.39-1.27,2.51,2.51,0,0,1,1.08-.86,3.72,3.72,0,0,1,1.52-.31,3.65,3.65,0,0,1,1.5.3,2.58,2.58,0,0,1,1.05.83,2.1,2.1,0,0,1,.4,1.19h-1.05A1.42,1.42,0,0,0,191.57,75.13Z"/><path class="cls-1" d="M197.2,73.66h6.56v1H201v7.75h-1.09V74.62H197.2Z"/><path class="cls-1" d="M215.07,73.66v5.76a3,3,0,0,1-.43,1.6,2.82,2.82,0,0,1-1.19,1.1,4.16,4.16,0,0,1-3.56,0A2.88,2.88,0,0,1,208.7,81a3.06,3.06,0,0,1-.42-1.6V73.66h1.08v5.68a2.19,2.19,0,0,0,.28,1.12,2,2,0,0,0,.8.77,2.84,2.84,0,0,0,2.46,0,1.92,1.92,0,0,0,.8-.77,2.19,2.19,0,0,0,.28-1.12V73.66Z"/><path class="cls-1" d="M221.15,82.37h-1.08V73.66h1.08Zm-.48,0v-1h2a3.5,3.5,0,0,0,1.76-.41,2.51,2.51,0,0,0,1.06-1.17,4.39,4.39,0,0,0,.35-1.83,4.3,4.3,0,0,0-.35-1.81,2.52,2.52,0,0,0-1-1.16,3.28,3.28,0,0,0-1.69-.41h-2.19v-1h2.26a4.35,4.35,0,0,1,2.17.52,3.42,3.42,0,0,1,1.39,1.5,5.19,5.19,0,0,1,.48,2.32,5.25,5.25,0,0,1-.48,2.34A3.46,3.46,0,0,1,225,81.85a4.51,4.51,0,0,1-2.25.52Z"/><path class="cls-1" d="M232.66,82.37h-1.08V73.66h1.08Z"/><path class="cls-1" d="M244.53,80.38a3.55,3.55,0,0,1-1.37,1.56,3.6,3.6,0,0,1-2,.55,3.67,3.67,0,0,1-2-.55,3.59,3.59,0,0,1-1.36-1.56,5.29,5.29,0,0,1-.5-2.36,5.37,5.37,0,0,1,.5-2.37,3.59,3.59,0,0,1,1.36-1.56,3.67,3.67,0,0,1,2-.55,3.6,3.6,0,0,1,2,.55,3.55,3.55,0,0,1,1.37,1.56A5.37,5.37,0,0,1,245,78,5.29,5.29,0,0,1,244.53,80.38Zm-.92-4.24a2.79,2.79,0,0,0-1-1.18,2.77,2.77,0,0,0-2.87,0,2.79,2.79,0,0,0-1,1.18,4.47,4.47,0,0,0-.36,1.88,4.42,4.42,0,0,0,.36,1.87,2.79,2.79,0,0,0,1,1.18,2.72,2.72,0,0,0,2.87,0,2.79,2.79,0,0,0,1-1.18A4.42,4.42,0,0,0,244,78,4.47,4.47,0,0,0,243.61,76.14Z"/><path class="cls-1" d="M52,58.39a31.87,31.87,0,0,0,7.08-7.3,33.45,33.45,0,0,0,4.55-9.22H50.52a16.37,16.37,0,0,1-6.87,8,20,20,0,0,1-11,3.19,20.32,20.32,0,0,1-7.95-1.57,20.05,20.05,0,0,1-6.56-4.37,21.36,21.36,0,0,1-4.46-6.55,20,20,0,0,1-1.66-8.13,20.38,20.38,0,0,1,1.53-7.83,19.79,19.79,0,0,1,4.33-6.51,19.5,19.5,0,0,1,6.51-4.54,20.32,20.32,0,0,1,8.26-1.66,18.33,18.33,0,0,1,5.9,1,23.92,23.92,0,0,1,5.2,2.45,20.66,20.66,0,0,1,4.11,3.58,16.67,16.67,0,0,1,2.71,4.2h13a33.37,33.37,0,0,0-4.55-9.23A32.07,32.07,0,0,0,52,6.55a32.64,32.64,0,0,0-9-4.8A31.07,31.07,0,0,0,32.6,0,31.45,31.45,0,0,0,19.93,2.58a34.33,34.33,0,0,0-10.41,7A32,32,0,0,0,0,32.43a32,32,0,0,0,9.52,23,32.74,32.74,0,0,0,10.41,7A32.84,32.84,0,0,0,43,63.24,30.78,30.78,0,0,0,52,58.39Z"/><polygon class="cls-1" points="216.03 63.37 216.03 1.57 199.68 1.57 184.29 47.2 168.82 1.57 152.57 1.57 152.57 53.62 144.11 53.62 144.11 63.37 152.57 63.37 161.03 63.37 165.07 63.37 165.07 24.47 178.27 63.37 190.32 63.37 203.53 23.69 203.53 63.37 216.03 63.37"/><path class="cls-1" d="M284.55,19.84a31.68,31.68,0,0,0-7-10.31,32.55,32.55,0,0,0-10.4-7,32.8,32.8,0,0,0-23.08-.84,31,31,0,0,0-9,4.85,32,32,0,0,0-7.07,7.3,33.4,33.4,0,0,0-4.56,9.23h13.12a16.27,16.27,0,0,1,6.86-8,20.05,20.05,0,0,1,11-3.19,20.49,20.49,0,0,1,14.51,5.94,21.56,21.56,0,0,1,4.45,6.56A19.79,19.79,0,0,1,275,32.51a20.38,20.38,0,0,1-1.53,7.83,19.63,19.63,0,0,1-4.33,6.51,19.42,19.42,0,0,1-6.5,4.54,20.43,20.43,0,0,1-8.26,1.67,18.08,18.08,0,0,1-5.91-1,24.06,24.06,0,0,1-5.19-2.44,20.42,20.42,0,0,1-4.11-3.59,17.14,17.14,0,0,1-2.72-4.19h-13A33.48,33.48,0,0,0,228,51.09a31.83,31.83,0,0,0,7.07,7.3,32.93,32.93,0,0,0,9,4.8,31.07,31.07,0,0,0,10.4,1.75,31.46,31.46,0,0,0,12.68-2.58,33.8,33.8,0,0,0,10.4-7,32,32,0,0,0,9.52-22.9A32,32,0,0,0,284.55,19.84Z"/><polygon class="cls-1" points="83.91 24.47 97.11 63.37 109.17 63.37 122.36 23.69 122.36 63.37 134.87 63.37 134.87 11.32 144.11 11.32 144.11 1.57 134.87 1.57 133.48 1.57 118.52 1.57 103.13 47.2 87.66 1.57 71.41 1.57 71.41 63.37 83.91 63.37 83.91 24.47"/></g></g></svg>