<?xml version="1.0" encoding="utf-8"?>
<!-- Generator: Adobe Illustrator 16.0.0, SVG Export Plug-In . SVG Version: 6.00 Build 0)  -->
<!DOCTYPE svg PUBLIC "-//W3C//DTD SVG 1.1//EN" "http://www.w3.org/Graphics/SVG/1.1/DTD/svg11.dtd">
<svg version="1.1" id="Layer_1" xmlns="http://www.w3.org/2000/svg" xmlns:xlink="http://www.w3.org/1999/xlink" x="0px" y="0px"
	 width="287.259px" height="106.017px" viewBox="0 0 287.259 106.017" enable-background="new 0 0 287.259 106.017"
	 xml:space="preserve">
<path fill="#262523" d="M99.791,46.768c2.502-0.995,5.369-1.494,8.601-1.494v13.809c-1.401-0.16-2.56-0.241-3.474-0.241
	c-3.283,0-5.854,0.888-7.713,2.665c-1.856,1.776-2.785,4.495-2.785,8.155V89.77H79.076V46.001h14.617v5.248
	C95.255,49.259,97.286,47.765,99.791,46.768"/>
<path fill="#262523" d="M124.07,87.59c-3.77-1.939-6.717-4.631-8.843-8.076c-2.127-3.445-3.189-7.35-3.189-11.709
	c0-4.308,1.063-8.184,3.189-11.629c2.126-3.444,5.061-6.123,8.802-8.035c3.742-1.91,7.981-2.867,12.72-2.867
	c4.737,0,8.989,0.957,12.76,2.867c3.767,1.912,6.702,4.577,8.802,7.995c2.101,3.42,3.15,7.308,3.15,11.669
	c0,4.359-1.05,8.264-3.15,11.709c-2.1,3.445-5.035,6.137-8.802,8.076c-3.771,1.938-8.022,2.906-12.76,2.906
	C132.064,90.496,127.839,89.527,124.07,87.59 M143.371,75.517c1.723-1.858,2.584-4.427,2.584-7.712c0-3.23-0.861-5.761-2.584-7.591
	c-1.725-1.83-3.931-2.746-6.622-2.746c-2.692,0-4.899,0.916-6.622,2.746s-2.584,4.36-2.584,7.591c0,3.285,0.861,5.854,2.584,7.712
	c1.723,1.856,3.93,2.786,6.622,2.786C139.44,78.303,141.646,77.373,143.371,75.517"/>
<polygon fill="#262523" points="238.054,46 222.467,89.77 207.609,89.77 199.371,65.946 190.812,89.77 175.952,89.77 160.366,46 
	174.902,46 183.866,72.487 193.153,46 206.235,46 215.28,72.73 224.567,46 "/>
<polygon fill="#262523" points="252.428,65.625 242.648,62.584 250.418,37.599 224.804,38.066 224.616,27.827 264.406,27.102 "/>
<rect x="241.702" y="4.185" transform="matrix(0.3128 0.9498 -0.9498 0.3128 180.4965 -230.8785)" fill="#262523" width="16.219" height="10.24"/>
<rect x="269.222" y="42" transform="matrix(0.8049 0.5934 -0.5934 0.8049 82.1124 -155.5015)" fill="#262523" width="16.621" height="10.24"/>
<rect x="272.284" y="9.946" transform="matrix(0.5806 0.8142 -0.8142 0.5806 131.0823 -218.2617)" fill="#262523" width="10.24" height="16.324"/>
<path fill="#262523" d="M56.941,46.072v5.313c-2.895-4.021-7.452-6.034-13.679-6.034c-3.86,0-7.428,0.873-10.7,2.619
	c-3.273,1.736-5.874,4.212-7.804,7.4c-1.931,3.189-2.896,6.849-2.896,10.985c0,4.179,0.965,7.872,2.896,11.061
	c1.93,3.189,4.53,5.656,7.804,7.402c0.462,0.243,0.924,0.469,1.394,0.679c2.887,1.293,5.983,1.939,9.307,1.939
	c5.689,0,10.003-1.721,12.957-5.153v1.452c0,3.483-0.94,6.109-2.819,7.88c-1.88,1.771-4.826,2.66-8.846,2.66
	c-2.636,0-5.304-0.419-8.006-1.25c-2.174-0.671-4.054-1.536-5.622-2.61l-6.261,10.154c2.56,1.754,5.614,3.089,9.181,4.003
	c3.76,0.965,7.779,1.444,12.075,1.444c8.259,0,14.587-2.023,18.983-6.076c4.397-4.045,6.604-10.121,6.604-18.219V46.072H56.941z
	 M53.686,72.792c-1.796,1.662-4.063,2.492-6.798,2.492c-2.173,0-4.07-0.527-5.664-1.577c-0.411-0.269-0.807-0.579-1.175-0.915
	c-1.829-1.662-2.736-3.81-2.736-6.437c0-2.635,0.897-4.766,2.693-6.403c1.797-1.636,4.088-2.45,6.882-2.45
	c2.786,0,5.068,0.814,6.84,2.45c1.77,1.638,2.651,3.769,2.651,6.403C56.379,68.982,55.481,71.13,53.686,72.792"/>
<polygon fill="#262523" points="14.098,94.044 0,85.356 6.282,75.198 20.378,83.886 "/>
</svg>
