<?xml version="1.0" encoding="utf-8"?>
<!-- Generator: Adobe Illustrator 16.0.0, SVG Export Plug-In . SVG Version: 6.00 Build 0)  -->
<!DOCTYPE svg PUBLIC "-//W3C//DTD SVG 1.1//EN" "http://www.w3.org/Graphics/SVG/1.1/DTD/svg11.dtd">
<svg version="1.1" xmlns="http://www.w3.org/2000/svg" xmlns:xlink="http://www.w3.org/1999/xlink" x="0px" y="0px"
	 width="536.431px" height="64px" viewBox="0 0 536.431 64" enable-background="new 0 0 536.431 64" xml:space="preserve">
<g id="Layer_2" display="none">
	<rect x="0.01" y="-0.091" display="inline" fill="#CAC634" width="536.411" height="64.182"/>
</g>
<g id="Layer_1">
	<g>
		<polygon fill="#262523" points="321.893,51.213 350.641,12.993 350.842,12.724 350.859,0.618 305.658,0.618 305.686,12.788 
			334.646,12.788 305.699,51.275 305.682,63.383 350.881,63.383 350.855,51.213 		"/>
		<polygon fill="#262523" points="404.041,38.086 404.014,25.916 374.842,25.916 374.822,12.788 404.027,12.788 404.002,0.618 
			360.445,0.618 360.469,63.383 404.029,63.383 404.002,51.213 374.803,51.213 374.861,38.086 		"/>
		<path fill="#262523" d="M466.506,20.144l0.002-2.905c0.002-4.582-2.053-9.063-5.639-12.292c-3.098-2.792-7.211-4.329-11.582-4.329
			h-35.195l0.023,62.765h14.354l-0.031-20.131l12.486-3.146l12.043,23.277h15.965l-14.209-27.186
			C461.889,33.475,466.504,27.205,466.506,20.144 M428.465,12.788h19.475c1.141,0,2.211,0.444,3.018,1.251
			c0.805,0.806,1.248,1.878,1.248,3.019l-0.004,2.224c-0.006,2.853-1.918,5.401-4.875,6.511l-18.896,4.385L428.465,12.788z"/>
		<path fill="#262523" d="M504.176,0.618c-17.305,0-31.383,14.078-31.383,31.383c0,17.304,14.078,31.382,31.383,31.382
			S535.559,49.305,535.559,32C535.559,14.696,521.48,0.618,504.176,0.618 M519.475,32c0,8.435-6.863,15.298-15.299,15.298
			S488.877,40.436,488.877,32c0-8.436,6.863-15.299,15.299-15.299S519.475,23.565,519.475,32"/>
		<path fill="#262523" d="M44.231,32.897c-1.351-1.35-2.93-2.387-4.65-3.079c1.721-0.697,3.298-1.741,4.646-3.095
			c2.635-2.646,4.081-6.158,4.072-9.893l-0.005-2.293c-0.018-7.676-6.277-13.92-13.953-13.92H0.872l0.021,62.757h33.482
			c3.727,0,7.23-1.451,9.866-4.086c2.636-2.637,4.086-6.141,4.086-9.867v-6.65C48.327,39.039,46.872,35.533,44.231,32.897
			 M26.228,36.84c3.693-0.953,4.213-0.629,5.937,0.443c1.884,1.17,3.013,3.193,3.019,5.412l0.01,3.412
			c0.004,1.359-0.522,2.641-1.483,3.604c-0.961,0.965-2.24,1.496-3.601,1.496H13.995l-0.009-11.486L26.228,36.84z M35.178,16.919
			c-0.009,3.253-1.94,6.156-4.928,7.425l-16.271,3.414l0.034-14.972h17.043c1.103,0,2.14,0.431,2.919,1.211
			C34.754,14.779,35.181,15.817,35.178,16.919"/>
		<path fill="#262523" d="M103.758,19.377l0.001-2.852c0.001-4.248-1.653-8.244-4.657-11.248c-3.004-3.006-6.999-4.66-11.248-4.66
			H56.371l0.021,62.759h13.125l-0.028-19.564l11.499-2.748l10.393,22.313h14.554L93.122,36.15
			C99.616,33.098,103.756,26.626,103.758,19.377 M90.683,16.327c0,2.923-0.63,5.188-1.927,6.93c-1.125,1.51-2.767,2.673-5.163,3.657
			l-14.112,3.77l0.031-17.896h17.639c0.944,0,1.832,0.368,2.5,1.036S90.685,15.38,90.683,16.327"/>
		<polygon fill="#262523" points="205.177,0.618 205.195,38.432 184.482,0.618 170.901,0.618 170.923,63.377 184.047,63.377 
			184.029,25.561 204.742,63.377 218.323,63.377 218.301,0.618 		"/>
		<path fill="#262523" d="M258.287,0.617h-30.529l0.021,62.758h30.526c4.323,0,8.386-1.684,11.442-4.74
			c3.057-3.059,4.738-7.123,4.734-11.445l-0.016-30.404C274.459,7.87,267.202,0.617,258.287,0.617 M261.311,18.426V43.41
			c0.001,2.082-0.809,4.039-2.281,5.512c-1.473,1.475-3.43,2.285-5.513,2.285h-12.636l0.019-38.42h14.771
			C258.781,12.787,261.311,15.317,261.311,18.426"/>
		<path fill="#262523" d="M128.473,0.618l-16.891,62.759h13.093l3.008-12.018l18.172-4.754l4.18,16.771H163.4L146.594,0.618H128.473
			z M143.484,36.707l-13.103,3.188l7.084-26.008L143.484,36.707z"/>
	</g>
</g>
</svg>
