<?xml version="1.0" encoding="utf-8"?>
<!-- Generator: Adobe Illustrator 16.0.0, SVG Export Plug-In . SVG Version: 6.00 Build 0)  -->
<!DOCTYPE svg PUBLIC "-//W3C//DTD SVG 1.1//EN" "http://www.w3.org/Graphics/SVG/1.1/DTD/svg11.dtd">
<svg version="1.1" id="Layer_1" xmlns="http://www.w3.org/2000/svg" xmlns:xlink="http://www.w3.org/1999/xlink" x="0px" y="0px"
	 width="340.933px" height="103.352px" viewBox="0 0 340.933 103.352" enable-background="new 0 0 340.933 103.352"
	 xml:space="preserve">
<rect x="150.786" y="2.93" fill="#231815" width="1.418" height="13.403"/>
<path fill="#231815" d="M154.563,4.463c0-0.593,0.429-1.039,1.022-1.039c0.561,0,1.022,0.446,1.022,1.039
	c0,0.56-0.462,1.006-1.022,1.006C154.991,5.469,154.563,5.023,154.563,4.463 M156.294,16.333h-1.434V7.333h1.434V16.333z"/>
<polygon fill="#231815" points="161.965,14.851 162.246,13.861 164.637,7.333 166.12,7.333 162.608,16.333 161.307,16.333 
	157.794,7.333 159.278,7.333 161.668,13.861 "/>
<path fill="#231815" d="M171.101,7.119c2.406,0,3.824,1.516,3.824,4.236v0.677h-6.61v0.147c0.05,2.109,1.22,3.198,3.066,3.198
	c0.956,0,1.913-0.247,2.918-0.956c0.115-0.099,0.182-0.083,0.182,0.066v1.137c-0.906,0.709-1.995,0.907-3.298,0.907
	c-2.604,0-4.385-1.698-4.385-4.666C166.798,9.014,168.561,7.119,171.101,7.119 M168.331,10.959h5.094v-0.065
	c0-1.781-0.923-2.705-2.357-2.705c-1.368,0-2.474,1.04-2.736,2.688V10.959z"/>
<path fill="#231815" d="M186.765,14.488c0.116-0.116,0.181-0.099,0.181,0.065v1.104c-0.691,0.659-1.647,0.907-2.637,0.907
	c-2.753,0-4.6-1.567-4.6-4.666c0-2.885,1.747-4.78,4.566-4.78c0.956,0,1.912,0.247,2.605,0.823V9.08
	c0,0.164-0.066,0.197-0.183,0.066c-0.709-0.626-1.5-0.841-2.39-0.841c-2.044,0-3.083,1.633-3.083,3.577
	c0,2.061,1.055,3.512,3.198,3.512C185.33,15.394,186.072,15.13,186.765,14.488"/>
<path fill="#231815" d="M191.646,16.482c-2.885,0-4.188-2.127-4.188-4.683c0-2.703,1.417-4.681,4.188-4.681
	c2.77,0,4.187,1.978,4.187,4.681C195.833,14.355,194.531,16.482,191.646,16.482 M191.646,15.344c1.747,0,2.687-1.203,2.687-3.545
	c0-2.406-0.939-3.561-2.687-3.561c-1.748,0-2.688,1.154-2.688,3.561C188.958,14.141,189.898,15.344,191.646,15.344"/>
<path fill="#231815" d="M204.343,9.146h0.017c0.675-1.335,1.731-2.012,2.917-2.012c2.16,0,2.854,1.369,2.854,3.891v5.309h-1.402
	v-5.357c0-1.83-0.395-2.737-1.649-2.737c-1.268,0-2.488,1.336-2.488,3.132l-0.017,4.963h-1.368v-5.357
	c0-1.83-0.429-2.737-1.666-2.737c-1.269,0-2.521,1.336-2.521,3.132v4.963h-1.368V7.332h1.384l0.051,1.353h0.017
	c0.511-0.956,1.599-1.55,2.637-1.55C203.255,7.134,203.964,7.794,204.343,9.146"/>
<path fill="#231815" d="M219.052,9.146h0.016c0.676-1.335,1.731-2.012,2.918-2.012c2.16,0,2.853,1.369,2.853,3.891v5.309h-1.401
	v-5.357c0-1.83-0.396-2.737-1.649-2.737c-1.268,0-2.488,1.336-2.488,3.132l-0.017,4.963h-1.369v-5.357
	c0-1.83-0.428-2.737-1.665-2.737c-1.269,0-2.521,1.336-2.521,3.132v4.963h-1.368V7.332h1.384l0.05,1.353h0.017
	c0.511-0.956,1.6-1.55,2.638-1.55C217.963,7.134,218.672,7.794,219.052,9.146"/>
<path fill="#231815" d="M230.743,7.119c2.406,0,3.824,1.516,3.824,4.236v0.677h-6.611v0.147c0.051,2.109,1.221,3.198,3.066,3.198
	c0.957,0,1.914-0.247,2.919-0.956c0.115-0.099,0.181-0.083,0.181,0.066v1.137c-0.906,0.709-1.995,0.907-3.297,0.907
	c-2.604,0-4.385-1.698-4.385-4.666C226.44,9.014,228.204,7.119,230.743,7.119 M227.974,10.959h5.094v-0.065
	c0-1.781-0.923-2.705-2.358-2.705c-1.367,0-2.473,1.04-2.735,2.688V10.959z"/>
<path fill="#231815" d="M241.065,8.634c-0.313-0.181-0.61-0.247-1.056-0.247c-1.154,0-2.308,1.154-2.308,2.869v5.077h-1.418V7.333
	h1.434l0.05,1.302h0.017c0.462-0.956,1.434-1.516,2.374-1.516c0.462,0,0.774,0.032,1.104,0.214v1.219
	C241.263,8.701,241.197,8.734,241.065,8.634"/>
<path fill="#231815" d="M248.533,14.488c0.116-0.116,0.182-0.099,0.182,0.065v1.104c-0.692,0.659-1.648,0.907-2.637,0.907
	c-2.754,0-4.601-1.567-4.601-4.666c0-2.885,1.748-4.78,4.567-4.78c0.956,0,1.912,0.247,2.604,0.823V9.08
	c0,0.164-0.065,0.197-0.182,0.066c-0.708-0.626-1.5-0.841-2.39-0.841c-2.045,0-3.084,1.633-3.084,3.577
	c0,2.061,1.056,3.512,3.198,3.512C247.1,15.394,247.842,15.13,248.533,14.488"/>
<path fill="#231815" d="M253.58,7.119c2.406,0,3.824,1.516,3.824,4.236v0.677h-6.609v0.147c0.049,2.109,1.219,3.198,3.065,3.198
	c0.956,0,1.913-0.247,2.918-0.956c0.115-0.099,0.182-0.083,0.182,0.066v1.137c-0.906,0.709-1.995,0.907-3.298,0.907
	c-2.604,0-4.385-1.698-4.385-4.666C249.277,9.014,251.042,7.119,253.58,7.119 M250.811,10.959h5.094v-0.065
	c0-1.781-0.923-2.705-2.357-2.705c-1.368,0-2.474,1.04-2.736,2.688V10.959z"/>
<path fill="#231815" d="M262.402,14.421c1.105,0.644,2.143,0.989,2.984,0.989c1.253,0,1.929-0.512,1.929-1.501
	c0-0.56-0.495-0.972-1.385-1.351l-1.005-0.43c-1.616-0.692-2.425-1.45-2.425-2.687c0-1.368,1.139-2.324,3.134-2.324
	c0.988,0,1.895,0.23,2.802,0.807v1.204c0,0.164-0.049,0.182-0.148,0.083c-0.89-0.678-1.714-1.007-2.721-1.007
	c-0.955,0-1.566,0.329-1.566,1.138c0,0.858,0.595,1.204,1.271,1.468l1.088,0.479c1.418,0.593,2.473,1.169,2.473,2.604
	c0,1.648-1.418,2.671-3.413,2.671c-1.104,0-2.225-0.248-3.182-0.892v-1.137C262.237,14.388,262.287,14.356,262.402,14.421"/>
<path fill="#231815" d="M274.786,14.965c0.114-0.083,0.181-0.033,0.181,0.099v1.006c-0.445,0.329-1.121,0.445-1.715,0.445
	c-1.682,0.017-2.373-0.609-2.373-2.275V8.404h-1.567V7.333h1.567V5.106h1.417v2.227h2.341v1.071h-2.341v5.622
	c0,0.973,0.116,1.285,1.138,1.285C273.747,15.311,274.356,15.197,274.786,14.965"/>
<path fill="#231815" d="M276.699,9.26c-0.116,0.116-0.215,0.067-0.215-0.097V7.958c0.924-0.609,2.109-0.988,3.313-0.988
	c2.144,0,3.116,0.922,3.116,3.181v6.183h-1.369l-0.064-1.303h-0.018c-0.577,0.974-1.78,1.501-2.885,1.501
	c-1.764,0-2.984-0.907-2.984-2.605c0-1.664,1.055-2.835,3.083-3.148l2.836-0.413v-0.146c0-1.6-0.609-2.014-1.88-2.014
	C278.594,8.205,277.688,8.552,276.699,9.26 M281.563,12.674v-1.188l-2.391,0.296c-1.22,0.183-2.077,0.809-2.077,2.028
	c0,0.99,0.742,1.533,1.797,1.533C280.309,15.344,281.563,14.026,281.563,12.674"/>
<path fill="#231815" d="M289.379,14.965c0.115-0.083,0.181-0.033,0.181,0.099v1.006c-0.445,0.329-1.121,0.445-1.715,0.445
	c-1.681,0.017-2.373-0.609-2.373-2.275V8.404h-1.567V7.333h1.567V5.106h1.417v2.227h2.341v1.071h-2.341v5.622
	c0,0.973,0.116,1.285,1.138,1.285C288.34,15.311,288.949,15.197,289.379,14.965"/>
<path fill="#231815" d="M290.731,4.463c0-0.593,0.429-1.039,1.021-1.039c0.561,0,1.022,0.446,1.022,1.039
	c0,0.56-0.462,1.006-1.022,1.006C291.16,5.469,290.731,5.023,290.731,4.463 M292.462,16.333h-1.434V7.333h1.434V16.333z"/>
<path fill="#231815" d="M298.514,16.482c-2.886,0-4.188-2.127-4.188-4.683c0-2.703,1.417-4.681,4.188-4.681
	c2.77,0,4.187,1.978,4.187,4.681C302.7,14.355,301.398,16.482,298.514,16.482 M298.514,15.344c1.746,0,2.687-1.203,2.687-3.545
	c0-2.406-0.94-3.561-2.687-3.561c-1.748,0-2.688,1.154-2.688,3.561C295.825,14.141,296.766,15.344,298.514,15.344"/>
<path fill="#231815" d="M311.984,11.008v5.325h-1.417v-5.357c0-1.83-0.446-2.738-1.864-2.738c-1.417,0-2.786,1.337-2.786,3.133
	v4.963h-1.4V7.333h1.418L306,8.634h0.017c0.544-0.939,1.747-1.516,2.852-1.516C311.16,7.119,311.984,8.487,311.984,11.008"/>
<path fill="#231815" d="M156.133,58.757h12.395v-6.219h-12.174v-6.836h19.672v19.671h-12.394v6.749h13.629v6.836h-21.128V58.757z
	 M193.977,57.125v7.631c-0.177,0-0.367,0.007-0.574,0.022c-0.204,0.015-0.426,0.037-0.66,0.065c-0.236,0-0.472,0.016-0.706,0.044
	c-0.235,0.03-0.485,0.044-0.749,0.044c-0.501,0.089-0.979,0.178-1.435,0.266c-0.456,0.088-0.89,0.176-1.301,0.264v15.394h-8.16
	V45.349h8.16v12.57c0.411-0.117,0.845-0.227,1.301-0.331c0.455-0.103,0.948-0.198,1.479-0.286c0.264,0,0.521-0.015,0.771-0.045
	c0.25-0.027,0.479-0.043,0.685-0.043c0.234-0.029,0.448-0.052,0.64-0.066S193.8,57.125,193.977,57.125"/>
<path fill="#231815" d="M216.824,46.143v3.837c-0.06,1.472-0.154,2.883-0.287,4.235c-0.132,1.352-0.286,2.646-0.463,3.881h6.66
	V45.349h7.719v35.55h-7.719v-16.23c-0.235,0.059-0.493,0.103-0.772,0.132c-0.279,0.03-0.58,0.044-0.904,0.044
	c-0.353,0.059-0.713,0.103-1.08,0.133c-0.368,0.029-0.743,0.043-1.125,0.043c-0.206,0.03-0.404,0.052-0.596,0.067
	c-0.19,0.015-0.39,0.021-0.595,0.021h-0.551h-0.553c-0.412,0.029-0.794,0.044-1.146,0.044h-0.972h-0.132l-0.661,1.721
	c-0.529,1.234-1.125,2.44-1.786,3.616c-0.662,1.177-1.39,2.293-2.184,3.353c-0.824,1.118-1.72,2.19-2.69,3.22
	s-2.029,2.029-3.177,2.999l-6.659-4.852c0.971-0.823,1.875-1.646,2.713-2.47c0.838-0.822,1.609-1.661,2.315-2.515
	c0.617-0.706,1.19-1.44,1.72-2.205s1.015-1.544,1.455-2.338h-8.291v-7.057h11.026c0.176-0.823,0.316-1.69,0.419-2.603
	c0.104-0.91,0.184-1.853,0.242-2.822H196.27v-7.058H216.824z"/>
<path fill="#231815" d="M234.29,73.269h36.476v7.057H234.29V73.269z M234.643,63.433c2.205-1.059,4.184-2.235,5.932-3.528
	c1.75-1.294,3.286-2.69,4.61-4.19c1.293-1.471,2.293-3.043,2.999-4.72s1.102-3.44,1.191-5.293h8.248
	c-0.061,1.235-0.192,2.427-0.397,3.573c-0.206,1.146-0.501,2.249-0.882,3.309c1.323,0.765,2.602,1.536,3.837,2.314
	c1.235,0.78,2.396,1.581,3.484,2.404c1.059,0.882,2.161,1.838,3.308,2.867c1.146,1.028,2.323,2.16,3.529,3.396l-5.205,5.91
	c-1.029-1.146-2.088-2.234-3.176-3.264c-1.089-1.028-2.205-2.014-3.353-2.955c-1.058-0.734-2.095-1.44-3.108-2.117
	c-1.016-0.676-2.037-1.308-3.065-1.896l-0.53,0.662c-0.853,1.029-1.764,2.006-2.733,2.934c-0.972,0.926-2,1.786-3.089,2.58
	c-1.146,0.853-2.314,1.625-3.506,2.314c-1.19,0.691-2.403,1.317-3.639,1.875L234.643,63.433z"/>
<path fill="#231815" d="M291.452,52.539h-9.396v6.396h8.337v6.836h-8.337v6.353h5.072c0.53,0,1.044-0.008,1.544-0.022
	s0.999-0.066,1.5-0.154c0.441-0.029,0.839-0.081,1.191-0.154s0.661-0.169,0.926-0.287v6.572c-0.265,0.176-0.589,0.323-0.97,0.44
	c-0.383,0.118-0.809,0.192-1.28,0.221c-0.528,0.089-1.073,0.147-1.631,0.177c-0.559,0.03-1.147,0.044-1.765,0.044H274.78V45.703
	h16.672V52.539z M295.289,80.9V64.844l-3.22,0.088v-7.276h3.22V45.349h7.013V80.9H295.289z M304.463,45.349h6.969V80.9h-6.969
	V45.349z"/>
<path fill="#231815" d="M300.848,103.165H165.774c-22.104,0-40.086-17.982-40.086-40.085s17.982-40.086,40.086-40.086h135.073
	c22.104,0,40.085,17.983,40.085,40.086S322.951,103.165,300.848,103.165 M165.774,32.117c-17.073,0-30.963,13.891-30.963,30.963
	s13.89,30.962,30.963,30.962h135.073c17.073,0,30.962-13.89,30.962-30.962s-13.889-30.963-30.962-30.963H165.774z"/>
<path fill="#070001" d="M55.07,62.86c0-2.68-2.18-4.858-4.859-4.858s-4.858,2.179-4.858,4.858c0,2.679,2.179,4.859,4.858,4.859
	S55.07,65.539,55.07,62.86 M89.083,37.754c0,1.34,1.09,2.43,2.431,2.43c1.339,0,2.429-1.09,2.429-2.43c0-1.339-1.09-2.43-2.429-2.43
	C90.173,35.325,89.083,36.416,89.083,37.754 M48.591,19.938c0,1.34,1.091,2.429,2.43,2.429c1.34,0,2.43-1.089,2.43-2.429
	s-1.09-2.43-2.43-2.43C49.682,17.508,48.591,18.598,48.591,19.938 M41.601,72.926l1.024-3.073c-2.726-0.907-5.335-0.607-7.35,0.843
	c-1.804,1.302-2.881,3.376-2.881,5.552h3.239c0-1.119,0.589-2.24,1.536-2.924C38.317,72.496,39.892,72.355,41.601,72.926
	 M28.642,81.024l1.025-3.073c-2.725-0.906-5.335-0.606-7.349,0.844c-1.804,1.301-2.882,3.376-2.882,5.553h3.24
	c0-1.121,0.588-2.242,1.536-2.925C25.358,80.597,26.932,80.455,28.642,81.024 M102.605,87.241c0.328-0.051,0.673-0.086,1.055-0.086
	v-1.62v-1.618c-0.042,0-0.078,0.007-0.119,0.008c0.072-0.54,0.119-1.084,0.119-1.628c0-0.82-0.612-1.512-1.426-1.608l-3.442-0.413
	l-3.4-6.802c-0.233-0.466-0.676-0.791-1.189-0.875c-0.51-0.081-1.036,0.086-1.405,0.454l-5.806,5.807l-2.845-0.341l-3.332-6.665
	c-0.233-0.465-0.675-0.79-1.19-0.874c-0.507-0.084-1.036,0.084-1.403,0.454l-5.691,5.691l-3.55-0.427
	c-0.904-0.109-1.185-0.839-1.249-1.059c-0.064-0.222-0.219-0.987,0.484-1.564l9.123-7.368l7.993,2.664
	c0.168,0.056,0.34,0.084,0.514,0.084c0.335,0,0.667-0.104,0.946-0.307c0.423-0.304,0.673-0.793,0.673-1.313v-9.309l1.874-1.514
	l7.92,2.641c0.168,0.056,0.342,0.083,0.514,0.083c0.335,0,0.667-0.104,0.947-0.306c0.423-0.304,0.673-0.793,0.673-1.314v-9.515
	c1.723-1.876,3.646-4.646,3.914-7.885c0.243-2.94-0.887-5.685-3.358-8.156c-2.782-2.782-7.093-3.54-10.981-1.928
	c-3.647,1.511-6.011,4.781-6.325,8.662l-22.4,14.933c-1.564-1.649-4.894-4.325-10.029-4.325v-4.086l5.877,2.352l1.203-3.009
	l-2.661-1.064c3.179-2.011,5.3-5.548,5.3-9.579v-4.859l5.83-4.373c0.408-0.306,0.648-0.785,0.648-1.296
	c0-0.51-0.24-0.989-0.648-1.295l-5.873-4.405c-0.394-5.317-4.465-9.616-9.676-10.366V6.17c0-3.108-2.072-5.617-5.042-6.1
	c-2.306-0.375-5.126,0.707-6.213,3.968l3.073,1.024c0.634-1.901,2.045-1.889,2.621-1.794c1.118,0.182,2.321,1.167,2.321,2.901v1.75
	c-5.485,0.79-9.718,5.508-9.718,11.208v2.537L30.86,40.598c-0.138,0.406-0.108,0.851,0.083,1.237
	c0.19,0.385,0.526,0.678,0.933,0.814c1.347,0.455,3.142,0.807,5.07,0.807c1.313,0,2.688-0.166,4.025-0.569
	c1.637,1.491,3.707,2.506,6,2.837v4.567c-5.27,1.261-9.084,5.56-9.646,11.13c-1.927,0.421-4.427,1.645-5.874,4.389
	c-2.186-0.394-4.241,0.024-5.894,1.216c-1.206,0.869-2.087,2.085-2.539,3.446c-1.799-0.32-3.714,0.008-5.257,0.962
	c-1.505,0.93-2.514,2.323-2.946,4.026c-2.019-0.266-3.914,0.172-5.455,1.283c-1.375,0.991-2.328,2.435-2.703,4.027
	c-1.943,0.268-3.512,1.095-4.677,2.473c-0.209,0.245-0.393,0.506-0.564,0.771C0.972,83.953,0.502,83.917,0,83.917v1.618v1.62
	c0.06,0,0.111,0.009,0.17,0.011c0.6,0.014,1.13,0.092,1.604,0.23c0.568,0.166,1.061,0.419,1.519,0.727
	c0.716,0.482,1.35,1.104,2.045,1.799c0.154,0.153,0.317,0.313,0.479,0.474c0.564,0.552,1.19,1.114,1.916,1.619
	c1.309,0.912,2.951,1.62,5.233,1.62c2.282,0,3.923-0.708,5.232-1.62c0.725-0.505,1.351-1.067,1.915-1.619
	c0.163-0.16,0.326-0.32,0.48-0.475c1.546-1.545,2.767-2.766,5.337-2.766c2.569,0,3.789,1.221,5.334,2.766
	c0.154,0.154,0.317,0.314,0.48,0.475c0.563,0.552,1.189,1.114,1.914,1.619c1.308,0.912,2.948,1.62,5.229,1.62s3.922-0.708,5.23-1.62
	c0.727-0.505,1.352-1.067,1.915-1.619c0.163-0.16,0.326-0.32,0.481-0.475c1.545-1.545,2.765-2.766,5.334-2.766
	c2.567,0,3.787,1.221,5.333,2.766c0.153,0.154,0.316,0.314,0.479,0.475c0.563,0.552,1.189,1.114,1.914,1.619
	c1.308,0.912,2.948,1.62,5.229,1.62c2.279,0,3.92-0.708,5.228-1.62c0.725-0.505,1.35-1.067,1.913-1.619
	c0.163-0.16,0.326-0.32,0.479-0.475c1.546-1.545,2.765-2.766,5.332-2.766s3.786,1.221,5.331,2.766
	c0.155,0.154,0.317,0.314,0.48,0.475c0.563,0.552,1.188,1.114,1.914,1.619c1.307,0.912,2.947,1.62,5.228,1.62
	c3.347,0,5.333-1.512,6.874-2.983c0.259-0.247,0.509-0.493,0.746-0.73c0.637-0.638,1.222-1.211,1.866-1.675
	C100.88,87.751,101.64,87.392,102.605,87.241 M59.93,22.367l2.159,1.62l-2.159,1.62V22.367z M40.103,23.354
	c0.124,0.064,0.257,0.136,0.39,0.21c2.631,1.443,6.848,4.792,4.819,10.802c-0.775,2.296-2.043,3.723-3.478,4.595
	c-0.479,0.291-0.975,0.519-1.479,0.694c-0.544,0.191-1.095,0.325-1.64,0.409c-1.596,0.245-3.13,0.098-4.222-0.099l2.761-8.175
	l1.62-4.797L40.103,23.354z M48.591,42.614c-0.446,0-0.877-0.062-1.304-0.132c-1.117-0.183-2.157-0.581-3.072-1.173
	c1.742-1.25,3.23-3.139,4.165-5.907c2.884-8.54-3.484-13.637-7.888-15.452v-0.821c0-4.465,3.634-8.099,8.099-8.099
	c4.466,0,8.099,3.634,8.099,8.099v9.718v5.669c0,3.846-2.701,7.06-6.302,7.882C49.808,42.529,49.21,42.614,48.591,42.614
	 M92.33,54.595l3.821-3.087v4.36L92.33,54.595z M80.33,64.289l3.895-3.146v4.444L80.33,64.289z M80.293,78.055l-3.674-0.441
	l2.302-2.302L80.293,78.055z M94.939,79.813L91.08,79.35l2.419-2.418L94.939,79.813z M100.31,83.72
	c-0.048,0.299-0.131,0.592-0.209,0.887c-0.602,0.252-1.136,0.563-1.625,0.9c-0.954,0.658-1.737,1.423-2.438,2.123
	c-1.544,1.544-2.763,2.765-5.329,2.765c-2.567,0-3.787-1.221-5.332-2.765c-1.652-1.655-3.712-3.714-7.621-3.714
	s-5.968,2.059-7.621,3.714c-1.545,1.544-2.765,2.765-5.331,2.765c-2.568,0-3.788-1.221-5.333-2.765
	c-1.654-1.655-3.714-3.714-7.623-3.714c-3.911,0-5.971,2.059-7.625,3.714c-1.545,1.544-2.767,2.765-5.335,2.765
	c-2.568,0-3.788-1.221-5.333-2.765c-1.654-1.655-3.714-3.714-7.624-3.714c-3.911,0-5.972,2.058-7.627,3.713
	c-1.545,1.545-2.766,2.766-5.337,2.766c-1.328,0-2.294-0.33-3.132-0.856c0.214-0.812,0.716-1.562,1.42-2.068
	c1.147-0.826,2.721-0.968,4.431-0.398L16.709,84c-2.726-0.907-5.335-0.608-7.349,0.843c-0.894,0.644-1.607,1.479-2.102,2.422
	c-0.738-0.729-1.565-1.497-2.604-2.115c0.802-0.816,1.922-1.232,3.445-1.232c0.894,0,1.619-0.726,1.619-1.62
	c0-1.121,0.589-2.241,1.536-2.926c1.147-0.825,2.721-0.967,4.431-0.396c0.495,0.161,1.036,0.081,1.459-0.223
	c0.423-0.306,0.673-0.794,0.673-1.314c0-1.843,0.896-2.783,1.647-3.248c1.186-0.731,2.835-0.799,4.107-0.162
	c0.502,0.25,1.099,0.225,1.576-0.07c0.477-0.295,0.768-0.817,0.768-1.379c0-1.12,0.589-2.24,1.536-2.925
	c1.147-0.825,2.721-0.968,4.43-0.397c0.409,0.135,0.853,0.104,1.237-0.087c0.385-0.192,0.677-0.529,0.813-0.938
	c1.217-3.653,4.802-3.749,4.954-3.752c0.885-0.013,1.607-0.733,1.607-1.619c0-5.54,4.179-9.718,9.719-9.718
	c5.485,0,8.26,3.975,8.375,4.145c0.5,0.734,1.5,0.935,2.241,0.442l24.296-16.197c0.45-0.301,0.722-0.806,0.722-1.348
	c0-2.976,1.631-5.428,4.36-6.559c2.677-1.107,5.599-0.626,7.451,1.225c1.793,1.793,2.585,3.624,2.421,5.598
	c-0.138,1.669-0.985,3.27-1.992,4.632c-1.224,1.654-2.688,2.95-3.464,3.505l-7.949,6.42l-0.598,0.482L74.111,65.15l-7.939,6.412
	c-1.499,1.227-2.09,3.131-1.552,4.981c0.538,1.849,2.061,3.141,3.974,3.37l1.192,0.143l1.875,0.226l12.294,1.476l0.361,0.043
	l1.496,0.18l0.311,0.037l12.479,1.498L100.31,83.72z M7.628,97.347C5.972,95.693,3.912,93.634,0,93.634v3.238
	c2.571,0,3.792,1.222,5.338,2.767c1.655,1.654,3.716,3.713,7.628,3.713s5.972-2.059,7.627-3.714
	c1.546-1.544,2.767-2.766,5.337-2.766c2.569,0,3.789,1.222,5.334,2.766c1.654,1.655,3.713,3.714,7.623,3.714
	c3.911,0,5.971-2.059,7.626-3.714c1.545-1.544,2.765-2.766,5.334-2.766c2.567,0,3.787,1.222,5.333,2.766
	c1.653,1.655,3.713,3.714,7.623,3.714c3.908,0,5.968-2.059,7.62-3.714c1.546-1.544,2.765-2.766,5.332-2.766s3.786,1.222,5.331,2.766
	c1.654,1.655,3.712,3.714,7.622,3.714c3.908,0,5.967-2.059,7.62-3.714c1.545-1.544,2.765-2.766,5.331-2.766v-3.238
	c-3.909,0-5.967,2.059-7.622,3.714c-1.544,1.544-2.763,2.765-5.329,2.765c-2.567,0-3.787-1.221-5.332-2.765
	c-1.652-1.655-3.712-3.714-7.621-3.714s-5.968,2.059-7.621,3.714c-1.545,1.544-2.765,2.765-5.331,2.765
	c-2.568,0-3.788-1.221-5.333-2.765c-1.654-1.655-3.714-3.714-7.623-3.714c-3.911,0-5.971,2.059-7.625,3.714
	c-1.545,1.544-2.767,2.765-5.335,2.765c-2.568,0-3.788-1.221-5.333-2.765c-1.654-1.655-3.714-3.714-7.624-3.714
	c-3.911,0-5.972,2.059-7.627,3.713c-1.545,1.545-2.766,2.766-5.337,2.766C10.395,100.113,9.173,98.892,7.628,97.347"/>
</svg>
