<?xml version="1.0" encoding="utf-8"?>
<!-- Generator: Adobe Illustrator 16.0.0, SVG Export Plug-In . SVG Version: 6.00 Build 0)  -->
<!DOCTYPE svg PUBLIC "-//W3C//DTD SVG 1.1//EN" "http://www.w3.org/Graphics/SVG/1.1/DTD/svg11.dtd">
<svg version="1.1" id="Layer_1" xmlns="http://www.w3.org/2000/svg" xmlns:xlink="http://www.w3.org/1999/xlink" x="0px" y="0px"
	 width="111.477px" height="111.476px" viewBox="0 0 111.477 111.476" enable-background="new 0 0 111.477 111.476"
	 xml:space="preserve">
<path fill="#E5E5E4" d="M55.738,106.629c-13.594,0-26.373-5.294-35.986-14.906C10.14,82.112,4.847,69.332,4.847,55.738
	c0-13.593,5.293-26.373,14.905-35.985c9.613-9.612,22.392-14.906,35.986-14.906c13.594,0,26.374,5.294,35.986,14.906
	c9.611,9.612,14.904,22.392,14.904,35.985c0,13.594-5.293,26.374-14.904,35.985C82.112,101.335,69.332,106.629,55.738,106.629"/>
<path fill="#262523" d="M55.738,9.693c6.22,0,12.249,1.217,17.92,3.615c5.481,2.318,10.407,5.64,14.638,9.872
	c4.232,4.231,7.554,9.156,9.872,14.638c2.398,5.671,3.614,11.7,3.614,17.92c0,6.219-1.216,12.249-3.614,17.92
	c-2.318,5.48-5.64,10.406-9.872,14.638c-4.23,4.231-9.156,7.554-14.638,9.872c-5.671,2.398-11.7,3.613-17.92,3.613
	c-6.22,0-12.249-1.215-17.92-3.613c-5.481-2.318-10.407-5.641-14.638-9.872c-4.232-4.231-7.553-9.157-9.872-14.638
	c-2.398-5.672-3.614-11.701-3.614-17.92c0-6.22,1.216-12.249,3.614-17.92c2.319-5.482,5.64-10.407,9.872-14.638
	c4.231-4.232,9.157-7.554,14.638-9.872C43.489,10.91,49.518,9.693,55.738,9.693 M55.738,0C24.955,0,0,24.955,0,55.738
	c0,30.784,24.955,55.738,55.738,55.738s55.738-24.954,55.738-55.738C111.477,24.955,86.521,0,55.738,0"/>
<path fill="#262523" d="M76.42,53.871L46.51,36.602c-1.437-0.829-3.234,0.208-3.234,1.868v34.537c0,1.66,1.797,2.697,3.234,1.867
	l29.91-17.269C77.856,56.776,77.856,54.701,76.42,53.871"/>
</svg>
